<svg width="24" height="24" viewBox="0 0 24 24" fill="none" xmlns="http://www.w3.org/2000/svg">
<path d="M18.2975 14.9225V17.1572C18.3029 17.1786 18.3057 17.2001 18.3058 17.2217C18.3109 18.0372 14.5658 18.721 9.94076 18.7491C5.31572 18.7772 1.56223 18.1389 1.55709 17.3235C1.55692 17.2964 1.5609 17.2695 1.56888 17.2428H1.56539V14.5109C1.56539 13.936 3.32728 13.4358 5.92489 13.1782V10.9571C3.29421 10.7241 1.50356 10.2455 1.5 9.6824C1.49984 9.65537 1.50383 9.62847 1.5118 9.60174H1.50831V6.86989C1.50831 6.03164 5.25391 5.35209 9.87436 5.35209C14.4948 5.35209 18.2404 6.03164 18.2404 6.86989V9.51615C18.2432 9.5273 18.2453 9.53849 18.2467 9.54971C20.8721 9.80578 22.657 10.3088 22.657 10.8875V13.5337C22.6624 13.5551 22.6652 13.5766 22.6653 13.5982C22.6688 14.1584 20.9028 14.6564 18.2975 14.9225Z" fill="#FBBE12"/>
<path d="M9.86455 8.15484C9.78707 8.15531 9.70986 8.15597 9.63289 8.15681L9.56681 7.73018C9.56436 7.71437 9.54114 7.71437 9.53869 7.73018L9.47229 8.15881C5.18122 8.21977 1.73689 8.84505 1.51131 9.60156H1.50781V6.86972C1.50781 6.03147 5.25342 5.35192 9.87387 5.35192C14.4943 5.35192 18.2399 6.03147 18.2399 6.86972V9.51597C18.0432 8.73164 14.3669 8.12749 9.86455 8.15484Z" fill="#F5A10F"/>
<path d="M17.5154 8.49684C17.5154 8.54279 17.4774 8.58008 17.4306 8.58008C17.3837 8.58008 17.3457 8.54279 17.3457 8.49684V6.85891C17.3457 6.81296 17.3837 6.77568 17.4306 6.77568C17.4774 6.77568 17.5154 6.81296 17.5154 6.85891V8.49684Z" fill="#DB8D07"/>
<path d="M16.2947 8.12575C16.2947 8.1717 16.2567 8.20898 16.2099 8.20898C16.163 8.20898 16.125 8.1717 16.125 8.12575V6.48782C16.125 6.44187 16.163 6.40458 16.2099 6.40458C16.2567 6.40458 16.2947 6.44187 16.2947 6.48782V8.12575Z" fill="#DB8D07"/>
<path d="M14.9129 7.84255C14.9129 7.8885 14.8749 7.92578 14.828 7.92578C14.7811 7.92578 14.7432 7.8885 14.7432 7.84255V6.20462C14.7432 6.15867 14.7811 6.12138 14.828 6.12138C14.8749 6.12138 14.9129 6.15867 14.9129 6.20462V7.84255Z" fill="#DB8D07"/>
<path d="M13.531 7.68825C13.531 7.7342 13.4931 7.77148 13.4462 7.77148C13.3993 7.77148 13.3613 7.7342 13.3613 7.68825V6.05032C13.3613 6.00437 13.3993 5.96708 13.4462 5.96708C13.4931 5.96708 13.531 6.00437 13.531 6.05032V7.68825Z" fill="#DB8D07"/>
<path d="M12.1482 7.58473C12.1482 7.63069 12.1102 7.66797 12.0634 7.66797C12.0165 7.66797 11.9785 7.63069 11.9785 7.58473V5.9468C11.9785 5.90085 12.0165 5.86357 12.0634 5.86357C12.1102 5.86357 12.1482 5.90085 12.1482 5.9468V7.58473Z" fill="#DB8D07"/>
<path d="M10.7674 7.52809C10.7674 7.57404 10.7294 7.61133 10.6825 7.61133C10.6356 7.61133 10.5977 7.57405 10.5977 7.52809V5.89016C10.5977 5.84421 10.6356 5.80693 10.6825 5.80693C10.7294 5.80693 10.7674 5.84421 10.7674 5.89016V7.52809Z" fill="#DB8D07"/>
<path d="M2.40213 8.49684C2.40213 8.54279 2.36415 8.58008 2.31728 8.58008C2.2704 8.58008 2.23242 8.54279 2.23242 8.49684V6.85891C2.23242 6.81296 2.2704 6.77568 2.31728 6.77568C2.36415 6.77568 2.40213 6.81296 2.40213 6.85891V8.49684Z" fill="#DB8D07"/>
<path d="M3.62284 8.12575C3.62284 8.1717 3.58486 8.20898 3.53798 8.20898C3.4911 8.20898 3.45312 8.1717 3.45312 8.12575V6.48782C3.45312 6.44187 3.4911 6.40458 3.53798 6.40458C3.58485 6.40458 3.62284 6.44187 3.62284 6.48782V8.12575Z" fill="#DB8D07"/>
<path d="M5.00565 7.84255C5.00565 7.8885 4.96767 7.92578 4.92079 7.92578C4.87391 7.92578 4.83594 7.8885 4.83594 7.84255V6.20462C4.83594 6.15867 4.87391 6.12138 4.92079 6.12138C4.96767 6.12138 5.00565 6.15867 5.00565 6.20462V7.84255Z" fill="#DB8D07"/>
<path d="M6.21777 6.04982C6.21777 6.00387 6.25575 5.96658 6.30263 5.96658C6.34951 5.96658 6.38748 6.00387 6.38748 6.04982V6.69727L6.21777 6.67197V6.04982Z" fill="#DB8D07"/>
<path d="M6.38748 7.68825C6.38748 7.7342 6.34951 7.77148 6.30263 7.77148C6.25575 7.77148 6.21777 7.7342 6.21777 7.68825V6.74452L6.38748 6.71923V7.68825Z" fill="#DB8D07"/>
<path d="M7.76834 7.58473C7.76834 7.63069 7.73037 7.66797 7.68349 7.66797C7.63661 7.66797 7.59863 7.63069 7.59863 7.58473V5.9468C7.59863 5.90085 7.63661 5.86357 7.68349 5.86357C7.73037 5.86357 7.76834 5.90085 7.76834 5.9468V7.58473Z" fill="#DB8D07"/>
<path d="M9.15018 7.52809C9.15018 7.57404 9.1122 7.61133 9.06532 7.61133C9.01846 7.61133 8.98047 7.57405 8.98047 7.52809V5.89016C8.98047 5.84421 9.01845 5.80693 9.06532 5.80693C9.1122 5.80693 9.15018 5.84421 9.15018 5.89016V7.52809Z" fill="#DB8D07"/>
<path d="M19.5087 12.4628L19.4519 12.0959C19.4494 12.0801 19.4262 12.0801 19.4238 12.0959L19.3698 12.4445C17.9585 12.2628 16.1947 12.1604 14.2817 12.172C10.8148 12.193 7.84224 12.5826 6.57315 13.1198C7.02538 13.0838 7.49852 13.0548 7.98834 13.0337C8.28647 12.961 8.6414 12.893 9.05277 12.8298C9.52918 12.7568 10.0591 12.6941 10.6291 12.6428L10.6148 12.7347C10.61 12.7661 10.5849 12.7907 10.553 12.7954L10.1682 12.8528L10.1625 12.8557C9.77768 12.8965 9.41488 12.9428 9.07898 12.9943C9.06417 12.9966 9.0495 12.9989 9.03488 13.0012C9.32946 12.9955 9.62859 12.9925 9.9315 12.9925C10.162 12.9925 10.3904 12.9942 10.6162 12.9976L10.6733 13.3664C10.6749 13.3769 10.6902 13.3769 10.6918 13.3664L10.7486 12.9997C11.0924 13.0058 11.43 13.0156 11.7603 13.0289C11.9887 12.9091 12.6036 12.8422 13.1068 12.9354C13.3365 12.978 13.6095 13.0402 13.8672 13.1707C14.0794 13.1912 14.2862 13.2134 14.487 13.2371C14.7072 13.0567 14.9973 12.9744 15.2406 12.9193C16.0319 12.7399 17.325 13.0146 16.4682 13.2776C17.6649 13.1839 18.2944 13.5725 17.273 13.7062C17.2186 13.7133 17.1613 13.7204 17.0993 13.7272C17.8108 13.9411 18.2397 14.1894 18.2921 14.4551C18.7244 14.4112 19.1303 14.3604 19.503 14.3033C21.0442 14.0668 21.5898 13.779 21.5887 13.6045C21.5877 13.438 21.0881 13.1746 19.7025 12.9617C19.7252 12.9523 19.7494 12.9456 19.7746 12.9418L20.2042 12.8778C21.2345 13.072 21.7566 13.3153 21.7584 13.6034C21.7606 13.9497 21.0106 14.2405 19.5292 14.4677C19.1503 14.5259 18.7374 14.5774 18.2975 14.6219V17.1566C18.1009 16.3723 14.4245 15.7681 9.92216 15.7955C8.67609 15.803 7.49388 15.8582 6.43167 15.9507C6.44211 15.9387 6.45682 15.9303 6.47357 15.9278L6.83097 15.8745C6.84083 15.8731 6.84083 15.8591 6.83097 15.8576L6.47357 15.8044C6.44391 15.8 6.42063 15.7771 6.41613 15.748L6.36414 15.4124C6.40889 15.4101 6.44441 15.3738 6.44441 15.3293V13.6914C6.44441 13.6454 6.40643 13.6081 6.35955 13.6081C6.31268 13.6081 6.2747 13.6454 6.2747 13.6914V15.3293C6.2747 15.3696 6.30382 15.4031 6.34254 15.4109L6.29032 15.7481C6.28581 15.7771 6.26253 15.8 6.23289 15.8044L5.87549 15.8577C5.86563 15.8591 5.86563 15.8731 5.87549 15.8745L6.23289 15.9278C6.25521 15.9311 6.27392 15.9449 6.28372 15.9639C3.61246 16.2079 1.73355 16.6901 1.56892 17.2422H1.56543V14.5103C1.56543 13.9354 3.32733 13.4352 5.92493 13.1776V10.8869C5.92493 10.8113 5.95536 10.737 6.01411 10.6645C5.52351 10.623 5.06473 10.5726 4.64692 10.5137C3.16277 10.3045 2.40915 10.0228 2.40697 9.67657C2.40479 9.33036 3.15481 9.03957 4.63618 8.8123C5.77615 8.63742 7.22277 8.52227 8.79015 8.47927L8.77247 8.48189C8.75635 8.48429 8.75635 8.50708 8.77247 8.50948L9.2165 8.57565C9.26831 8.58338 9.31572 8.60375 9.35542 8.63347C7.58075 8.66208 5.93012 8.78229 4.6624 8.97676C3.12117 9.21318 2.57558 9.50099 2.57668 9.67558C2.57779 9.85012 3.12696 10.1313 4.67107 10.3489C5.1294 10.4136 5.63745 10.4679 6.18302 10.5113C6.60561 10.2101 7.52473 9.94486 8.773 9.74598C7.78881 9.82109 7.32568 9.78712 6.97266 9.75155C5.90441 9.64392 6.3803 9.24154 7.60752 9.30507C6.65293 9.06465 7.83334 8.75908 8.69027 8.91787C8.94336 8.96475 9.24908 9.0355 9.52895 9.19517L9.53924 9.26161C9.54168 9.27742 9.56491 9.27742 9.56736 9.26161L9.57356 9.22155C9.67685 9.28472 9.77596 9.36072 9.86679 9.453C10.0778 9.10125 10.494 8.97648 10.824 8.90168C11.6153 8.72234 12.9084 8.99706 12.0516 9.26007C12.6326 9.21454 13.08 9.28273 13.2695 9.38024C13.6043 9.37285 13.9452 9.36904 14.291 9.36904C15.2705 9.36904 16.2107 9.39958 17.0842 9.4557C16.8757 9.28978 16.2766 9.08252 15.0778 8.91352C13.6861 8.7173 11.8363 8.61564 9.86808 8.62778C9.83131 8.628 9.7946 8.62828 9.75792 8.62857C9.79621 8.60151 9.84121 8.58294 9.89012 8.57565L10.3341 8.50948C10.3503 8.50708 10.3503 8.48429 10.3341 8.48189L10.1895 8.46035C12.0446 8.46072 13.7786 8.56219 15.1019 8.74874C16.4185 8.93438 17.1601 9.17696 17.3124 9.47105C17.6339 9.49366 17.9459 9.51976 18.2468 9.54911C20.8722 9.80518 22.6571 10.3082 22.6571 10.8869V13.5331C22.5467 13.0931 21.341 12.7097 19.5087 12.4628Z" fill="#F5A10F"/>
<path d="M14.2844 12.6458C13.0502 12.6533 11.8628 12.7049 10.8063 12.7949C10.7771 12.7882 10.7546 12.7647 10.7501 12.7352L10.7344 12.634C11.8099 12.5405 13.0226 12.487 14.2834 12.4794C14.3878 12.4787 14.4918 12.4784 14.5955 12.4784C16.3244 12.4784 17.9486 12.5661 19.2339 12.7288C19.1954 12.7562 19.1501 12.775 19.1008 12.7824L18.7283 12.8379C17.4554 12.7035 15.9102 12.6359 14.2844 12.6458Z" fill="#F5A10F"/>
<path d="M21.9324 12.5144C21.9324 12.5604 21.8944 12.5977 21.8476 12.5977C21.8007 12.5977 21.7627 12.5604 21.7627 12.5144V10.8765C21.7627 10.8306 21.8007 10.7933 21.8476 10.7933C21.8944 10.7933 21.9324 10.8306 21.9324 10.8765V12.5144Z" fill="#DB8D07"/>
<path d="M20.541 10.855V10.5056C20.541 10.4597 20.579 10.4224 20.6259 10.4224C20.6727 10.4224 20.7107 10.4597 20.7107 10.5056V10.8809L20.7076 10.8798L20.541 10.855Z" fill="#DB8D07"/>
<path d="M20.7107 10.8955V12.1433C20.7107 12.1893 20.6727 12.2266 20.6259 12.2266C20.579 12.2266 20.541 12.1893 20.541 12.1433V10.9214L20.7076 10.8965L20.7107 10.8955Z" fill="#DB8D07"/>
<path d="M19.3299 11.8601C19.3299 11.9061 19.2919 11.9434 19.245 11.9434C19.1981 11.9434 19.1602 11.9061 19.1602 11.8601V10.2222C19.1602 10.1762 19.1981 10.139 19.245 10.139C19.2919 10.139 19.3299 10.1762 19.3299 10.2222V11.8601Z" fill="#DB8D07"/>
<path d="M17.7773 10.0684C17.7773 10.0225 17.8153 9.98518 17.8622 9.98518C17.9091 9.98518 17.9471 10.0225 17.9471 10.0684V11.5117L17.7773 11.4864V10.0684Z" fill="#DB8D07"/>
<path d="M17.9471 11.7058C17.9471 11.7518 17.9091 11.7891 17.8622 11.7891C17.8153 11.7891 17.7773 11.7518 17.7773 11.7058V11.6041L17.9471 11.5788V11.7058Z" fill="#DB8D07"/>
<path d="M16.3965 9.96438C16.3965 9.91843 16.4345 9.88115 16.4813 9.88115C16.5282 9.88115 16.5662 9.91843 16.5662 9.96438V11.6023C16.5662 11.6483 16.5282 11.6855 16.4813 11.6855C16.4345 11.6855 16.3965 11.6483 16.3965 11.6023V9.96438Z" fill="#DB8D07"/>
<path d="M15.0137 9.90774C15.0137 9.86179 15.0516 9.82451 15.0985 9.82451C15.1454 9.82451 15.1834 9.86179 15.1834 9.90774V11.5457C15.1834 11.5916 15.1454 11.6289 15.0985 11.6289C15.0516 11.6289 15.0137 11.5916 15.0137 11.5457V9.90774Z" fill="#DB8D07"/>
<path d="M6.73329 10.7933C6.78017 10.7933 6.81815 10.8306 6.81815 10.8765V12.5144C6.81815 12.5604 6.78017 12.5977 6.73329 12.5977C6.68643 12.5977 6.64844 12.5604 6.64844 12.5144V10.8765C6.64844 10.8306 6.68643 10.7933 6.73329 10.7933Z" fill="#DB8D07"/>
<path d="M8.03983 10.5054V12.1433C8.03983 12.1893 8.00185 12.2266 7.95497 12.2266C7.90809 12.2266 7.87012 12.1893 7.87012 12.1433V10.5054C7.87012 10.4595 7.90809 10.4222 7.95497 10.4222C8.00185 10.4222 8.03983 10.4595 8.03983 10.5054Z" fill="#DB8D07"/>
<path d="M9.33681 10.139C9.38368 10.139 9.42166 10.1762 9.42166 10.2222V11.8601C9.42166 11.9061 9.38369 11.9434 9.33681 11.9434C9.28993 11.9434 9.25195 11.9061 9.25195 11.8601V10.2222C9.25195 10.1762 9.28993 10.139 9.33681 10.139Z" fill="#DB8D07"/>
<path d="M10.7186 11.7891C10.6718 11.7891 10.6338 11.7518 10.6338 11.7058V10.0679C10.6338 10.022 10.6718 9.98467 10.7186 9.98467C10.7655 9.98467 10.8035 10.022 10.8035 10.0679V11.7058C10.8035 11.7518 10.7655 11.7891 10.7186 11.7891Z" fill="#DB8D07"/>
<path d="M12.0156 9.96438C12.0156 9.91843 12.0536 9.88115 12.1005 9.88115C12.1474 9.88115 12.1853 9.91843 12.1853 9.96438V11.6023C12.1853 11.6483 12.1474 11.6855 12.1005 11.6855C12.0536 11.6855 12.0156 11.6483 12.0156 11.6023V9.96438Z" fill="#DB8D07"/>
<path d="M13.3975 9.90774C13.3975 9.86179 13.4354 9.82451 13.4823 9.82451C13.5292 9.82451 13.5672 9.86179 13.5672 9.90774V11.5457C13.5672 11.5916 13.5292 11.6289 13.4823 11.6289C13.4354 11.6289 13.3975 11.5916 13.3975 11.5457V9.90774Z" fill="#DB8D07"/>
<path d="M6.36069 16.335L6.37271 16.2573C7.44858 16.1638 8.66165 16.1103 9.92296 16.1026C10.0274 16.102 10.1314 16.1017 10.2351 16.1017C12.0941 16.1017 13.8321 16.2031 15.1578 16.39C16.642 16.5993 17.3956 16.8809 17.3978 17.2272C17.4 17.5734 16.65 17.8642 15.1686 18.0915C13.7715 18.3058 11.9138 18.4305 9.93772 18.4425C7.96178 18.4541 6.1026 18.3524 4.70284 18.155C3.21871 17.9458 2.46508 17.6641 2.4629 17.3179C2.46071 16.9717 3.21073 16.6809 4.6921 16.4536C5.18618 16.3778 5.73786 16.3132 6.332 16.2609L6.34349 16.335C6.34498 16.3447 6.35918 16.3447 6.36069 16.335Z" fill="#F5A10F"/>
<path d="M2.63281 17.3173C2.63392 17.4918 3.18309 17.7729 4.7272 17.9907C4.82871 18.005 4.93265 18.0188 5.03891 18.0321L5.06019 18.1695C5.06264 18.1853 5.08587 18.1853 5.08832 18.1695L5.10828 18.0406C6.37038 18.1945 7.9478 18.2773 9.62554 18.2773C9.72884 18.2773 9.83286 18.277 9.93688 18.2764C11.9048 18.2644 13.7535 18.1405 15.1426 17.9274C16.6838 17.6909 17.2294 17.4032 17.2283 17.2286C17.2272 17.054 16.678 16.7729 15.1339 16.5552C13.7423 16.359 11.8915 16.2579 9.92424 16.2695C7.95634 16.2814 6.1076 16.4054 4.71853 16.6185C3.1773 16.8549 2.63171 17.1427 2.63281 17.3173Z" fill="#FBBE12"/>
<path d="M17.4043 14.4995C17.4043 14.4536 17.4423 14.4163 17.4892 14.4163C17.536 14.4163 17.574 14.4536 17.574 14.4995V16.1375C17.574 16.1834 17.536 16.2207 17.4892 16.2207C17.4423 16.2207 17.4043 16.1835 17.4043 16.1375V14.4995Z" fill="#DB8D07"/>
<path d="M16.1816 14.1285C16.1816 14.0825 16.2196 14.0452 16.2665 14.0452C16.3134 14.0452 16.3514 14.0825 16.3514 14.1285V15.7664C16.3514 15.8123 16.3134 15.8496 16.2665 15.8496C16.2196 15.8496 16.1816 15.8124 16.1816 15.7664V14.1285Z" fill="#DB8D07"/>
<path d="M14.8847 15.5664C14.8378 15.5664 14.7998 15.5292 14.7998 15.4832V13.8452C14.7998 13.7993 14.8378 13.762 14.8847 13.762C14.9315 13.762 14.9695 13.7993 14.9695 13.8452V15.4832C14.9695 15.5291 14.9315 15.5664 14.8847 15.5664Z" fill="#DB8D07"/>
<path d="M13.5877 13.691V15.3289C13.5877 15.3749 13.5497 15.4121 13.5028 15.4121C13.4559 15.4121 13.418 15.3749 13.418 15.3289V13.691C13.418 13.645 13.4559 13.6077 13.5028 13.6077C13.5497 13.6077 13.5877 13.645 13.5877 13.691Z" fill="#DB8D07"/>
<path d="M12.0371 13.5874C12.0371 13.5415 12.0751 13.5042 12.122 13.5042C12.1688 13.5042 12.2068 13.5415 12.2068 13.5874V15.2254C12.2068 15.2713 12.1688 15.3086 12.122 15.3086C12.0751 15.3086 12.0371 15.2713 12.0371 15.2254V13.5874Z" fill="#DB8D07"/>
<path d="M10.6543 13.5308C10.6543 13.4848 10.6923 13.4476 10.7392 13.4476C10.786 13.4476 10.824 13.4848 10.824 13.5308V15.1687C10.824 15.2147 10.786 15.252 10.7392 15.252C10.6923 15.252 10.6543 15.2147 10.6543 15.1687V13.5308Z" fill="#DB8D07"/>
<path d="M2.45877 16.1375C2.45877 16.1834 2.4208 16.2207 2.37392 16.2207C2.32704 16.2207 2.28906 16.1835 2.28906 16.1375V14.4995C2.28906 14.4536 2.32704 14.4163 2.37392 14.4163C2.4208 14.4163 2.45877 14.4536 2.45877 14.4995V16.1375Z" fill="#DB8D07"/>
<path d="M3.51172 14.1288C3.51172 14.0828 3.5497 14.0455 3.59657 14.0455C3.64344 14.0455 3.68143 14.0828 3.68143 14.1288V15.1134L3.51172 15.1387V14.1288Z" fill="#DB8D07"/>
<path d="M3.68143 15.7664C3.68143 15.8123 3.64345 15.8496 3.59657 15.8496C3.5497 15.8496 3.51172 15.8124 3.51172 15.7664V15.1864L3.68143 15.2117V15.7664Z" fill="#DB8D07"/>
<path d="M5.06229 15.4832C5.06229 15.5291 5.02431 15.5664 4.97743 15.5664C4.93057 15.5664 4.89258 15.5292 4.89258 15.4832V13.8452C4.89258 13.7993 4.93056 13.762 4.97743 13.762C5.02431 13.762 5.06229 13.7993 5.06229 13.8452V15.4832Z" fill="#DB8D07"/>
<path d="M6.34336 15.3972L6.34128 15.4106C6.30257 15.4028 6.27344 15.3693 6.27344 15.329V13.6911C6.27344 13.6451 6.31141 13.6078 6.35829 13.6078C6.40517 13.6078 6.44315 13.6451 6.44315 13.6911V15.329C6.44315 15.3735 6.40763 15.4098 6.36288 15.4121L6.36057 15.3972C6.35906 15.3875 6.34485 15.3875 6.34336 15.3972Z" fill="#DB8D07"/>
<path d="M7.65625 13.5874C7.65625 13.5415 7.69423 13.5042 7.74111 13.5042C7.78798 13.5042 7.82596 13.5415 7.82596 13.5874V15.2254C7.82596 15.2713 7.78798 15.3086 7.74111 15.3086C7.69423 15.3086 7.65625 15.2713 7.65625 15.2254V13.5874Z" fill="#DB8D07"/>
<path d="M9.03809 13.5308C9.03809 13.4848 9.07606 13.4476 9.12294 13.4476C9.16981 13.4476 9.2078 13.4848 9.2078 13.5308V15.1687C9.2078 15.2147 9.16982 15.252 9.12294 15.252C9.07606 15.252 9.03809 15.2147 9.03809 15.1687V13.5308Z" fill="#DB8D07"/>
<path d="M10.8813 16.5427C11.6726 16.3633 12.9657 16.6381 12.1089 16.9011C13.3056 16.8073 13.9351 17.1959 12.9137 17.3296C12.5328 17.3795 12.0115 17.4308 10.7023 17.3445C11.5605 17.5541 11.7234 17.6963 11.7848 17.7992C11.9436 18.0652 10.3284 18.189 9.92928 17.8633C9.58345 18.1684 7.9558 18.089 8.07376 17.7992C8.11457 17.699 8.21728 17.5724 9.03188 17.3707C7.90763 17.4666 7.40623 17.4305 7.02994 17.3926C5.96169 17.2849 6.43757 16.8825 7.66479 16.9461C6.7102 16.7057 7.89061 16.4001 8.74754 16.5589C9.10854 16.6258 9.57668 16.7411 9.92407 17.094C10.1351 16.7423 10.5513 16.6175 10.8813 16.5427Z" fill="#F5A10F"/>
<path d="M4.73737 17.4838L4.29334 17.4176C4.27722 17.4152 4.27722 17.3925 4.29334 17.39L4.73736 17.3239C4.86917 17.3042 4.97262 17.2028 4.99266 17.0735L5.06011 16.6379C5.06256 16.6221 5.08579 16.6221 5.08824 16.6379L5.15569 17.0735C5.17572 17.2028 5.27916 17.3042 5.41099 17.3239L5.85501 17.39C5.87112 17.3925 5.87112 17.4152 5.85501 17.4176L5.41098 17.4838C5.27916 17.5035 5.17572 17.6049 5.15569 17.7342L5.10819 18.0409L5.08823 18.1698C5.08578 18.1856 5.06255 18.1856 5.0601 18.1698L5.03882 18.0323L4.99265 17.7342C4.97261 17.6049 4.86917 17.5035 4.73737 17.4838Z" fill="white"/>
<path d="M4.18001 14.9984C4.18627 15.0388 4.21864 15.0706 4.25987 15.0767L4.75683 15.1508C4.77053 15.1528 4.77053 15.1722 4.75683 15.1743L4.25987 15.2483C4.21864 15.2545 4.18627 15.2862 4.18001 15.3267L4.10451 15.8141C4.10242 15.8276 4.08267 15.8276 4.08058 15.8141L4.00508 15.3267C3.99881 15.2862 3.96645 15.2545 3.92521 15.2483L3.6802 15.2118L3.51049 15.1865L3.42825 15.1743C3.41454 15.1722 3.41454 15.1528 3.42825 15.1508L3.51049 15.1385L3.6802 15.1132L3.92521 15.0767C3.96645 15.0706 3.99881 15.0388 4.00508 14.9984L4.08058 14.5109C4.08266 14.4975 4.10241 14.4975 4.10451 14.5109L4.18001 14.9984Z" fill="white"/>
<path d="M6.37294 16.2569L6.36092 16.3345C6.35941 16.3442 6.34521 16.3442 6.34371 16.3345L6.33223 16.2604L6.28941 15.984C6.2883 15.9768 6.28603 15.97 6.28282 15.9637C6.27302 15.9447 6.25431 15.931 6.23198 15.9276L5.87458 15.8744C5.86472 15.8729 5.86472 15.859 5.87458 15.8575L6.23198 15.8042C6.26164 15.7998 6.28492 15.777 6.28941 15.7479L6.34163 15.4107L6.34371 15.3973C6.34521 15.3876 6.35941 15.3876 6.36092 15.3973L6.36324 15.4122L6.41522 15.7479C6.41973 15.777 6.44301 15.7998 6.47266 15.8042L6.83006 15.8575C6.83992 15.859 6.83992 15.8729 6.83006 15.8744L6.47266 15.9276C6.45592 15.9301 6.44121 15.9385 6.43077 15.9505C6.42272 15.9598 6.41719 15.9713 6.41522 15.984L6.37294 16.2569Z" fill="white"/>
<path d="M19.7743 12.7829L20.2183 12.8491C20.2344 12.8515 20.2344 12.8742 20.2183 12.8766L20.2039 12.8788L19.7743 12.9428C19.749 12.9466 19.7249 12.9533 19.7021 12.9627C19.6059 13.0023 19.5352 13.0887 19.519 13.1932L19.4515 13.6288C19.4491 13.6446 19.4258 13.6446 19.4234 13.6288L19.3559 13.1932C19.3359 13.0639 19.2325 12.9625 19.1006 12.9428L18.6566 12.8766C18.6405 12.8742 18.6405 12.8514 18.6566 12.849L18.7281 12.8384L19.1006 12.7829C19.15 12.7755 19.1953 12.7567 19.2338 12.7293C19.2982 12.6834 19.3434 12.6134 19.3559 12.5325L19.3694 12.4455L19.4234 12.0969C19.4258 12.0811 19.4491 12.0811 19.4515 12.0969L19.5083 12.4638L19.519 12.5325C19.539 12.6618 19.6424 12.7632 19.7743 12.7829Z" fill="white"/>
<path d="M16.7671 11.5336L17.2641 11.4595C17.3053 11.4534 17.3377 11.4217 17.3439 11.3812L17.4194 10.8937C17.4215 10.8803 17.4413 10.8803 17.4434 10.8937L17.5189 11.3812C17.5251 11.4217 17.5575 11.4534 17.5987 11.4595L17.7779 11.4862L17.9476 11.5115L18.0957 11.5336C18.1094 11.5356 18.1094 11.555 18.0957 11.5571L17.9476 11.5791L17.7779 11.6044L17.5987 11.6311C17.5575 11.6373 17.5251 11.669 17.5189 11.7095L17.4434 12.1969C17.4413 12.2104 17.4215 12.2104 17.4194 12.1969L17.3439 11.7095C17.3377 11.669 17.3053 11.6373 17.2641 11.6311L16.7671 11.5571C16.7534 11.555 16.7534 11.5356 16.7671 11.5336Z" fill="white"/>
<path d="M20.7111 10.8948L20.708 10.8958L20.5414 10.9207L20.3506 10.9491C20.3209 10.9535 20.2977 10.9763 20.2932 11.0054L20.2389 11.356C20.2374 11.3657 20.2232 11.3657 20.2217 11.356L20.1674 11.0054C20.1628 10.9763 20.1396 10.9535 20.1099 10.9491L19.7525 10.8958C19.7427 10.8944 19.7427 10.8804 19.7525 10.879L20.1099 10.8257C20.1396 10.8213 20.1628 10.7984 20.1674 10.7694L20.2217 10.4188C20.2232 10.4091 20.2374 10.4091 20.2389 10.4188L20.2932 10.7694C20.2977 10.7984 20.3209 10.8213 20.3506 10.8257L20.5414 10.8541L20.708 10.879L20.7111 10.88C20.7168 10.8831 20.7168 10.8917 20.7111 10.8948Z" fill="white"/>
<path d="M9.47117 8.16527L9.47224 8.15836L9.53863 7.72973C9.54108 7.71392 9.56431 7.71392 9.56676 7.72973L9.63283 8.15635L9.63421 8.16527C9.65423 8.29456 9.75768 8.39604 9.88949 8.41569L10.1889 8.46032L10.3335 8.48186C10.3496 8.48427 10.3496 8.50705 10.3335 8.50945L9.88949 8.57562C9.84058 8.58292 9.79558 8.60148 9.7573 8.62854C9.6924 8.67442 9.6468 8.74472 9.63421 8.82605L9.57295 9.22152L9.56675 9.26158C9.5643 9.27739 9.54107 9.27739 9.53862 9.26158L9.52834 9.19515L9.47116 8.82604C9.45901 8.74757 9.41611 8.67935 9.35481 8.63345C9.31511 8.60372 9.26769 8.58335 9.21588 8.57564L8.77185 8.50946C8.75574 8.50706 8.75574 8.48428 8.77185 8.48187L8.78954 8.47925L9.21587 8.41571C9.34769 8.39605 9.45114 8.29457 9.47117 8.16527Z" fill="white"/>
<path d="M4.96902 9.62261C4.98007 9.62426 4.98007 9.63989 4.96902 9.64155L4.56802 9.70131C4.53474 9.70627 4.50862 9.73188 4.50358 9.76452L4.44265 10.1579C4.44097 10.1687 4.42503 10.1687 4.42334 10.1579L4.36242 9.76452C4.35736 9.73188 4.33125 9.70627 4.29798 9.70131L3.89697 9.64155C3.88591 9.63991 3.88591 9.62426 3.89697 9.62261L4.29798 9.56284C4.33125 9.55789 4.35736 9.53227 4.36242 9.49963L4.42334 9.10628C4.42503 9.09543 4.44097 9.09543 4.44265 9.10628L4.50358 9.49963C4.50863 9.53228 4.53474 9.5579 4.56802 9.56284L4.96902 9.62261Z" fill="white"/>
<path d="M10.6908 12.358L10.7336 12.6342L10.7493 12.7355C10.7538 12.765 10.7763 12.7885 10.8055 12.7951L10.8111 12.7962L11.1959 12.8535C11.2065 12.8551 11.2065 12.8701 11.1959 12.8717L10.8111 12.929C10.7792 12.9338 10.7541 12.9584 10.7493 12.9897L10.7476 13.0005L10.6908 13.3672C10.6892 13.3776 10.6739 13.3776 10.6723 13.3672L10.6151 12.9983L10.6138 12.9897C10.6089 12.9584 10.5839 12.9338 10.552 12.929L10.1671 12.8717C10.159 12.8705 10.1571 12.8613 10.1615 12.8565L10.1671 12.8535L10.552 12.7962C10.5839 12.7914 10.6089 12.7668 10.6138 12.7355L10.628 12.6435L10.6723 12.358C10.6739 12.3476 10.6892 12.3476 10.6908 12.358Z" fill="white"/>
<path d="M6.40234 6.71811L6.38699 6.72041L6.21728 6.74569L6.04493 6.77138C6.01528 6.77579 5.992 6.79862 5.9875 6.82771L5.9332 7.17829C5.93169 7.18797 5.91749 7.18797 5.91599 7.17829L5.86169 6.82771C5.85718 6.79862 5.8339 6.77579 5.80426 6.77138L5.44685 6.7181C5.43699 6.71663 5.43699 6.70269 5.44685 6.70123L5.80426 6.64797C5.83391 6.64355 5.85719 6.62071 5.86169 6.59162L5.91599 6.24104C5.91748 6.23136 5.93169 6.23136 5.9332 6.24104L5.9875 6.59162C5.992 6.62071 6.01528 6.64355 6.04493 6.64797L6.21728 6.67365L6.38699 6.69895L6.40234 6.70124C6.4122 6.7027 6.4122 6.71664 6.40234 6.71811Z" fill="white"/>
</svg>
