<svg width="24" height="24" viewBox="0 0 24 24" fill="none" xmlns="http://www.w3.org/2000/svg">
<path fill-rule="evenodd" clip-rule="evenodd" d="M17.7116 3.17953C15.6708 2.08939 13.315 1.74067 11.0459 2.1928C8.77677 2.64493 6.73462 3.86992 5.26748 5.65903C3.88727 7.34212 3.0963 9.42647 3.00824 11.5939L2.70711 11.2928C2.31658 10.9022 1.68342 10.9022 1.29289 11.2928C0.902369 11.6833 0.902369 12.3165 1.29289 12.707L3.28641 14.7005C3.31312 14.7277 3.34137 14.7534 3.37103 14.7774C3.42771 14.8234 3.48826 14.8622 3.55146 14.8939C3.68636 14.9618 3.83872 14.9999 4 14.9999C4.16156 14.9999 4.31418 14.9616 4.44925 14.8936C4.5122 14.8619 4.5725 14.8232 4.62898 14.7774C4.65866 14.7534 4.68694 14.7276 4.71368 14.7004L6.70711 12.707C7.09763 12.3165 7.09763 11.6833 6.70711 11.2928C6.31658 10.9022 5.68342 10.9022 5.29289 11.2928L5.01133 11.5743C5.10175 9.87663 5.73123 8.24759 6.81399 6.92722C7.9877 5.49594 9.62141 4.51594 11.4367 4.15424C13.252 3.79254 15.1366 4.07152 16.7693 4.94363C18.4019 5.81574 19.6817 7.22702 20.3904 8.93696C21.0991 10.6469 21.1929 12.5497 20.6559 14.3211C20.1189 16.0924 18.9842 17.6228 17.4453 18.6513C15.9063 19.6798 14.0583 20.1429 12.2163 19.9615C10.3742 19.7802 8.65195 18.9657 7.34311 17.6568C6.95259 17.2663 6.31943 17.2663 5.9289 17.6568C5.53837 18.0473 5.53837 18.6805 5.92889 19.071C7.56494 20.7071 9.71771 21.7252 12.0203 21.9519C14.3229 22.1786 16.6329 21.5998 18.5566 20.3141C20.4802 19.0285 21.8986 17.1156 22.5699 14.9013C23.2412 12.6871 23.1239 10.3086 22.238 8.1712C21.3521 6.03377 19.7524 4.26967 17.7116 3.17953ZM13 7.99988C13 7.44759 12.5523 6.99988 12 6.99988C11.4477 6.99988 11 7.44759 11 7.99988V12.9999C11 13.5522 11.4477 13.9999 12 13.9999H17C17.5523 13.9999 18 13.5522 18 12.9999C18 12.4476 17.5523 11.9999 17 11.9999H13V7.99988Z" fill="#94A3B8"/>
</svg>
