<svg width="20" height="20" viewBox="0 0 20 20" fill="none" xmlns="http://www.w3.org/2000/svg">
<path d="M6 13.5H12.5C13.0676 13.5001 13.6238 13.6614 14.1035 13.9648C14.5831 14.2683 14.9667 14.702 15.21 15.2148C15.4531 15.7277 15.5461 16.2989 15.4775 16.8623C15.409 17.4256 15.1821 17.9579 14.8232 18.3975C14.4642 18.837 13.9875 19.166 13.4492 19.3457C12.9107 19.5253 12.3314 19.5491 11.7803 19.4131C11.2293 19.277 10.728 18.9866 10.335 18.5771C9.94212 18.1678 9.67295 17.6555 9.55957 17.0996C9.53318 16.9697 9.55958 16.8342 9.63281 16.7236C9.706 16.6132 9.82034 16.5362 9.9502 16.5098C10.0801 16.4834 10.2156 16.5098 10.3262 16.583C10.4367 16.6562 10.5136 16.7705 10.54 16.9004V16.9014C10.6159 17.2719 10.7956 17.6131 11.0576 17.8857C11.3198 18.1584 11.6541 18.352 12.0215 18.4424C12.3889 18.5328 12.775 18.5164 13.1338 18.3965C13.4924 18.2765 13.8097 18.0576 14.0488 17.7646C14.288 17.4716 14.4397 17.1167 14.4854 16.7412C14.5309 16.3656 14.4688 15.9844 14.3066 15.6426C14.1445 15.3008 13.8881 15.0118 13.5684 14.8096C13.2487 14.6075 12.8782 14.5001 12.5 14.5H6C5.86739 14.5 5.74025 14.4473 5.64648 14.3535C5.55272 14.2597 5.5 14.1326 5.5 14C5.5 13.8674 5.55272 13.7403 5.64648 13.6465C5.74025 13.5527 5.86739 13.5 6 13.5ZM15.7803 4.58691C16.3314 4.45091 16.9107 4.47467 17.4492 4.6543C17.9875 4.83395 18.4642 5.16303 18.8232 5.60254C19.1821 6.04207 19.409 6.5744 19.4775 7.1377C19.5461 7.7011 19.4531 8.27233 19.21 8.78516C18.9667 9.29798 18.5831 9.73169 18.1035 10.0352C17.6238 10.3386 17.0676 10.4999 16.5 10.5H1C0.867392 10.5 0.740253 10.4473 0.646484 10.3535C0.552716 10.2597 0.5 10.1326 0.5 10C0.5 9.86739 0.552716 9.74025 0.646484 9.64648C0.740253 9.55272 0.867392 9.5 1 9.5H16.5C17.0304 9.5 17.539 9.28913 17.9141 8.91406C18.2891 8.53899 18.5 8.03043 18.5 7.5C18.5 6.96957 18.2891 6.46101 17.9141 6.08594C17.539 5.71087 17.0304 5.5 16.5 5.5C16.0392 5.49988 15.5924 5.65893 15.2354 5.9502C14.8782 6.24149 14.6325 6.64715 14.54 7.09863V7.09961C14.527 7.16384 14.5015 7.22492 14.4648 7.2793C14.4281 7.33375 14.3809 7.38073 14.3262 7.41699C14.2714 7.45324 14.2099 7.47866 14.1455 7.49121C14.0811 7.50373 14.0145 7.50329 13.9502 7.49023C13.886 7.47717 13.8248 7.45163 13.7705 7.41504C13.7161 7.37834 13.6691 7.3311 13.6328 7.27637C13.5966 7.22168 13.5721 7.16009 13.5596 7.0957C13.547 7.03125 13.5465 6.96474 13.5596 6.90039C13.673 6.34447 13.9421 5.83222 14.335 5.42285C14.728 5.01342 15.2293 4.72295 15.7803 4.58691ZM7.78125 0.586914C8.33231 0.451085 8.91085 0.47462 9.44922 0.654297C9.98757 0.834006 10.4642 1.16295 10.8232 1.60254C11.1821 2.04206 11.409 2.57443 11.4775 3.1377C11.546 3.70117 11.4532 4.27328 11.21 4.78613C10.9668 5.29872 10.5829 5.73178 10.1035 6.03516C9.62385 6.3386 9.06758 6.49987 8.5 6.5H3C2.86739 6.5 2.74025 6.44728 2.64648 6.35352C2.55272 6.25975 2.5 6.13261 2.5 6C2.5 5.86739 2.55272 5.74025 2.64648 5.64648C2.74025 5.55272 2.86739 5.5 3 5.5H8.5C9.03043 5.5 9.53899 5.28914 9.91406 4.91406C10.2891 4.53899 10.5 4.03043 10.5 3.5C10.5 2.96957 10.2891 2.46101 9.91406 2.08594C9.53899 1.71086 9.03043 1.5 8.5 1.5C8.03919 1.49988 7.59245 1.65893 7.23535 1.9502C6.87823 2.24149 6.63252 2.64715 6.54004 3.09863V3.09961C6.52692 3.16382 6.50149 3.22497 6.46484 3.2793C6.42811 3.33374 6.38094 3.38075 6.32617 3.41699C6.27147 3.45318 6.20989 3.4777 6.14551 3.49023C6.08104 3.50276 6.01455 3.50236 5.9502 3.48926C5.88593 3.47616 5.82489 3.45072 5.77051 3.41406C5.71607 3.37733 5.66905 3.33016 5.63281 3.27539C5.59661 3.22065 5.57111 3.15915 5.55859 3.09473C5.54616 3.03056 5.54662 2.96445 5.55957 2.90039C5.67309 2.34424 5.94275 1.83126 6.33594 1.42188C6.72909 1.0126 7.23023 0.72277 7.78125 0.586914Z" fill="#1E1B4B" stroke="white"/>
</svg>
