<svg width="24" height="24" viewBox="0 0 24 24" fill="none" xmlns="http://www.w3.org/2000/svg">
<path fill-rule="evenodd" clip-rule="evenodd" d="M17.3727 1.34574C18.0465 1.04579 18.7908 0.937941 19.5221 1.03421C20.2532 1.13058 20.9441 1.42752 21.5172 1.89164C22.0903 2.35584 22.5239 2.96985 22.7701 3.66507C23.0163 4.36035 23.0651 5.11062 22.9117 5.83207L22.8453 6.09964C22.6687 6.71749 22.3452 7.28581 21.901 7.75394L21.7047 7.9473C21.3816 8.24385 21.0111 8.48227 20.611 8.65824C20.9471 9.49887 21.1635 10.4027 21.232 11.3506L21.9996 23H19.9996L19.2379 11.4952C18.9732 7.83475 15.9254 5.00023 12.2555 5.00004H11.7506C8.08256 5.00023 5.0363 7.83195 4.76916 11.4903L3.99963 23H1.99963L2.77502 11.3448C2.84398 10.4002 3.05851 9.49916 3.39318 8.66117C2.99097 8.485 2.61913 8.24519 2.29455 7.9473L2.09826 7.75394C1.65399 7.28578 1.33061 6.71758 1.15392 6.09964L1.08752 5.83207C0.934169 5.11058 0.982944 4.36038 1.22912 3.66507C1.47534 2.96987 1.90893 2.35582 2.48205 1.89164C3.05521 1.42756 3.746 1.13054 4.47717 1.03421C5.20844 0.93799 5.95276 1.04574 6.62658 1.34574C7.30042 1.64579 7.87871 2.12652 8.2965 2.73441L8.44494 2.96683C8.55073 3.14611 8.6402 3.33375 8.71642 3.5264C9.66608 3.18621 10.688 3.00008 11.7506 3.00004H12.2555C13.3156 3.00008 14.3351 3.18481 15.2828 3.52347C15.3925 3.24691 15.5327 2.98182 15.7028 2.73441C16.1206 2.12655 16.6988 1.64575 17.3727 1.34574ZM19.2604 3.01761C18.8949 2.96954 18.523 3.02299 18.1861 3.17289C17.8493 3.32288 17.5601 3.56334 17.3512 3.86722C17.2366 4.034 17.1487 4.21668 17.0895 4.40824C18.1017 5.05382 18.9759 5.89799 19.6598 6.88675C19.9594 6.782 20.2314 6.60823 20.4508 6.37699C20.7045 6.10954 20.879 5.77663 20.9557 5.41605C21.0228 5.10037 21.0125 4.77352 20.9264 4.4639L20.8854 4.33207C20.7777 4.02804 20.5979 3.75507 20.3629 3.53617L20.2584 3.44535C20.0078 3.24241 19.7118 3.10393 19.3971 3.04007L19.2604 3.01761ZM5.8131 3.17289C5.47631 3.02294 5.1044 2.96959 4.73888 3.01761L4.60217 3.04007C4.28743 3.1039 3.9915 3.24245 3.74084 3.44535C3.45428 3.67739 3.23703 3.98452 3.11388 4.33207C2.99077 4.67974 2.96689 5.05528 3.04357 5.41605C3.12028 5.77671 3.29466 6.10951 3.54845 6.37699L3.64709 6.47367C3.84852 6.65853 4.08702 6.79629 4.34533 6.88578C5.02774 5.89922 5.90042 5.05711 6.90978 4.41214C6.86395 4.26285 6.80204 4.11858 6.72228 3.98343L6.64806 3.86722C6.4653 3.6013 6.22094 3.38408 5.93713 3.23343L5.8131 3.17289Z" fill="#1E1B4B"/>
<path d="M13.0651 15C13.4643 15.0001 13.7025 15.4451 13.4811 15.7774L12.4156 17.376C12.2178 17.6728 11.7816 17.6727 11.5836 17.376L10.5172 15.7774C10.2959 15.4452 10.5341 15.0002 10.9332 15H13.0651Z" fill="#1E1B4B"/>
<path fill-rule="evenodd" clip-rule="evenodd" d="M11.858 11C13.3583 11.0001 14.7135 11.8972 15.2994 13.2784L16.2662 15.5557C17.5627 18.6116 15.3191 21.9999 11.9996 22C8.74043 22 6.47117 18.8231 7.44787 15.7764L7.55236 15.4825L8.37756 13.375C8.93866 11.9427 10.3197 11.0001 11.858 11ZM11.858 13C11.1427 13.0001 10.5008 13.4385 10.2399 14.1045L9.41467 16.211C8.70157 18.0319 10.0441 20 11.9996 20C13.8865 19.9999 15.1613 18.074 14.4244 16.3369L13.4586 14.0596C13.1862 13.4174 12.5556 13.0001 11.858 13Z" fill="#1E1B4B"/>
<path d="M7.99963 8.00004C8.55172 8.00024 8.9996 8.4479 8.99963 9.00004V10C8.99963 10.5522 8.55174 10.9998 7.99963 11C7.44734 11 6.99963 10.5523 6.99963 10V9.00004C6.99965 8.44777 7.44736 8.00004 7.99963 8.00004Z" fill="#1E1B4B"/>
<path d="M15.9996 8.00004C16.5517 8.00024 16.9996 8.4479 16.9996 9.00004V10C16.9996 10.5522 16.5517 10.9998 15.9996 11C15.4473 11 14.9996 10.5523 14.9996 10V9.00004C14.9997 8.44777 15.4474 8.00004 15.9996 8.00004Z" fill="#1E1B4B"/>
</svg>
