<svg width="24" height="24" viewBox="0 0 24 24" fill="none" xmlns="http://www.w3.org/2000/svg">
<path d="M21.0002 11.0002C20.735 11.0002 20.4806 11.1055 20.2931 11.2931C20.1055 11.4806 20.0002 11.735 20.0002 12.0002V14.5902L13.7102 8.29019C13.6172 8.19646 13.5066 8.12206 13.3848 8.07129C13.2629 8.02053 13.1322 7.99439 13.0002 7.99439C12.8682 7.99439 12.7375 8.02053 12.6156 8.07129C12.4937 8.12206 12.3831 8.19646 12.2902 8.29019L9.00019 11.5902L3.71019 6.29019C3.52188 6.10188 3.26649 5.99609 3.00019 5.99609C2.73388 5.99609 2.47849 6.10188 2.29019 6.29019C2.10188 6.47849 1.99609 6.73388 1.99609 7.00019C1.99609 7.26649 2.10188 7.52188 2.29019 7.71019L8.29019 13.7102C8.38315 13.8039 8.49375 13.8783 8.61561 13.9291C8.73747 13.9798 8.86817 14.006 9.00019 14.006C9.1322 14.006 9.2629 13.9798 9.38476 13.9291C9.50662 13.8783 9.61722 13.8039 9.71019 13.7102L13.0002 10.4102L18.5902 16.0002H16.0002C15.735 16.0002 15.4806 16.1055 15.2931 16.2931C15.1055 16.4806 15.0002 16.735 15.0002 17.0002C15.0002 17.2654 15.1055 17.5198 15.2931 17.7073C15.4806 17.8948 15.735 18.0002 16.0002 18.0002H21.0002C21.1309 17.9986 21.26 17.9714 21.3802 17.9202C21.6245 17.8187 21.8187 17.6245 21.9202 17.3802C21.9714 17.26 21.9986 17.1309 22.0002 17.0002V12.0002C22.0002 11.735 21.8948 11.4806 21.7073 11.2931C21.5198 11.1055 21.2654 11.0002 21.0002 11.0002Z" fill="#1E1B4B"/>
</svg>
