<svg width="20" height="22" viewBox="0 0 20 22" fill="none" xmlns="http://www.w3.org/2000/svg">
<path d="M7.40213 2.59574C7.66755 2.35283 7.98227 2.17006 8.3248 2.05994C8.66733 1.94981 9.02959 1.91492 9.38684 1.95764C9.7441 2.00036 10.0879 2.11969 10.3948 2.30748C10.7017 2.49527 10.9645 2.74709 11.1651 3.04574L11.2551 3.19174L11.9451 4.38874C11.9925 4.32341 12.0425 4.26008 12.0951 4.19874C12.6691 3.52274 13.4991 3.09674 14.4321 2.93974C15.2121 2.80974 15.8161 3.30974 16.0421 3.87674L16.0831 3.99074C16.2881 4.65874 16.6611 5.47074 17.1331 6.33874C18.7111 9.25174 18.4881 12.9277 16.3731 15.3757C15.9531 17.2867 14.8281 19.0177 12.9731 20.0887C11.3572 21.0214 9.43708 21.274 7.63494 20.7911C5.83279 20.3083 4.29622 19.1294 3.36313 17.5137C2.64159 16.2633 1.90956 15.0189 1.16713 13.7807C0.982769 13.4739 0.866837 13.1308 0.827258 12.775C0.787678 12.4192 0.825383 12.059 0.937796 11.7191C1.05021 11.3792 1.23468 11.0676 1.4786 10.8055C1.72252 10.5435 2.02015 10.3372 2.35113 10.2007L2.50213 10.1447L1.72913 8.80474C1.5401 8.47777 1.42761 8.11221 1.40012 7.73553C1.37262 7.35885 1.43082 6.98083 1.57036 6.62987C1.7099 6.27891 1.92714 5.96412 2.20578 5.70915C2.48441 5.45419 2.81719 5.26566 3.17913 5.15774C2.95292 4.60658 2.93099 3.99274 3.11728 3.42684C3.30357 2.86093 3.68583 2.38015 4.1952 2.07113C4.70457 1.7621 5.30756 1.64515 5.89553 1.74133C6.48349 1.83752 7.01778 2.14052 7.40213 2.59574ZM3.64413 7.11974C3.52929 7.18605 3.4455 7.29526 3.41118 7.42334C3.37686 7.55143 3.39483 7.6879 3.46113 7.80274L6.71113 13.4327C6.77783 13.5465 6.82136 13.6724 6.83923 13.803C6.85709 13.9337 6.84894 14.0666 6.81523 14.1941C6.78152 14.3216 6.72292 14.4412 6.64282 14.5459C6.56271 14.6507 6.46267 14.7386 6.34846 14.8045C6.23425 14.8704 6.10812 14.9131 5.97734 14.9301C5.84656 14.9471 5.71371 14.9381 5.58644 14.9036C5.45916 14.869 5.33998 14.8096 5.23575 14.7288C5.13153 14.648 5.04431 14.5474 4.97913 14.4327L3.72213 12.2567C3.68969 12.2016 3.64671 12.1534 3.59564 12.1148C3.54456 12.0763 3.4864 12.0482 3.42446 12.0321C3.36252 12.016 3.29803 12.0123 3.23466 12.0212C3.17129 12.0301 3.11028 12.0513 3.05513 12.0837C2.99997 12.1162 2.95175 12.1592 2.9132 12.2102C2.87466 12.2613 2.84655 12.3195 2.83049 12.3814C2.81442 12.4433 2.81072 12.5078 2.81958 12.5712C2.82844 12.6346 2.84969 12.6956 2.88213 12.7507C3.63213 14.0007 4.36613 15.2507 5.09513 16.5127C5.76299 17.6693 6.86292 18.5132 8.15296 18.8588C9.443 19.2045 10.8175 19.0235 11.9741 18.3557C13.2891 17.5957 14.1281 16.3187 14.4361 14.8757L14.4611 14.2957C14.5111 12.9667 14.4681 11.7917 13.7761 10.5157C13.3641 9.75574 12.9901 8.97874 12.7241 8.25074C12.2641 8.41874 11.9811 8.69974 11.8461 8.98874C11.5711 9.57874 11.8461 10.2047 12.1461 10.7247C12.2138 10.8374 12.2585 10.9622 12.2779 11.0921C12.2973 11.222 12.2909 11.3545 12.2591 11.4819C12.2273 11.6094 12.1707 11.7293 12.0926 11.8349C12.0144 11.9405 11.9162 12.0296 11.8036 12.0972C11.691 12.1649 11.5662 12.2097 11.4363 12.2291C11.3064 12.2484 11.1739 12.2421 11.0464 12.2102C10.919 12.1784 10.7991 12.1218 10.6935 12.0437C10.5879 11.9655 10.4988 11.8674 10.4311 11.7547C10.0741 11.1817 9.73113 10.5977 9.39413 10.0107L8.39313 8.24274C8.22664 7.94874 8.05898 7.6554 7.89013 7.36274C7.81296 7.26232 7.70055 7.19492 7.57561 7.17416C7.45067 7.15341 7.32251 7.18084 7.21701 7.25091C7.11151 7.32099 7.03654 7.4285 7.00724 7.55171C6.97793 7.67493 6.99648 7.80467 7.05913 7.91474L9.30913 11.8117C9.43965 12.0413 9.47407 12.3132 9.40488 12.568C9.33569 12.8228 9.16851 13.04 8.93982 13.172C8.71114 13.3041 8.43951 13.3403 8.18421 13.2728C7.92892 13.2053 7.71068 13.0395 7.57713 12.8117L6.76913 11.4317L5.13913 8.68974C4.86713 8.23174 4.59646 7.76941 4.32713 7.30274C4.26082 7.18791 4.15162 7.10411 4.02353 7.06979C3.89544 7.03547 3.75897 7.05344 3.64413 7.11974ZM14.3231 5.02674C14.0522 5.11881 13.8097 5.27933 13.6191 5.49274C13.4575 5.68236 13.359 5.91758 13.3371 6.16574C13.9161 6.27274 14.3371 6.73374 14.4851 7.21474C14.6901 7.88274 15.0631 8.69374 15.5351 9.56274C15.7781 10.0127 15.9791 10.4827 16.1371 10.9627C16.2509 9.69026 15.9854 8.41257 15.3741 7.29074C14.9621 6.53174 14.5881 5.75474 14.3231 5.02674ZM8.84013 4.00674C8.72539 4.07288 8.64158 4.18183 8.60709 4.30969C8.57259 4.43755 8.59023 4.57387 8.65613 4.68874L10.3481 7.61074C10.5104 7.38833 10.6999 7.1871 10.9121 7.01174L11.0751 6.88474L9.52313 4.18974C9.45682 4.07491 9.34762 3.99111 9.21953 3.95679C9.09144 3.92247 8.95497 3.94044 8.84013 4.00674ZM5.24213 3.77474C5.12729 3.84105 5.0435 3.95026 5.00918 4.07834C4.97486 4.20643 4.99283 4.3429 5.05913 4.45774L5.83113 5.79574C6.08271 5.57186 6.37693 5.40111 6.69613 5.29374L5.92513 3.95974C5.85882 3.84491 5.74962 3.76111 5.62153 3.72679C5.49344 3.69247 5.35697 3.71044 5.24213 3.77674V3.77474ZM19.3651 2.99674C19.4882 3.20877 19.5292 3.45864 19.4801 3.69887C19.4311 3.93909 19.2955 4.15293 19.0991 4.29974L19.0021 4.36374L18.1621 4.85074C17.9413 4.98138 17.6788 5.02216 17.4288 4.96466C17.1788 4.90716 16.9604 4.75576 16.8189 4.5418C16.6773 4.32783 16.6234 4.06765 16.6684 3.81506C16.7133 3.56248 16.8535 3.33682 17.0601 3.18474L17.1581 3.12074L17.9981 2.63374C18.1117 2.5678 18.2372 2.52489 18.3674 2.50744C18.4975 2.49 18.6299 2.49837 18.7568 2.53208C18.8838 2.56579 19.0028 2.62418 19.1072 2.7039C19.2116 2.78363 19.2992 2.88314 19.3651 2.99674ZM16.6331 0.0867425C16.8698 0.150093 17.075 0.298119 17.2097 0.50273C17.3445 0.707341 17.3994 0.9543 17.3641 1.19674L17.3401 1.31174L17.2111 1.79474C17.1443 2.04023 16.9865 2.25103 16.7697 2.3842C16.5529 2.51738 16.2935 2.56292 16.0443 2.51155C15.7952 2.46019 15.5749 2.31578 15.4285 2.10773C15.282 1.89968 15.2204 1.64364 15.2561 1.39174L15.2791 1.27774L15.4091 0.794742C15.4778 0.538749 15.6453 0.320489 15.8748 0.187921C16.1043 0.0553526 16.3771 0.0193209 16.6331 0.0877425V0.0867425ZM12.9861 0.0867425C13.2229 0.0233654 13.4747 0.0491549 13.6937 0.159213C13.9127 0.269271 14.0837 0.455931 14.1741 0.683742L14.2111 0.793742L14.3411 1.27774C14.4089 1.52483 14.3793 1.78851 14.2584 2.0144C14.1375 2.24029 13.9344 2.41114 13.6912 2.4917C13.448 2.57226 13.1831 2.55639 12.9513 2.44736C12.7194 2.33833 12.5382 2.14445 12.4451 1.90574L12.4091 1.79574L12.2791 1.31174C12.2107 1.05568 12.2467 0.78293 12.3793 0.55342C12.5119 0.32391 12.7301 0.156417 12.9861 0.0877425V0.0867425Z" fill="#1E1B4B"/>
</svg>
