<svg width="16" height="16" viewBox="0 0 16 16" fill="none" xmlns="http://www.w3.org/2000/svg">
<path d="M8.00016 14.667C9.84123 14.667 11.5081 13.9207 12.7143 12.7145C13.9212 11.5083 14.6668 9.84139 14.6668 8.00033C14.6668 6.15926 13.9212 4.49239 12.7143 3.28618C11.5081 2.07997 9.84123 1.33366 8.00016 1.33366C6.1591 1.33366 4.49299 2.07997 3.28602 3.28618C2.07981 4.49239 1.3335 6.15926 1.3335 8.00033C1.3335 9.84139 2.07981 11.5082 3.28605 12.7145C4.49299 13.9207 6.1591 14.667 8.00016 14.667Z" fill="#FFB703"/>
<path d="M7.99996 13.4551C9.50609 13.4551 10.8701 12.8445 11.8574 11.8572C12.8439 10.8707 13.4545 9.50666 13.4545 8.00053C13.4545 6.4944 12.8439 5.13037 11.8574 4.14385C10.8701 3.15655 9.50609 2.54599 7.99996 2.54599C6.49382 2.54599 5.13057 3.15658 4.14327 4.14385C3.15597 5.13037 2.54541 6.4944 2.54541 8.00053C2.54541 9.50666 3.15597 10.8707 4.14327 11.8572C5.13057 12.8445 6.49382 13.4551 7.99996 13.4551Z" fill="#FCD227"/>
<path fill-rule="evenodd" clip-rule="evenodd" d="M8 13.3552C9.47861 13.3552 10.8177 12.7558 11.7869 11.7865L12.7141 12.7144C11.5079 13.9207 9.84106 14.667 8 14.667V13.3552Z" fill="#FFB703"/>
<path fill-rule="evenodd" clip-rule="evenodd" d="M11.7871 11.7869C12.7556 10.8184 13.355 9.47931 13.355 8.0007H14.6668C14.6668 9.84176 13.9212 11.5086 12.7143 12.7148L11.7871 11.7869Z" fill="#FF9831"/>
<path fill-rule="evenodd" clip-rule="evenodd" d="M13.355 7.99997C13.355 6.52136 12.7556 5.18226 11.7871 4.21376L12.7143 3.28586C13.9212 4.49207 14.6668 6.15891 14.6668 8L13.355 8V7.99997Z" fill="#FFB703"/>
<path fill-rule="evenodd" clip-rule="evenodd" d="M11.7869 4.21387C10.8177 3.24461 9.47861 2.6452 8 2.6452L8 1.33344C9.84106 1.33344 11.5079 2.07975 12.7141 3.28597L11.7869 4.21387Z" fill="#FF9831"/>
<path fill-rule="evenodd" clip-rule="evenodd" d="M7.99976 2.6452C6.52115 2.6452 5.1828 3.24464 4.21355 4.21387L3.28564 3.28594C4.49259 2.07973 6.1587 1.33342 7.99979 1.33342L7.99979 2.6452H7.99976Z" fill="#FFB703"/>
<path fill-rule="evenodd" clip-rule="evenodd" d="M4.21395 4.21378C3.24469 5.18228 2.64528 6.52139 2.64528 8H1.3335C1.3335 6.15894 2.07981 4.49207 3.28604 3.28586L4.21395 4.21378Z" fill="#FF9831"/>
<path fill-rule="evenodd" clip-rule="evenodd" d="M2.64528 8.0007C2.64528 9.47931 3.24469 10.8184 4.21395 11.7869L3.28604 12.7148C2.07981 11.5086 1.3335 9.84176 1.3335 8.0007H2.64528Z" fill="#FFB703"/>
<path fill-rule="evenodd" clip-rule="evenodd" d="M4.21357 11.7865C5.18283 12.7558 6.52118 13.3552 7.99979 13.3552V14.667C6.15873 14.667 4.49261 13.9207 3.28564 12.7145L4.21357 11.7865Z" fill="#FF9831"/>
<path d="M8.68256 11.1644L9.14785 9.78803C9.16624 9.73463 9.19983 9.69038 9.2438 9.65986C9.28856 9.62933 9.34293 9.61178 9.40289 9.61178L10.9179 9.61485C11.1001 9.61485 11.2552 9.55609 11.3751 9.46148C11.4815 9.37681 11.5582 9.26465 11.6006 9.14255C11.6422 9.01895 11.6486 8.88542 11.615 8.75803C11.5766 8.61381 11.4871 8.47802 11.3391 8.37655L10.112 7.52887C10.0632 7.49531 10.0296 7.4503 10.0129 7.40145C9.99608 7.35262 9.99608 7.29769 10.0145 7.24275L10.4853 5.86863C10.5421 5.70457 10.5309 5.54512 10.4726 5.40701C10.4214 5.28341 10.3335 5.17812 10.2247 5.10334C10.116 5.02782 9.98412 4.97974 9.84581 4.97135C9.69073 4.9622 9.52924 5.00109 9.38213 5.10334L8.15819 5.95559C8.11022 5.98916 8.05505 6.00517 7.99989 6.00517C7.94473 6.00517 7.88956 5.98916 7.84241 5.95559L6.61847 5.10334C6.47136 5.00112 6.30908 4.9622 6.15479 4.97135C6.01569 4.97974 5.88458 5.02782 5.77585 5.10334C5.66632 5.17812 5.5792 5.28341 5.52722 5.40701C5.46966 5.54512 5.45846 5.70457 5.51444 5.86863L5.98532 7.24275C6.00449 7.29769 6.0037 7.35262 5.98692 7.40145C5.97093 7.45028 5.93655 7.49531 5.88858 7.52887L4.66064 8.37655C4.51274 8.47802 4.42401 8.61381 4.38563 8.75803C4.35125 8.88542 4.35844 9.01895 4.40001 9.14255C4.44159 9.26465 4.51914 9.37681 4.62547 9.46148C4.74457 9.55609 4.89968 9.61485 5.08275 9.61485L6.59771 9.61178C6.65688 9.61178 6.71201 9.62933 6.75601 9.65986C6.79998 9.69038 6.83436 9.73463 6.85275 9.78803L7.31803 11.1644C7.37399 11.3293 7.48113 11.4513 7.61224 11.5307C7.72976 11.6016 7.86567 11.6367 7.99997 11.6367C8.13428 11.6367 8.27018 11.6016 8.3877 11.5307C8.51947 11.4513 8.62661 11.3293 8.68256 11.1644Z" fill="#FB8500"/>
</svg>
