<svg width="16" height="16" viewBox="0 0 16 16" fill="none" xmlns="http://www.w3.org/2000/svg">
<path d="M15.4003 3.33986L12.6603 0.599858C12.3027 0.263954 11.8341 0.0712167 11.3436 0.0583099C10.8532 0.0454032 10.3751 0.213227 10.0003 0.529858L1.0003 9.52986C0.677062 9.85582 0.475801 10.2831 0.430297 10.7399L0.000296701 14.9099C-0.0131743 15.0563 0.00583103 15.204 0.0559579 15.3422C0.106085 15.4805 0.186099 15.606 0.290297 15.7099C0.383737 15.8025 0.494553 15.8759 0.61639 15.9256C0.738228 15.9754 0.86869 16.0006 1.0003 15.9999H1.0903L5.2603 15.6199C5.71709 15.5744 6.14433 15.3731 6.4703 15.0499L15.4703 6.04986C15.8196 5.68083 16.0084 5.18837 15.9953 4.68039C15.9822 4.17242 15.7682 3.69037 15.4003 3.33986ZM5.0803 13.6199L2.0803 13.8999L2.3503 10.8999L8.0003 5.31986L10.7003 8.01986L5.0803 13.6199ZM12.0003 6.67986L9.3203 3.99986L11.2703 1.99986L14.0003 4.72986L12.0003 6.67986Z" fill="#1E1B4B"/>
</svg>
