<svg width="24" height="24" viewBox="0 0 24 24" fill="none" xmlns="http://www.w3.org/2000/svg">
<path d="M12 24C18.6274 24 24 18.6274 24 12C24 5.37258 18.6274 0 12 0C5.37258 0 0 5.37258 0 12C0 18.6274 5.37258 24 12 24Z" fill="url(#paint0_linear_525_54608)"/>
<path opacity="0.2" d="M16.2002 23.1002L7.2002 15.9002L12.0002 15.0002L17.7002 9.3002L17.4002 7.2002L24.0002 12.6002C24.0002 12.9002 23.7002 16.2002 21.6002 19.2002C18.9002 22.5002 17.1002 22.8002 16.2002 23.1002Z" fill="url(#paint1_linear_525_54608)"/>
<path d="M16.2002 6.6001C17.1941 6.6002 17.9998 7.40601 18 8.3999V14.3999C18 15.394 17.1942 16.2006 16.2002 16.2007H7.7998C6.80578 16.2006 6 15.3939 6 14.3999V8.3999C6.00018 7.40601 6.8059 6.6002 7.7998 6.6001H16.2002ZM7.67383 8.03271C7.47072 7.77089 7.09385 7.72316 6.83203 7.92627C6.57042 8.12937 6.52266 8.50631 6.72559 8.76807L10.001 12.3892C10.9439 13.6046 12.7706 13.6319 13.749 12.4448L17.2627 8.78174C17.4735 8.52603 17.4373 8.14778 17.1816 7.93701C16.9259 7.72636 16.5476 7.76338 16.3369 8.01904L12.8232 11.6821C12.334 12.2755 11.4206 12.2615 10.9492 11.6538L7.67383 8.03271Z" fill="#F1F7FC"/>
<path d="M0.00720005 11.7002C0.00480005 11.8004 0 11.8994 0 12.0002C0 18.6482 5.352 24.0002 12 24.0002C18.648 24.0002 24 18.6482 24 12.0002C24 11.8994 23.9952 11.8004 23.9928 11.7002C23.8344 18.2084 18.5448 23.4002 12 23.4002C5.4528 23.4002 0.1656 18.2084 0.00720005 11.7002Z" fill="#352A66"/>
<defs>
<linearGradient id="paint0_linear_525_54608" x1="-14.4" y1="24" x2="-14.4" y2="0" gradientUnits="userSpaceOnUse">
<stop stop-color="#524191"/>
<stop offset="1" stop-color="#9481DD"/>
</linearGradient>
<linearGradient id="paint1_linear_525_54608" x1="10.796" y1="14.0294" x2="19.1312" y2="27.6973" gradientUnits="userSpaceOnUse">
<stop stop-color="#292C2F"/>
<stop offset="1" stop-color="#292C2F" stop-opacity="0"/>
</linearGradient>
</defs>
</svg>
