<svg width="24" height="21" viewBox="0 0 24 21" fill="none" xmlns="http://www.w3.org/2000/svg">
<g filter="url(#filter0_d_504_38031)">
<path fill-rule="evenodd" clip-rule="evenodd" d="M9 7.00013V16.0001H5.2C3.98497 16.0001 3 15.0152 3 13.8001V9.20013C3 7.9851 3.98498 7.00013 5.2 7.00013H9ZM5.2 9.00013C5.08954 9.00013 5 9.08967 5 9.20013V13.8001C5 13.9106 5.08954 14.0001 5.2 14.0001H7V9.00013H5.2Z" fill="#1E1B4B"/>
<path fill-rule="evenodd" clip-rule="evenodd" d="M12.0422 0.712779C12.189 0.223434 12.681 -0.076567 13.1833 0.0170644C14.1001 0.187995 15.8974 0.731962 16.4622 2.72785C16.7059 3.58884 16.7083 4.23817 16.5924 4.94257C16.5472 5.21746 16.4832 5.50439 16.417 5.79646C17.414 5.7037 18.5233 5.72249 19.4518 6.00631C20.187 6.23106 20.9604 6.67086 21.363 7.50959C21.7667 8.35069 21.6747 9.33652 21.2528 10.3762C20.5203 12.181 20.0545 13.2458 19.7668 13.8453C19.6286 14.1333 19.5118 14.3561 19.4129 14.5049C19.3864 14.5448 19.3489 14.5983 19.3016 14.6533L19.3004 14.6547C19.2718 14.6881 19.1641 14.8134 18.9868 14.9074C18.163 15.5861 16.7907 16.0001 14 16.0001H8C7.44772 16.0001 7 15.5524 7 15.0001C7 14.4478 7.44772 14.0001 8 14.0001H14C16.9446 14.0001 17.5895 13.4965 17.7929 13.293C17.8021 13.2838 17.8115 13.2747 17.8211 13.2659C17.8581 13.1956 17.9052 13.1019 17.9637 12.98C18.2238 12.4378 18.6711 11.4192 19.3996 9.6241C19.7081 8.86373 19.6257 8.51206 19.5599 8.37504C19.493 8.23564 19.3178 8.0567 18.8671 7.91894C17.9292 7.63224 16.4733 7.73851 15.3547 7.97797C15.0292 8.04765 14.6904 7.9508 14.4509 7.71963C14.2114 7.48846 14.1026 7.15328 14.1607 6.82552C14.2536 6.30158 14.3494 5.87132 14.4313 5.50935C14.4373 5.48291 14.4432 5.45699 14.4489 5.43155C14.5242 5.09967 14.5807 4.85013 14.6189 4.61786C14.6917 4.17565 14.6941 3.82498 14.5378 3.27241C14.3954 2.76928 14.0696 2.45411 13.6683 2.2527L12.4578 6.28747C12.3941 6.49983 12.2616 6.685 12.0812 6.81386L8.58124 9.31386C8.13183 9.63487 7.50728 9.53078 7.18627 9.08136C6.86526 8.63195 6.96935 8.0074 7.41876 7.68639L10.6405 5.38519L12.0422 0.712779Z" fill="#1E1B4B"/>
</g>
<defs>
<filter id="filter0_d_504_38031" x="-1" y="0" width="26.623" height="24" filterUnits="userSpaceOnUse" color-interpolation-filters="sRGB">
<feFlood flood-opacity="0" result="BackgroundImageFix"/>
<feColorMatrix in="SourceAlpha" type="matrix" values="0 0 0 0 0 0 0 0 0 0 0 0 0 0 0 0 0 0 127 0" result="hardAlpha"/>
<feOffset dy="4"/>
<feGaussianBlur stdDeviation="2"/>
<feComposite in2="hardAlpha" operator="out"/>
<feColorMatrix type="matrix" values="0 0 0 0 0 0 0 0 0 0 0 0 0 0 0 0 0 0 0.25 0"/>
<feBlend mode="normal" in2="BackgroundImageFix" result="effect1_dropShadow_504_38031"/>
<feBlend mode="normal" in="SourceGraphic" in2="effect1_dropShadow_504_38031" result="shape"/>
</filter>
</defs>
</svg>
