<svg width="24" height="24" viewBox="0 0 24 24" fill="none" xmlns="http://www.w3.org/2000/svg">
<path d="M1.96289 11.9998C1.96289 13.9734 2.53157 15.8133 3.50167 17.352H20.4617C21.4319 15.8133 22.0005 13.9734 22.0005 11.9998C22.0005 10.0261 21.4319 8.18624 20.4617 6.64746H3.50167C2.53157 8.18624 1.96289 10.0261 1.96289 11.9998Z" fill="#FFCE31"/>
<path d="M20.4955 6.64761C18.7225 3.83766 15.5781 1.96436 11.9987 1.96436C8.41937 1.96436 5.2749 3.83766 3.50195 6.64761H20.4955ZM3.50195 17.3522C5.2749 20.1621 8.41937 22.0354 11.9987 22.0354C15.5781 22.0354 18.7225 20.1621 20.4955 17.3522H3.50195Z" fill="#ED4C5C"/>
<path d="M4.37109 10.8965H5.44155V11.4986H4.37109V10.8965ZM4.37109 15.3121H5.475V15.8808H4.37109V15.3121Z" fill="#C8B100"/>
<path d="M4.27077 14.3755C4.17042 14.4424 4.10352 14.5093 4.10352 14.5427C4.10352 14.5762 4.13697 14.6097 4.20387 14.6431C4.27077 14.6766 4.33768 14.7435 4.30423 14.8104C4.37113 14.7435 4.40458 14.6766 4.40458 14.6097C4.40458 14.5093 4.33768 14.4089 4.27077 14.3755Z" fill="#ED4C5C"/>
<path d="M4.53906 11.4985H5.30845V15.312H4.53906V11.4985Z" fill="white"/>
<path d="M6.10966 12.9032C5.9424 12.8363 5.64134 12.7693 5.30682 12.7693C5.20646 12.7693 5.07266 12.7693 4.93885 12.8028C4.47052 12.8697 4.10255 13.0704 4.13601 13.2042L3.96875 12.8362C3.93529 12.669 4.33672 12.4683 4.83849 12.3679C5.00575 12.3345 5.17301 12.3345 5.30682 12.3345C5.64134 12.3345 5.9424 12.3679 6.10966 12.4348V12.9032Z" fill="#ED4C5C"/>
<path d="M4.53789 13.4048C4.33718 13.4048 4.16992 13.3379 4.16992 13.2376C4.16992 13.1707 4.23683 13.0703 4.37063 13.0034H4.57134L4.53789 13.4048ZM5.30728 13.1038C5.44109 13.1372 5.54145 13.1707 5.60835 13.2041C5.6418 13.2376 5.50799 13.3714 5.30728 13.4717V13.1038Z" fill="#ED4C5C"/>
<path d="M4.03639 14.1412C4.00294 14.0743 4.2371 13.9405 4.53817 13.8402C4.67197 13.8067 4.77233 13.7398 4.93959 13.6729C5.34101 13.5057 5.67553 13.2715 5.60863 13.2046L5.67553 13.606C5.70898 13.6729 5.44137 13.8736 5.03994 14.0743C4.90614 14.1412 4.67197 14.2416 4.53817 14.275C4.304 14.342 4.10329 14.4758 4.10329 14.5092L4.03639 14.1412Z" fill="#ED4C5C"/>
<path d="M11.5627 10.8965H12.6332V11.4986H11.5627V10.8965ZM11.5293 15.3121H12.6332V15.8808H11.5293V15.3121Z" fill="#C8B100"/>
<path d="M12.7334 14.3755C12.8338 14.4424 12.9007 14.5093 12.9007 14.5427C12.9007 14.5762 12.8672 14.6097 12.8003 14.6431C12.7334 14.71 12.6665 14.8104 12.7 14.8438C12.6331 14.7769 12.5996 14.71 12.5996 14.6431C12.5996 14.5093 12.6665 14.4089 12.7334 14.3755Z" fill="#ED4C5C"/>
<path d="M11.6973 11.4985H12.4667V15.312H11.6973V11.4985Z" fill="white"/>
<path d="M10.8945 12.9032C11.0618 12.8363 11.3629 12.7693 11.6974 12.7693C11.7977 12.7693 11.9315 12.7693 12.0653 12.8028C12.5337 12.8697 12.9016 13.0704 12.8682 13.2042L13.0354 12.8028C13.0689 12.6355 12.6675 12.4348 12.1657 12.3345H11.6974C11.3629 12.3345 11.0618 12.3679 10.8945 12.4348V12.9032Z" fill="#ED4C5C"/>
<path d="M12.4682 13.4048C12.6689 13.4048 12.8361 13.3379 12.8361 13.2376C12.8361 13.1707 12.7692 13.0703 12.6354 13.0034H12.4347L12.4682 13.4048ZM11.6988 13.1038C11.565 13.1372 11.4646 13.1707 11.3977 13.2041C11.3642 13.2376 11.4981 13.3714 11.6988 13.4717V13.1038Z" fill="#ED4C5C"/>
<path d="M12.9692 14.1406C13.0027 14.0737 12.7685 13.9399 12.4674 13.8396C12.3336 13.8061 12.2333 13.7392 12.066 13.6723C11.6646 13.505 11.3301 13.2709 11.397 13.204L11.3301 13.6054C11.2966 13.6723 11.5642 13.873 11.9656 14.0737C12.0995 14.1406 12.3336 14.241 12.4674 14.2744C12.7016 14.3413 12.9023 14.5086 12.8688 14.542L12.9692 14.1406ZM8.48666 8.75488C9.12224 8.75488 10.4269 8.88869 10.8952 9.35702C10.3934 10.5613 9.59057 10.0595 8.48666 10.0595C7.4162 10.0595 6.5799 10.5613 6.07812 9.35702C6.54645 8.88869 7.81762 8.75488 8.48666 8.75488Z" fill="#ED4C5C"/>
<path d="M10.1243 10.093C9.72286 9.85887 9.12073 9.82542 8.48515 9.82542C7.84956 9.82542 7.24743 9.89233 6.84601 10.093L6.97982 10.6617C7.34779 10.7621 7.88301 10.829 8.48515 10.829C9.08728 10.829 9.58906 10.7621 9.99048 10.6617L10.1243 10.093ZM10.693 8.65461C10.5592 8.55425 10.2915 8.4539 10.0574 8.4539C9.95703 8.4539 9.85667 8.4539 9.75632 8.48735C9.75632 8.48735 9.55561 8.21974 9.08728 8.21974C8.92002 8.21974 8.78621 8.25319 8.65241 8.32009V8.28664C8.61895 8.21974 8.55205 8.15283 8.48515 8.15283C8.41824 8.15283 8.31789 8.25319 8.31789 8.32009V8.35354C8.18408 8.28664 8.05027 8.25319 7.88301 8.25319C7.41469 8.25319 7.21398 8.55425 7.21398 8.5208C7.11362 8.48735 7.01327 8.48735 6.91291 8.48735C5.37413 8.48735 6.14352 9.52436 6.14352 9.52436L6.31078 9.32365C5.94281 8.85532 6.27733 8.58771 6.94636 8.58771C7.04672 8.58771 7.11362 8.58771 7.18053 8.62116C6.94636 8.95568 7.38124 9.25674 7.38124 9.25674L7.48159 9.08948C7.24743 8.92222 7.21398 8.35354 7.88301 8.35354C8.05027 8.35354 8.18408 8.38699 8.31789 8.48735C8.31789 8.5208 8.28444 8.98913 8.25098 9.05603L8.5186 9.29019L8.78621 9.05603C8.75276 8.95568 8.71931 8.5208 8.71931 8.48735C8.81967 8.42045 8.98692 8.35354 9.15418 8.35354C9.85667 8.35354 9.85667 8.92222 9.55561 9.08948L9.65596 9.25674C9.65596 9.25674 10.0239 8.95568 9.85667 8.62116C9.92358 8.62116 10.0239 8.58771 10.0908 8.58771C10.8937 8.58771 10.9271 9.18984 10.7264 9.32365L10.8602 9.52436C10.7933 9.52436 11.1613 9.05603 10.693 8.65461Z" fill="#C8B100"/>
<path d="M8.28516 8.01956C8.28516 7.9192 8.38551 7.81885 8.48587 7.81885C8.61967 7.81885 8.68658 7.9192 8.68658 8.01956C8.68658 8.11991 8.58622 8.22027 8.48587 8.22027C8.38551 8.22027 8.28516 8.11991 8.28516 8.01956Z" fill="#005BBF"/>
<path d="M8.41896 7.45068V7.55104H8.31861V7.65139H8.41896V7.98591H8.28516V8.08627H8.68658L8.72003 8.01936L8.68658 7.98591H8.55277V7.65139H8.65313V7.55104H8.55277V7.45068H8.41896Z" fill="#C8B100"/>
<path d="M8.48481 10.7618C7.94958 10.7618 7.48125 10.6949 7.11328 10.5945C7.48125 10.4941 7.94958 10.4272 8.48481 10.4272C9.02004 10.4272 9.48836 10.4941 9.85633 10.5945C9.52181 10.6949 9.02004 10.7618 8.48481 10.7618Z" fill="#ED4C5C"/>
<path d="M8.51791 16.5491C7.88232 16.5491 7.28019 16.3819 6.74496 16.1477C6.34354 15.947 6.10938 15.579 6.10938 15.1441V13.5384H10.9264V15.1441C10.9264 15.579 10.6588 15.9804 10.2909 16.1477C9.75562 16.4153 9.15349 16.5491 8.51791 16.5491ZM8.48445 10.8623H10.893V13.5384H8.48445V10.8623Z" fill="white"/>
<path d="M8.51791 15.1443C8.51791 15.7798 7.98268 16.2816 7.31364 16.2816C6.6446 16.2816 6.10938 15.7798 6.10938 15.1443V13.5386H8.51791V15.1443Z" fill="#ED4C5C"/>
<path d="M6.61335 16.0809C6.68026 16.1144 6.78061 16.1813 6.91442 16.2147V13.4717H6.64681L6.61335 16.0809ZM6.07812 15.1108C6.07812 15.4453 6.21193 15.713 6.34574 15.8468V13.4717H6.07812V15.1108Z" fill="#C8B100"/>
<path d="M7.14648 16.2816H7.4141V13.4717H7.14648V16.2816Z" fill="#C7B500"/>
<path d="M7.68359 16.2147C7.78395 16.1813 7.91776 16.1144 7.98466 16.0809V13.4717H7.71705L7.68359 16.2147Z" fill="#C8B100"/>
<path d="M6.07812 10.8623H8.48666V13.5384H6.07812V10.8623Z" fill="#ED4C5C"/>
<path d="M8.25195 15.847C8.38576 15.7466 8.48612 15.5125 8.51957 15.2449V13.5054H8.25195V15.847Z" fill="#C8B100"/>
<path d="M10.9286 13.5386V15.1443C10.9286 15.7799 10.3933 16.2817 9.72429 16.2817C9.05526 16.2817 8.52003 15.7799 8.52003 15.1443V13.5386H10.9286ZM10.0588 11.3308C10.1592 11.5315 10.1592 12.0333 9.8581 11.9329C9.92501 11.9664 9.95846 12.2005 10.0588 12.3343C10.2261 12.5351 10.4268 12.3678 10.3933 12.1336C10.3264 11.7657 10.3599 11.5315 10.4268 11.1635C10.4268 11.197 10.594 11.197 10.6609 11.1301C10.6275 11.2304 10.594 11.3642 10.6609 11.3642C10.594 11.4646 10.4268 11.6319 10.3933 11.7322C10.3599 11.9664 10.7278 12.4012 10.3264 12.5016C10.0588 12.5685 10.2261 12.7692 10.3264 12.8696C10.3264 12.8696 10.1926 13.3044 10.2595 13.271C9.99191 13.3713 10.0588 13.1372 10.0588 13.1372C10.1926 12.7358 9.82465 12.7023 9.8581 12.6354C9.52358 12.602 9.89155 12.9365 9.59049 12.9365C9.52358 12.9365 9.38978 13.0034 9.38978 13.0034C9.02181 12.9699 9.22252 12.6354 9.35632 12.6689C9.45668 12.7023 9.55704 12.8696 9.55704 12.6354C9.55704 12.6354 9.38978 12.3678 9.82465 12.3678C9.65739 12.3678 9.55704 12.234 9.49013 12.0667C9.42323 12.1002 9.32287 12.2674 8.9549 12.3009C8.9549 12.3009 8.85455 11.9329 8.9549 11.9998C9.08871 12.0667 9.15561 12.0667 9.28942 11.9329C9.22252 11.8326 8.8211 11.6988 8.888 11.4646C8.888 11.3977 9.08871 11.2973 9.08871 11.2973C9.05526 11.4646 9.15561 11.6319 9.35632 11.6319C9.62394 11.6653 9.52358 11.565 9.55704 11.498C9.59049 11.4311 9.7912 11.5315 9.72429 11.3642C9.72429 11.3308 9.49013 11.2973 9.55704 11.197C9.69084 11.0297 9.89155 11.1635 10.0588 11.3308ZM8.52003 16.2148L8.45312 16.0475L8.52003 15.8468L8.58693 16.0475L8.52003 16.2148Z" fill="#ED4C5C"/>
<path d="M6.81204 11.4312V11.5984H6.87894V11.7323H6.71168V12.0668H6.81204V12.8027H6.61133V13.1707H7.98285V12.8027H7.81559V12.0668H7.8825V11.7323H7.71524V11.5984H7.81559V11.4312H7.48108V11.5984H7.54798V11.7323H7.38072V11.3308H7.48108V11.1636H7.11311V11.3308H7.21346V11.7323H7.0462V11.5984H7.11311V11.4312H6.81204ZM10.5921 15.5458V13.8732H8.8526V15.5458L9.65544 15.9137H9.7558L10.5921 15.5458ZM9.65544 14.007V14.5757L9.08676 14.007H9.65544ZM8.95296 14.0404L9.62199 14.7095L8.95296 15.3785V14.0404ZM9.01986 15.5123L9.65544 14.8767V15.8134L9.01986 15.5123ZM9.7558 15.7799V14.8433L10.3914 15.4789L9.7558 15.7799ZM10.4583 15.3785L9.78925 14.7095L10.4583 14.0404V15.3785ZM9.7558 14.007H10.3245L9.7558 14.5757V14.007Z" fill="#C8B100"/>
<path d="M7.7168 13.505C7.7168 13.0032 8.05131 12.6353 8.48619 12.6353C8.92106 12.6353 9.25558 13.0367 9.25558 13.505C9.25558 13.9733 8.92106 14.3747 8.48619 14.3747C8.05131 14.3747 7.7168 14.0068 7.7168 13.505Z" fill="#ED4C5C"/>
<path d="M7.94922 13.5052C7.94922 13.1372 8.18338 12.8696 8.48445 12.8696C8.78551 12.8696 9.01968 13.1707 9.01968 13.5052C9.01968 13.8732 8.78551 14.1408 8.48445 14.1408C8.21683 14.1743 7.94922 13.8732 7.94922 13.5052Z" fill="#005BBF"/>
<path d="M8.25099 13.0703L8.11719 13.4383L8.21754 13.4717L8.15064 13.6055H8.35135L8.28445 13.4717L8.3848 13.4383L8.25099 13.0703ZM8.75277 13.0703L8.61896 13.4383L8.71932 13.4717L8.65242 13.6055H8.85313L8.81968 13.4717L8.92003 13.4383L8.75277 13.0703ZM8.51861 13.5052L8.35135 13.8732L8.45171 13.9066L8.41825 14.0404H8.58551L8.55206 13.9066L8.65242 13.8732L8.51861 13.5052Z" fill="#C8B100"/>
</svg>
