<svg width="24" height="24" viewBox="0 0 24 24" fill="none" xmlns="http://www.w3.org/2000/svg">
<path d="M17.3333 3.53333C15.7667 2.56667 13.9667 2 12 2V3.53333H17.3333Z" fill="#ED4C5C"/>
<path d="M12 5.06654H19.2C18.6333 4.49987 18 3.96654 17.3333 3.5332H12V5.06654Z" fill="white"/>
<path d="M12 6.60023H20.4333C20.0667 6.03356 19.6667 5.53356 19.2333 5.06689H12V6.60023Z" fill="#ED4C5C"/>
<path d="M12 8.13294H21.2333C21 7.59961 20.7333 7.06628 20.4333 6.59961H12V8.13294Z" fill="white"/>
<path d="M12 9.66663H21.7333C21.6 9.1333 21.4333 8.6333 21.2333 8.1333H12V9.66663Z" fill="#ED4C5C"/>
<path d="M12 11.2335H21.9667C21.9333 10.7002 21.8333 10.2002 21.7333 9.7002H12V11.2335Z" fill="white"/>
<path d="M21.9667 11.2334H12V12.0001H2C2 12.2667 2 12.5001 2.03333 12.7667H21.9667C22 12.5001 22 12.2667 22 12.0001C22 11.7334 22 11.4667 21.9667 11.2334Z" fill="#ED4C5C"/>
<path d="M2.26654 14.2999H21.7332C21.8665 13.7999 21.9332 13.2999 21.9665 12.7666H2.0332C2.06654 13.2666 2.16654 13.7999 2.26654 14.2999Z" fill="white"/>
<path d="M2.76758 15.8331H21.2342C21.4342 15.3331 21.6009 14.8331 21.7342 14.2998H2.26758C2.40091 14.8331 2.56758 15.3331 2.76758 15.8331Z" fill="#ED4C5C"/>
<path d="M3.56562 17.3668H20.4323C20.7323 16.8668 20.999 16.3668 21.2323 15.8335H2.76562C2.99896 16.3668 3.26562 16.8668 3.56562 17.3668Z" fill="white"/>
<path d="M4.76641 18.9H19.2331C19.6664 18.4334 20.0997 17.9 20.4331 17.3667H3.56641C3.89974 17.9334 4.33307 18.4334 4.76641 18.9Z" fill="#ED4C5C"/>
<path d="M6.63424 20.4337H17.3676C18.0676 20.0004 18.6676 19.4671 19.2342 18.9004H4.76758C5.33424 19.5004 5.96758 20.0004 6.63424 20.4337Z" fill="white"/>
<path d="M11.9995 21.9998C13.9661 21.9998 15.7995 21.4331 17.3661 20.4331H6.63281C8.19948 21.4331 10.0328 21.9998 11.9995 21.9998Z" fill="#ED4C5C"/>
<path d="M6.66667 3.53333C5.96667 3.96667 5.33333 4.5 4.76667 5.06667C4.3 5.53333 3.9 6.06667 3.56667 6.6C3.26667 7.1 2.96667 7.6 2.76667 8.13333C2.56667 8.63333 2.4 9.13333 2.26667 9.66667C2.13333 10.1667 2.06667 10.6667 2.03333 11.2C2 11.4667 2 11.7333 2 12H12V2C10.0333 2 8.23333 2.56667 6.66667 3.53333Z" fill="#428BC1"/>
<path d="M9.6668 2.3335L9.83346 2.8335H10.3335L9.93346 3.16683L10.0668 3.66683L9.6668 3.36683L9.2668 3.66683L9.40013 3.16683L9.00013 2.8335H9.50013L9.6668 2.3335ZM11.0001 4.3335L11.1668 4.8335H11.6668L11.2668 5.16683L11.4001 5.66683L11.0001 5.36683L10.6001 5.66683L10.7335 5.16683L10.3335 4.8335H10.8335L11.0001 4.3335ZM8.33346 4.3335L8.50013 4.8335H9.00013L8.60013 5.16683L8.73346 5.66683L8.33346 5.36683L7.93346 5.66683L8.0668 5.16683L7.6668 4.8335H8.1668L8.33346 4.3335ZM9.6668 6.3335L9.83346 6.8335H10.3335L9.93346 7.16683L10.0668 7.66683L9.6668 7.36683L9.2668 7.66683L9.40013 7.16683L9.00013 6.8335H9.50013L9.6668 6.3335ZM7.00013 6.3335L7.1668 6.8335H7.6668L7.2668 7.16683L7.40013 7.66683L7.00013 7.36683L6.60013 7.66683L6.73346 7.16683L6.33346 6.8335H6.83346L7.00013 6.3335ZM4.33346 6.3335L4.50013 6.8335H5.00013L4.60013 7.16683L4.73346 7.66683L4.33346 7.36683L3.93346 7.66683L4.0668 7.16683L3.6668 6.8335H4.1668L4.33346 6.3335ZM11.0001 8.3335L11.1668 8.8335H11.6668L11.2668 9.16683L11.4001 9.66683L11.0001 9.36683L10.6001 9.66683L10.7335 9.16683L10.3335 8.8335H10.8335L11.0001 8.3335ZM8.33346 8.3335L8.50013 8.8335H9.00013L8.60013 9.16683L8.73346 9.66683L8.33346 9.36683L7.93346 9.66683L8.0668 9.16683L7.6668 8.8335H8.1668L8.33346 8.3335ZM5.6668 8.3335L5.83346 8.8335H6.33346L5.93346 9.16683L6.0668 9.66683L5.6668 9.36683L5.2668 9.66683L5.40013 9.16683L5.00013 8.8335H5.50013L5.6668 8.3335ZM9.6668 10.3335L9.83346 10.8335H10.3335L9.93346 11.1668L10.0668 11.6668L9.6668 11.3668L9.2668 11.6668L9.40013 11.1668L9.00013 10.8335H9.50013L9.6668 10.3335ZM7.00013 10.3335L7.1668 10.8335H7.6668L7.2668 11.1668L7.40013 11.6668L7.00013 11.3668L6.60013 11.6668L6.73346 11.1668L6.33346 10.8335H6.83346L7.00013 10.3335ZM4.33346 10.3335L4.50013 10.8335H5.00013L4.60013 11.1668L4.73346 11.6668L4.33346 11.3668L3.93346 11.6668L4.0668 11.1668L3.6668 10.8335H4.1668L4.33346 10.3335ZM5.2668 5.66683L5.6668 5.36683L6.0668 5.66683L5.90013 5.16683L6.30013 4.8335H5.80013L5.6668 4.3335L5.50013 4.8335H5.03346L5.43346 5.1335L5.2668 5.66683ZM2.60013 9.66683L3.00013 9.36683L3.40013 9.66683L3.23346 9.16683L3.63346 8.8335H3.1668L3.00013 8.3335L2.83346 8.8335H2.50013C2.50013 8.86683 2.4668 8.90016 2.4668 8.9335L2.73346 9.1335L2.60013 9.66683Z" fill="white"/>
</svg>
