<svg width="14" height="21" viewBox="0 0 14 21" fill="none" xmlns="http://www.w3.org/2000/svg">
<path d="M7.98535 8.70312C7.91709 8.01649 7.61329 7.3711 7.12109 6.87891C6.6289 6.38671 5.98351 6.08291 5.29688 6.01465L5 6C4.20435 6 3.44152 6.3163 2.87891 6.87891C2.3163 7.44152 2 8.20435 2 9L2.01465 9.29688C2.08291 9.98351 2.38671 10.6289 2.87891 11.1211C3.44152 11.6837 4.20435 12 5 12L5.29688 11.9854C5.98351 11.9171 6.6289 11.6133 7.12109 11.1211C7.6837 10.5585 8 9.79565 8 9L7.98535 8.70312ZM14 5C14 5.55228 13.5523 6 13 6C12.4477 6 12 5.55228 12 5V3.41406L9.1709 6.24219C9.70776 7.05415 10 8.01205 10 9L9.99414 9.24805C9.93281 10.4838 9.41421 11.6561 8.53516 12.5352C7.83561 13.2347 6.95038 13.7054 5.99512 13.8994C5.99842 13.9325 6 13.9661 6 14V16H8C8.55229 16 9 16.4477 9 17C9 17.5523 8.55229 18 8 18H6V20C6 20.5523 5.55228 21 5 21C4.44772 21 4 20.5523 4 20V18H2C1.44772 18 1 17.5523 1 17C1 16.4477 1.44772 16 2 16H4V14C4 13.9661 4.00061 13.9325 4.00391 13.8994C3.049 13.7053 2.16416 13.2345 1.46484 12.5352C0.527162 11.5975 0 10.3261 0 9C0 7.67392 0.527162 6.40253 1.46484 5.46484C2.40253 4.52716 3.67392 4 5 4L5.24805 4.00586C6.14725 4.05049 7.01327 4.33678 7.75684 4.82812L10.5859 2H9C8.44771 2 8 1.55228 8 1C8 0.447715 8.44771 0 9 0H13C13.5523 0 14 0.447715 14 1V5Z" fill="#CBD5E1"/>
</svg>
