<svg width="24" height="24" viewBox="0 0 24 24" fill="none" xmlns="http://www.w3.org/2000/svg">
<path d="M13.9854 10.7031C13.9171 10.0165 13.6133 9.3711 13.1211 8.87891C12.6289 8.38671 11.9835 8.08291 11.2969 8.01465L11 8C10.2044 8 9.44152 8.3163 8.87891 8.87891C8.3163 9.44152 8 10.2044 8 11L8.01465 11.2969C8.08291 11.9835 8.38671 12.6289 8.87891 13.1211C9.44152 13.6837 10.2044 14 11 14L11.2969 13.9854C11.9835 13.9171 12.6289 13.6133 13.1211 13.1211C13.6837 12.5585 14 11.7956 14 11L13.9854 10.7031ZM20 7C20 7.55228 19.5523 8 19 8C18.4477 8 18 7.55228 18 7V5.41406L15.1709 8.24219C15.7078 9.05415 16 10.0121 16 11L15.9941 11.248C15.9328 12.4838 15.4142 13.6561 14.5352 14.5352C13.8356 15.2347 12.9504 15.7054 11.9951 15.8994C11.9984 15.9325 12 15.9661 12 16V18H14C14.5523 18 15 18.4477 15 19C15 19.5523 14.5523 20 14 20H12V22C12 22.5523 11.5523 23 11 23C10.4477 23 10 22.5523 10 22V20H8C7.44772 20 7 19.5523 7 19C7 18.4477 7.44772 18 8 18H10V16C10 15.9661 10.0006 15.9325 10.0039 15.8994C9.049 15.7053 8.16416 15.2345 7.46484 14.5352C6.52716 13.5975 6 12.3261 6 11C6 9.67392 6.52716 8.40253 7.46484 7.46484C8.40253 6.52716 9.67392 6 11 6L11.248 6.00586C12.1472 6.05049 13.0133 6.33678 13.7568 6.82812L16.5859 4H15C14.4477 4 14 3.55228 14 3C14 2.44772 14.4477 2 15 2H19C19.5523 2 20 2.44772 20 3V7Z" fill="#1E1B4B"/>
</svg>
