<svg width="24" height="24" viewBox="0 0 24 24" fill="none" xmlns="http://www.w3.org/2000/svg">
<path d="M8.02441 1.24512C8.15504 0.708502 8.69678 0.379141 9.2334 0.509766C9.76955 0.64069 10.0983 1.18144 9.96777 1.71777L9.60645 3.19922C9.8974 3.50387 10.1956 3.84301 10.5039 4.21191V2C10.5041 1.44792 10.9518 1 11.5039 1C12.0557 1.00039 12.5037 1.44816 12.5039 2V4.00195C13.588 4.00265 14.5632 4.39282 15.417 5.0918C16.4861 4.61629 17.5938 4.24739 18.5352 4.15234L18.5566 4.15039L18.5781 4.14941C18.9814 4.12607 19.5518 4.16926 20.1016 4.42676C20.6853 4.70022 21.2242 5.21007 21.46 6.03027C21.6684 6.75454 21.6315 7.56876 21.1553 8.25781C20.6888 8.93227 19.9205 9.31328 19.0186 9.44922C19.0143 9.44997 19.0101 9.45047 19.0059 9.45117C18.9981 9.45232 18.9902 9.45494 18.9824 9.45605C18.738 9.49101 18.5049 9.54361 18.2822 9.61035C18.7953 10.8788 18.9093 12.0841 18.7158 13.2549C18.4907 14.6164 17.8623 15.8607 17.1182 17.0352C16.7939 17.5471 16.4996 18.1497 16.1553 18.8389C15.8226 19.5048 15.4485 20.2397 14.9941 20.9102C14.064 22.2824 12.7096 23.5019 10.5 23.502C8.33622 23.5019 6.7605 22.3385 5.65625 20.915C4.56543 19.5088 3.86421 17.7677 3.40527 16.3662C2.91589 14.8716 2.75656 13.2797 2.875 11.9209C2.93434 11.2406 3.06567 10.5909 3.27734 10.0283C3.45848 9.54701 3.72001 9.07115 4.09766 8.70801C3.62451 7.98981 3.14898 7.27286 2.66992 6.55859C2.30209 6.01259 2.26212 5.40193 2.43164 4.87305C2.59191 4.37313 2.9269 3.96729 3.29785 3.6875C3.9337 3.20805 5.12932 2.83823 6.05176 3.62988L6.23242 3.80371V3.80469C6.67081 4.27768 7.20384 4.9024 7.83008 5.67285C8.06647 5.4382 8.3243 5.23453 8.5957 5.05566C8.34856 4.77567 8.11469 4.52685 7.89355 4.30859C7.83594 4.26442 7.78354 4.21406 7.7373 4.15918C7.63937 4.06628 7.5447 3.97798 7.45215 3.89746C6.89193 3.41019 6.50273 3.21238 6.27148 3.15723C5.73435 3.02938 5.40267 2.49026 5.53027 1.95312C5.65815 1.41586 6.19711 1.08405 6.73438 1.21191C7.1292 1.30593 7.5196 1.49108 7.9043 1.7373L8.02441 1.24512ZM12.501 6.00195C10.9781 6.00204 9.60848 6.48299 8.92383 7.46875C8.75174 7.71686 8.56551 8.23462 8.47266 9.16504C8.38237 10.0701 8.38919 11.2571 8.50781 12.7412C8.5514 13.2914 8.14111 13.7734 7.59082 13.8174C7.0406 13.8612 6.55894 13.4505 6.51465 12.9004C6.44621 12.0441 6.41185 11.2581 6.41211 10.5459C6.08979 10.1722 5.87077 10.0555 5.77051 10.0273C5.73003 10.016 5.70916 10.0182 5.69141 10.0225C5.66812 10.0281 5.60968 10.0477 5.5166 10.1221H5.51562C5.4305 10.1902 5.28669 10.3686 5.14941 10.7334C5.01668 11.0863 4.91576 11.5491 4.86816 12.0947C4.77288 13.188 4.90128 14.5092 5.30566 15.7441C5.74067 17.0725 6.35637 18.555 7.23633 19.6895C8.10296 20.8066 9.15307 21.5019 10.5 21.502C11.8011 21.5019 12.6173 20.851 13.3379 19.7881C13.7089 19.2408 14.0308 18.6157 14.3662 17.9443C14.6899 17.2964 15.0361 16.5832 15.4277 15.9648C16.1159 14.8787 16.5822 13.9019 16.7432 12.9287C16.8661 12.1848 16.8174 11.4005 16.4922 10.5234C16.3509 10.624 16.2147 10.7256 16.085 10.8271C15.7956 11.0537 15.3046 11.5947 14.8311 12.2402C14.3477 12.8993 14.0136 13.4902 13.9258 13.7861C13.7487 14.3822 13.3049 14.7583 12.7725 14.8818C12.3273 14.985 11.8885 14.8988 11.5771 14.8057C10.9449 14.6165 10.3082 14.2321 9.9873 13.9502L9.98828 13.9492C9.64439 13.6473 9.27183 13.1455 9.17578 12.4893C9.07157 11.7761 9.31754 11.0474 9.93555 10.4209C10.13 10.2238 10.2322 10.1001 10.2861 10.0205C10.3108 9.98406 10.3219 9.96155 10.3262 9.95215C10.3288 9.9464 10.3298 9.94338 10.3301 9.94238C10.3311 9.93802 10.3374 9.90844 10.334 9.77832C10.3314 9.67899 10.3184 9.43355 10.3184 9.20312C10.3185 8.72047 10.5988 8.34121 10.7471 8.1582C10.9369 7.9239 11.1849 7.68929 11.4502 7.46777C11.9544 7.04692 12.6206 6.59252 13.3486 6.16211C13.0668 6.05339 12.7855 6.00195 12.501 6.00195ZM16.7285 6.70605C15.9948 7.00129 15.2169 7.38771 14.4902 7.80957C13.7727 8.22616 13.1554 8.65003 12.7314 9.00391C12.5355 9.1675 12.4029 9.29937 12.3232 9.39258C12.3266 9.49828 12.3295 9.59117 12.333 9.72656C12.3376 9.90298 12.3378 10.1366 12.2783 10.3936C12.1518 10.9393 11.8126 11.3668 11.3594 11.8262C11.2313 11.9561 11.1844 12.0502 11.167 12.0986C11.1508 12.1439 11.1506 12.1751 11.1543 12.2002C11.1646 12.2694 11.2196 12.3709 11.3066 12.4473H11.3076C11.3458 12.4808 11.4631 12.5676 11.6396 12.666C11.8035 12.7574 11.9774 12.835 12.1299 12.8828C12.3731 12.2967 12.8029 11.6246 13.2188 11.0576C13.7263 10.3656 14.3459 9.64855 14.8525 9.25195C15.4204 8.80756 16.184 8.26739 17.1523 7.88672C17.032 7.67107 16.9319 7.45242 16.8574 7.22949V7.22852C16.7999 7.05595 16.757 6.88142 16.7285 6.70605ZM4.76562 5.1709C4.7137 5.17355 4.61094 5.20296 4.50195 5.28516C4.40849 5.35575 4.36301 5.42746 4.34473 5.4668C4.91912 6.32335 5.48936 7.183 6.05566 8.04492C6.14059 8.05847 6.22624 8.07731 6.3125 8.10156C6.40612 8.1279 6.49748 8.16102 6.58691 8.19824C6.62954 7.96067 6.68175 7.73215 6.74414 7.51465C5.92424 6.48672 5.2683 5.70748 4.77051 5.16992C4.76907 5.17003 4.7673 5.17082 4.76562 5.1709ZM18.6846 6.14746C18.6833 6.31079 18.7094 6.45892 18.7549 6.5957L18.7979 6.70996C18.874 6.88966 19.0023 7.10021 19.1943 7.3457C19.3841 7.26491 19.472 7.17458 19.5098 7.12012C19.5672 7.03691 19.6222 6.87687 19.5381 6.58398V6.58301C19.4812 6.3851 19.3812 6.29837 19.2529 6.23828C19.0968 6.16521 18.8919 6.13701 18.7139 6.14453C18.7042 6.14557 18.6944 6.14633 18.6846 6.14746Z" fill="#1E1B4B"/>
</svg>
