<svg width="24" height="24" viewBox="0 0 24 24" fill="none" xmlns="http://www.w3.org/2000/svg">
<path d="M3 14.5L1 14.5V9.5L3 9.5V14.5ZM15 14.5L15 9.5L1 9.5L1.01074 9.2959C1.113 8.28722 1.96435 7.5 3 7.5L15 7.5C16.1046 7.5 17 8.39543 17 9.5V14.5C17 15.6046 16.1046 16.5 15 16.5L3 16.5C1.96435 16.5 1.113 15.7128 1.01074 14.7041L1 14.5L15 14.5Z" fill="currentColor"/>
<path d="M18 11.5V12.5H21V11.5H18ZM17 14.5C16.4823 14.5 16.0562 14.1067 16.0049 13.6025L16 13.5V10.5L16.0049 10.3975C16.0528 9.92703 16.427 9.55278 16.8975 9.50488L17 9.5L22 9.5C22.5523 9.5 23 9.94772 23 10.5V13.5C23 14.0523 22.5523 14.5 22 14.5L17 14.5Z" fill="currentColor"/>
<path d="M11 14.5H9L9 8.5H11L11 14.5Z" fill="currentColor"/>
<path d="M8 11H11C11.5523 11 12 11.4477 12 12C12 12.5523 11.5523 13 11 13H8C7.44771 13 7 12.5523 7 12C7 11.4477 7.44771 11 8 11Z" fill="currentColor"/>
</svg>
