<svg width="24" height="24" viewBox="0 0 24 24" fill="none" xmlns="http://www.w3.org/2000/svg">
<path d="M18.4287 12.0005C19.6346 12.0005 20.7955 12.4695 21.6543 13.311C22.5136 14.1533 23 15.3005 23 16.5005C22.9999 17.7004 22.5137 18.8478 21.6543 19.6899C20.7956 20.5314 19.6345 21.0005 18.4287 21.0005C17.2229 21.0005 16.0619 20.5314 15.2031 19.6899C14.3437 18.8477 13.8575 17.7004 13.8574 16.5005C13.8574 16.3134 13.8704 16.1274 13.8936 15.9438C13.8631 15.9332 13.8326 15.9215 13.8027 15.9077L13.5693 15.7993V15.8003C13.0855 15.5776 12.5479 15.4604 12 15.4604C11.4521 15.4604 10.9145 15.5776 10.4307 15.8003L10.4297 15.7993L10.1973 15.9077C10.1671 15.9217 10.1362 15.9331 10.1055 15.9438C10.1287 16.1274 10.1426 16.3134 10.1426 16.5005C10.1425 17.7004 9.65626 18.8477 8.79688 19.6899C7.93812 20.5314 6.77712 21.0005 5.57129 21.0005C4.36546 21.0005 3.20444 20.5314 2.3457 19.6899C1.48634 18.8478 1.00011 17.7004 1 16.5005C1 15.3005 1.48637 14.1533 2.3457 13.311C3.20446 12.4695 4.36537 12.0005 5.57129 12.0005C6.77721 12.0005 7.9381 12.4695 8.79688 13.311C9.03192 13.5414 9.23814 13.7951 9.41504 14.0659L9.59277 13.9849L9.59375 13.9839C10.3442 13.6384 11.1679 13.4604 12 13.4604C12.728 13.4604 13.4494 13.5963 14.1211 13.8618L14.4062 13.9839L14.4072 13.9849L14.584 14.0659C14.7609 13.7949 14.9679 13.5415 15.2031 13.311C16.0619 12.4695 17.2228 12.0005 18.4287 12.0005ZM5.57129 14.0005C4.88296 14.0005 4.22681 14.2687 3.74609 14.7397C3.26615 15.2102 3 15.8441 3 16.5005C3.00011 17.1568 3.26612 17.7909 3.74609 18.2612C4.22679 18.7322 4.88305 19.0005 5.57129 19.0005C6.25951 19.0005 6.91577 18.7321 7.39648 18.2612C7.87646 17.7909 8.14247 17.1568 8.14258 16.5005C8.14258 15.8441 7.87643 15.2102 7.39648 14.7397C6.91575 14.2688 6.2596 14.0005 5.57129 14.0005ZM18.4287 14.0005C17.7404 14.0005 17.0842 14.2688 16.6035 14.7397C16.1236 15.2102 15.8574 15.8441 15.8574 16.5005C15.8575 17.1568 16.1235 17.7909 16.6035 18.2612C17.0842 18.7321 17.7405 19.0005 18.4287 19.0005C19.1169 19.0005 19.7732 18.7322 20.2539 18.2612C20.7339 17.7909 20.9999 17.1568 21 16.5005C21 15.8441 20.7339 15.2102 20.2539 14.7397C19.7732 14.2687 19.117 14.0005 18.4287 14.0005ZM14.0449 3.09814C14.5381 2.94661 15.0749 2.97226 15.5508 3.17529C15.968 3.35342 16.325 3.66257 16.5508 4.06592L16.6396 4.24463L18.4717 8.46338C19.6083 8.57849 20.8155 8.72104 22.1309 8.89404C22.6782 8.96628 23.0632 9.46873 22.9912 10.0161C22.919 10.5635 22.4166 10.9494 21.8691 10.8774C14.1811 9.86633 10.3772 9.8651 2.12207 10.8784C1.57405 10.9457 1.07529 10.5553 1.00781 10.0073C0.940718 9.45936 1.32999 8.96046 1.87793 8.89307C3.18817 8.73223 4.3912 8.59856 5.51758 8.48779C5.52068 8.48015 5.52404 8.47197 5.52734 8.46436L7.35938 4.24561L7.36035 4.24463C7.57427 3.75407 7.97248 3.38043 8.44922 3.17725C8.925 2.9746 9.46117 2.94748 9.9541 3.09912L9.95312 3.1001L11.5898 3.59912H11.5908C11.8555 3.68027 12.1445 3.68027 12.4092 3.59912L14.0449 3.09814ZM14.6328 5.00928H14.6318L12.9951 5.51123C12.3487 5.70937 11.6523 5.70919 11.0059 5.51123V5.51221L9.36816 5.01123H9.36621C9.32179 4.99756 9.27185 5.00076 9.2334 5.01709C9.20658 5.02854 9.19591 5.04093 9.19336 5.04443L7.78223 8.2915C10.7902 8.07157 13.3407 8.06446 16.207 8.26807L14.8047 5.04248L14.8008 5.03662C14.7952 5.03107 14.7841 5.02304 14.7656 5.01514C14.7272 4.99874 14.6773 4.99564 14.6328 5.00928Z" fill="#CBD5E1"/>
</svg>
