<svg width="16" height="20" viewBox="0 0 16 20" fill="none" xmlns="http://www.w3.org/2000/svg">
<path d="M8.24805 0.00585938C9.48382 0.0671897 10.6561 0.58579 11.5352 1.46484C12.4728 2.40253 13 3.67392 13 5V8C13.7957 8 14.5585 8.3163 15.1211 8.87891C15.6837 9.44151 16 10.2043 16 11V17C16 17.7957 15.6837 18.5585 15.1211 19.1211C14.5585 19.6837 13.7957 20 13 20H3C2.20435 20 1.44151 19.6837 0.878906 19.1211C0.316297 18.5585 0 17.7957 0 17V11C0 10.2044 0.316297 9.44151 0.878906 8.87891C1.44151 8.3163 2.20435 8 3 8V5C3 3.67392 3.52716 2.40253 4.46484 1.46484C5.40253 0.527162 6.67392 0 8 0L8.24805 0.00585938ZM3 10C2.73478 10 2.48051 10.1054 2.29297 10.293C2.10543 10.4805 2 10.7348 2 11V17L2.00488 17.0986C2.02757 17.3276 2.12883 17.5429 2.29297 17.707C2.48051 17.8946 2.73478 18 3 18H13C13.2652 18 13.5195 17.8946 13.707 17.707C13.8946 17.5195 14 17.2652 14 17V11C14 10.7348 13.8946 10.4805 13.707 10.293C13.5195 10.1054 13.2652 10 13 10H3ZM8 12C8.53043 12 9.03899 12.2109 9.41406 12.5859C9.78913 12.961 10 13.4696 10 14C10 14.5304 9.78913 15.039 9.41406 15.4141C9.03899 15.7891 8.53043 16 8 16C7.46957 16 6.96101 15.7891 6.58594 15.4141C6.21087 15.039 6 14.5304 6 14C6 13.4696 6.21087 12.961 6.58594 12.5859C6.96101 12.2109 7.46957 12 8 12ZM8 2C7.20435 2 6.44152 2.3163 5.87891 2.87891C5.3163 3.44152 5 4.20435 5 5V8H11V5C11 4.20435 10.6837 3.44152 10.1211 2.87891C9.6289 2.38671 8.98351 2.08291 8.29688 2.01465L8 2Z" fill="#64748B"/>
</svg>
