<svg width="24" height="24" viewBox="0 0 24 24" fill="none" xmlns="http://www.w3.org/2000/svg">
<path fill-rule="evenodd" clip-rule="evenodd" d="M8.74707 12.0127C9.31937 12.0695 9.85735 12.3222 10.2676 12.7324C10.7364 13.2013 11 13.837 11 14.5C11 15.163 10.7364 15.7987 10.2676 16.2676C9.85735 16.6778 9.31937 16.9305 8.74707 16.9873L8.5 17C7.83696 17 7.20126 16.7364 6.73242 16.2676C6.26358 15.7987 6 15.163 6 14.5C6 13.837 6.26358 13.2013 6.73242 12.7324C7.20126 12.2636 7.83696 12 8.5 12L8.74707 12.0127ZM8.5 14C8.36739 14 8.24025 14.0527 8.14648 14.1465C8.05272 14.2403 8 14.3674 8 14.5C8 14.6326 8.05272 14.7597 8.14648 14.8535C8.24025 14.9473 8.36739 15 8.5 15L8.59766 14.9902C8.69389 14.9711 8.78311 14.9239 8.85352 14.8535C8.94728 14.7597 9 14.6326 9 14.5C9 14.3674 8.94728 14.2403 8.85352 14.1465C8.78311 14.0761 8.69389 14.0289 8.59766 14.0098L8.5 14Z" fill="#1E1B4B"/>
<path d="M11.0088 6C11.5611 6 12.0088 6.44772 12.0088 7C12.0088 7.55228 11.5611 8 11.0088 8H11C10.4477 8 10 7.55228 10 7C10 6.44772 10.4477 6 11 6H11.0088Z" fill="#1E1B4B"/>
<path fill-rule="evenodd" clip-rule="evenodd" d="M12 1C12.0783 1 12.1561 1.00206 12.2334 1.00586C18.2009 1.1301 23 6.00273 23 12C23 17.9973 18.2009 22.8689 12.2334 22.9932C12.1561 22.997 12.0783 23 12 23C5.92472 23 1 18.0753 1 12C1 5.92472 5.92472 1 12 1ZM12 3C7.02928 3 3 7.02928 3 12C3 16.9707 7.02928 21 12 21C13.1677 21 14.3952 20.2059 15.3848 18.5566C16.3624 16.9272 17 14.6114 17 12C17 9.38856 16.3624 7.07285 15.3848 5.44336C14.3952 3.79414 13.1677 3 12 3ZM17.2656 4.70312C18.3581 6.66026 19 9.2267 19 12C19 14.7729 18.3579 17.3389 17.2656 19.2959C19.5269 17.6611 21 15.0037 21 12C21 8.99611 19.5271 6.33792 17.2656 4.70312Z" fill="#1E1B4B"/>
</svg>
