<svg width="24" height="24" viewBox="0 0 24 24" fill="none" xmlns="http://www.w3.org/2000/svg">
<path fill-rule="evenodd" clip-rule="evenodd" d="M9.7744 2.39863C9.6494 2.44763 9.4754 2.57563 9.2994 2.79863C9.10089 3.05063 9.0344 3.26913 9.0299 3.42513C9.0264 3.56263 9.0684 3.72513 9.2449 3.91413C10.6399 5.40513 11.8199 7.42713 12.2304 8.16313C12.7804 9.14813 11.7629 10.0821 10.8724 9.77013C9.2654 9.20763 7.6814 9.20263 6.2444 9.90813C6.13546 9.96094 6.03866 10.0358 5.96013 10.1279C5.88161 10.2201 5.82306 10.3275 5.78819 10.4435C5.75332 10.5594 5.74288 10.6813 5.75755 10.8015C5.77222 10.9217 5.81166 11.0375 5.87339 11.1416C6.0634 11.4641 6.2509 11.6146 6.4104 11.6841C6.5634 11.7511 6.79289 11.7881 7.15839 11.6926C8.19239 11.4226 9.2059 11.4521 10.0984 11.8166C10.9974 12.1841 11.7024 12.8626 12.1509 13.7581C12.7854 15.0241 12.2679 16.4581 11.2439 17.2031C10.1169 18.0216 8.82389 18.0931 7.7239 17.6121C6.6534 17.1441 5.8124 16.1791 5.4209 14.9916C5.3069 14.6451 5.17239 14.5481 5.11489 14.5181C5.05339 14.4866 4.8999 14.4396 4.5769 14.5331C4.2274 14.6351 3.9369 15.0286 4.0119 15.5731C4.3369 17.9426 5.5069 19.5646 7.1559 20.5906C8.2184 21.2521 9.9929 21.6091 11.9409 21.6246C13.8694 21.6396 15.7629 21.3196 16.9829 20.8056C17.9549 20.3966 18.7279 19.3421 19.2624 17.8921C19.7849 16.4731 20.0004 14.8771 20.0004 13.7261C20.0004 8.61613 18.5309 4.36813 17.0484 2.54713C16.9744 2.45613 16.8799 2.40863 16.7444 2.40063C16.5715 2.3952 16.4011 2.44265 16.2559 2.53663C15.9804 2.71263 15.8894 2.87063 15.8554 2.98363C15.8184 3.10463 15.8064 3.31213 15.9354 3.65163C16.2734 4.54413 16.4439 5.50163 16.5204 6.03413C16.6919 7.22213 15.2049 7.75163 14.5289 6.87413C13.4379 5.45713 11.8289 3.47463 10.0099 2.41913C9.97355 2.39484 9.93186 2.37974 9.88839 2.37513C9.84908 2.37388 9.81002 2.38193 9.7744 2.39863ZM9.0439 0.536626C9.36174 0.408218 9.70501 0.355164 10.0468 0.381622C10.3886 0.40808 10.7196 0.513331 11.0139 0.689126C12.0524 1.29213 13.0064 2.12013 13.8369 2.97213C13.8499 2.78213 13.8846 2.59296 13.9409 2.40463C14.1414 1.74063 14.5924 1.22613 15.1779 0.851626C16.0784 0.275626 17.6269 0.0896258 18.5994 1.28463C20.4744 3.58763 22.0009 8.34913 22.0009 13.7261C22.0009 15.0781 21.7549 16.9126 21.1394 18.5836C20.5349 20.2236 19.4939 21.9186 17.7594 22.6486C16.2144 23.3001 14.0299 23.6411 11.9249 23.6246C9.8394 23.6076 7.6249 23.2381 6.09939 22.2886C3.94789 20.9496 2.4374 18.8066 2.0309 15.8456C1.8459 14.4986 2.55239 13.0406 4.01839 12.6131C4.14273 12.5771 4.26823 12.5478 4.3949 12.5251C4.30648 12.4067 4.22468 12.2836 4.1499 12.1561C3.94855 11.8147 3.81999 11.4352 3.7723 11.0417C3.72461 10.6482 3.75882 10.249 3.87278 9.86934C3.98674 9.48966 4.17799 9.13764 4.43451 8.83542C4.69103 8.53319 5.00728 8.28728 5.3634 8.11313C6.6844 7.46413 8.0659 7.26613 9.4254 7.40413C8.9554 6.69863 8.3869 5.92413 7.78489 5.28063C7.27389 4.73463 7.0139 4.07163 7.03139 3.37513C7.04789 2.69713 7.32489 2.07363 7.7299 1.56013C8.0424 1.16363 8.4834 0.756626 9.0439 0.536626ZM7.04439 13.7376C7.1569 13.9336 7.24839 14.1446 7.3209 14.3656C7.5514 15.0651 8.02389 15.5606 8.52589 15.7796C8.99889 15.9866 9.5369 15.9716 10.0684 15.5846C10.4219 15.3281 10.4954 14.9181 10.3634 14.6541C10.1154 14.1591 9.7609 13.8391 9.3424 13.6681C8.9174 13.4946 8.3564 13.4466 7.6649 13.6281C7.45689 13.6825 7.25023 13.719 7.0449 13.7376" fill="#1E1B4B"/>
</svg>
