<svg width="17" height="18" viewBox="0 0 17 18" fill="none" xmlns="http://www.w3.org/2000/svg">
<path d="M5.25 0C6.40632 0 7.49984 0.876802 7.5 2.14258V15.8574C7.49984 17.1232 6.40632 18 5.25 18H2.75C1.59368 18 0.50016 17.1232 0.5 15.8574V2.14258C0.500161 0.876802 1.59368 0 2.75 0H5.25ZM14.25 0C15.4063 0 16.4998 0.876802 16.5 2.14258V15.8574C16.4998 17.1232 15.4063 18 14.25 18H11.75C10.5937 18 9.50016 17.1232 9.5 15.8574V2.14258C9.50016 0.876802 10.5937 0 11.75 0H14.25ZM2.75 2C2.65266 2 2.5815 2.03623 2.54102 2.07324C2.50258 2.10845 2.50004 2.13351 2.5 2.14258V15.8574C2.50004 15.8665 2.50258 15.8915 2.54102 15.9268C2.5815 15.9638 2.65266 16 2.75 16H5.25C5.34734 16 5.4185 15.9638 5.45898 15.9268C5.49742 15.8915 5.49996 15.8665 5.5 15.8574V2.14258C5.49996 2.13351 5.49742 2.10845 5.45898 2.07324C5.4185 2.03623 5.34734 2 5.25 2H2.75ZM11.75 2C11.6527 2 11.5815 2.03623 11.541 2.07324C11.5026 2.10845 11.5 2.13351 11.5 2.14258V15.8574C11.5 15.8665 11.5026 15.8915 11.541 15.9268C11.5815 15.9638 11.6527 16 11.75 16H14.25C14.3473 16 14.4185 15.9638 14.459 15.9268C14.4974 15.8915 14.5 15.8665 14.5 15.8574V2.14258C14.5 2.13351 14.4974 2.10845 14.459 2.07324C14.4185 2.03623 14.3473 2 14.25 2H11.75Z" fill="white"/>
</svg>
