<svg width="24" height="24" viewBox="0 0 24 24" fill="none" xmlns="http://www.w3.org/2000/svg">
<g clip-path="url(#clip0_117_2824)">
<path fill-rule="evenodd" clip-rule="evenodd" d="M3 11.5C3 11.2209 3.11664 10.9545 3.32172 10.7652L9.82172 4.7652C10.2275 4.3906 10.8602 4.4159 11.2348 4.82172C11.6094 5.22754 11.5841 5.8602 11.1783 6.23481L6.55765 10.5H20C20.5523 10.5 21 10.9477 21 11.5C21 12.0523 20.5523 12.5 20 12.5H6.55765L11.1783 16.7652C11.5841 17.1398 11.6094 17.7725 11.2348 18.1783C10.8602 18.5841 10.2275 18.6094 9.82172 18.2348L3.32172 12.2348C3.11664 12.0455 3 11.7791 3 11.5Z" fill="#1E1B4B"/>
</g>
<defs>
<clipPath id="clip0_117_2824">
<rect width="24" height="24" fill="white"/>
</clipPath>
</defs>
</svg>
