<svg width="24" height="24" viewBox="0 0 24 24" fill="none" xmlns="http://www.w3.org/2000/svg">
<path d="M14.592 21.7173C14.8681 22.1954 14.7043 22.8068 14.2262 23.0829C13.7481 23.359 13.1365 23.1952 12.8605 22.7169L10.7148 18.9999H3C2.48242 18.9999 2.05634 18.6065 2.00488 18.1025L2 17.9999V12.9999C2 12.4477 2.44772 11.9999 3 11.9999H6.67285L4.27609 7.84803C4.00008 7.36991 4.16386 6.75857 4.64192 6.48246C5.12012 6.20628 5.73166 6.3701 6.00776 6.84834L14.592 21.7173ZM15.1025 12.0048C15.6067 12.0562 16 12.4823 16 12.9999V17.9999C15.9999 18.5175 15.6066 18.9437 15.1025 18.9951L15 18.9999H14.2529L13.0977 16.9999H14V13.9999H11.3662L10.2109 11.9999H15L15.1025 12.0048ZM18 11.9999C18.5523 11.9999 19 12.4477 19 12.9999V17.9999C18.9999 18.5521 18.5522 18.9999 18 18.9999C17.4478 18.9999 17.0001 18.5521 17 17.9999V12.9999C17 12.4477 17.4477 11.9999 18 11.9999ZM21 11.9999C21.5523 11.9999 22 12.4477 22 12.9999V17.9999C21.9999 18.5521 21.5522 18.9999 21 18.9999C20.4478 18.9999 20.0001 18.5521 20 17.9999V12.9999C20 12.4477 20.4477 11.9999 21 11.9999ZM4 13.9999V16.9999H9.55957L7.82812 13.9999H4ZM15.6064 2.081C16.114 1.86362 16.7014 2.09884 16.9189 2.60639L17.4189 3.77241C17.8459 4.76883 17.8459 5.89708 17.4189 6.8935C17.2076 7.38689 17.2075 7.94602 17.4189 8.4394L17.9189 9.60639C18.1362 10.1139 17.901 10.7014 17.3936 10.9189C16.8861 11.1362 16.2986 10.9009 16.0811 10.3935L15.5811 9.22748C15.154 8.23108 15.1542 7.10283 15.5811 6.10639C15.7925 5.61302 15.7924 5.05389 15.5811 4.56049L15.0811 3.3935C14.8637 2.88596 15.099 2.29856 15.6064 2.081ZM19.6064 2.081C20.114 1.86362 20.7014 2.09884 20.9189 2.60639L21.4189 3.77241C21.8459 4.76883 21.8459 5.89708 21.4189 6.8935C21.2076 7.38689 21.2075 7.94602 21.4189 8.4394L21.9189 9.60639C22.1362 10.1139 21.901 10.7014 21.3936 10.9189C20.8861 11.1362 20.2986 10.9009 20.0811 10.3935L19.5811 9.22748C19.154 8.23108 19.1542 7.10283 19.5811 6.10639C19.7925 5.61302 19.7924 5.05389 19.5811 4.56049L19.0811 3.3935C18.8637 2.88596 19.099 2.29856 19.6064 2.081Z" fill="#1E1B4B"/>
</svg>
