<svg width="24" height="24" viewBox="0 0 24 24" fill="none" xmlns="http://www.w3.org/2000/svg">
<path d="M17.053 7L17.1058 7.00586C20.3205 7.35006 21.9992 9.81569 21.9993 12.2139C21.9993 13.4035 21.5876 14.6057 20.7259 15.5176C20.0091 16.2759 19.0241 16.7857 17.8216 16.9453C17.7203 16.9798 17.6122 17 17.4993 17H4.99931V15C6.08571 15 6.81353 14.6295 7.27274 14.1436C7.74416 13.6446 7.99931 12.9528 7.99931 12.2139C7.99919 10.755 7.0109 9.22092 4.89286 8.99414L4.99931 7H17.053ZM14.889 9C15.6237 9.93248 15.9992 11.0805 15.9993 12.2139C15.9993 13.1901 15.7215 14.1744 15.1458 15H16.9993C18.0857 15 18.8135 14.6295 19.2727 14.1436C19.7442 13.6446 19.9993 12.9528 19.9993 12.2139C19.9992 10.7653 19.0248 9.24355 16.9378 9H14.889ZM8.88895 9C9.62366 9.93248 9.99925 11.0805 9.99931 12.2139C9.99931 13.1901 9.72146 14.1744 9.14579 15H10.9993C12.0857 15 12.8135 14.6295 13.2727 14.1436C13.7442 13.6446 13.9993 12.9528 13.9993 12.2139C13.9992 10.7653 13.0248 9.24355 10.9378 9H8.88895Z" fill="#1E1B4B"/>
<path d="M4.51096 11.04C4.93207 10.9704 5.36329 10.9913 5.77561 11.1016C6.30898 11.2443 6.62613 11.7928 6.48362 12.3262C6.34086 12.8596 5.79243 13.1768 5.25901 13.0342C5.12154 12.9974 4.97754 12.9905 4.83714 13.0137C4.69674 13.0369 4.56287 13.0899 4.44456 13.1689C4.32631 13.248 4.22573 13.3509 4.15061 13.4717C4.07551 13.5925 4.02763 13.7281 4.00901 13.8691C3.99043 14.0102 4.00192 14.1539 4.04319 14.29C4.08448 14.4262 4.15446 14.5522 4.24827 14.6592C4.34206 14.7662 4.45755 14.8524 4.58714 14.9111C4.71671 14.9699 4.85703 14.9999 4.99931 15C5.55123 15.0005 5.99925 15.4481 5.99925 16C5.99899 16.5522 5.55141 17 4.99931 17C4.57237 16.9998 4.14979 16.9088 3.76096 16.7324C3.37221 16.5561 3.02575 16.2985 2.74436 15.9775C2.46295 15.6565 2.25299 15.2787 2.12913 14.8701C2.00535 14.4617 1.96991 14.0315 2.02561 13.6084C2.08136 13.1852 2.22701 12.7785 2.45237 12.416C2.67781 12.0535 2.97829 11.7431 3.33323 11.5059C3.68819 11.2686 4.08974 11.1097 4.51096 11.04Z" fill="#1E1B4B"/>
</svg>
