<svg width="24" height="24" viewBox="0 0 24 24" fill="none" xmlns="http://www.w3.org/2000/svg">
<path d="M5.86621 2.16357C6.57327 1.95446 7.32494 1.94528 8.03711 2.13623C8.7494 2.32735 9.39577 2.71153 9.90332 3.24658C10.4109 3.78172 10.7608 4.44699 10.9141 5.16846C10.9723 5.44286 11.002 5.72138 11.002 5.99951H11.1963L15.4453 3.16748C15.752 2.96315 16.1467 2.94396 16.4717 3.11768C16.7967 3.29163 16.9998 3.63091 17 3.99951V7.25537C18.0003 7.95293 18.8002 8.89951 19.3232 9.99951H19.999C20.5293 9.99951 21.038 10.2105 21.4131 10.5854C21.788 10.9604 21.9989 11.4692 21.999 11.9995V13.9995C21.999 14.5299 21.788 15.0385 21.4131 15.4136C21.038 15.7886 20.5295 15.9995 19.999 15.9995H19.3213C18.9883 16.7004 18.5422 17.3419 17.999 17.897V19.4995C17.999 20.1625 17.7353 20.7983 17.2666 21.2671C16.7978 21.7359 16.1621 21.9995 15.499 21.9995C14.836 21.9995 14.2003 21.7359 13.7314 21.2671C13.382 20.9175 13.1469 20.4749 13.0498 19.9976C13.0329 19.9977 13.0159 19.9995 12.999 19.9995H8.99902V19.9985C8.98179 19.9985 8.9645 19.9977 8.94727 19.9976C8.85017 20.4748 8.61608 20.9175 8.2666 21.2671C7.79776 21.7359 7.16206 21.9995 6.49902 21.9995C5.83601 21.9995 5.20027 21.7359 4.73145 21.2671C4.26276 20.7983 3.99902 20.1624 3.99902 19.4995V17.8979C3.11888 16.9997 2.49342 15.8785 2.19531 14.6509C1.861 13.2733 1.9532 11.8257 2.45898 10.5015C2.76263 9.70676 3.20743 8.97903 3.7666 8.3501C3.56143 8.06764 3.39164 7.75915 3.26562 7.43018C3.00188 6.74152 2.93355 5.99308 3.06836 5.26807C3.20317 4.54324 3.53581 3.86951 4.0293 3.32178C4.52298 2.77406 5.15915 2.3728 5.86621 2.16357ZM12.0537 7.83154C11.8895 7.94102 11.6964 7.99951 11.499 7.99951H9.88867C9.85276 8.00167 9.8166 8.0013 9.78027 7.99951H8.99902C7.98633 7.99936 6.99726 8.30715 6.16309 8.88135C5.32902 9.45552 4.68854 10.2694 4.32715 11.2153C3.96585 12.1613 3.90081 13.1952 4.13965 14.1792C4.37859 15.1632 4.91027 16.0521 5.66504 16.7271C5.87704 16.9166 5.9988 17.1878 5.99902 17.4722V19.4995C5.99902 19.632 6.0519 19.7593 6.14551 19.853C6.23926 19.9468 6.36644 19.9995 6.49902 19.9995C6.63163 19.9995 6.75877 19.9468 6.85254 19.853C6.94619 19.7593 6.99902 19.632 6.99902 19.4995V18.9165C6.99916 18.6225 7.12902 18.3427 7.35352 18.1528C7.57803 17.9632 7.87517 17.8815 8.16504 17.9302C8.44028 17.9764 8.71894 17.9998 8.99805 17.9995H13C13.2791 17.9998 13.5577 17.9764 13.833 17.9302C14.1229 17.8815 14.42 17.9632 14.6445 18.1528C14.869 18.3427 14.9989 18.6225 14.999 18.9165V19.4995L15.0088 19.5972C15.0279 19.6933 15.0752 19.7827 15.1455 19.853C15.2393 19.9468 15.3664 19.9995 15.499 19.9995C15.6316 19.9995 15.7588 19.9468 15.8525 19.853C15.9462 19.7593 15.999 19.632 15.999 19.4995V17.4722C15.9992 17.1882 16.1206 16.9175 16.332 16.728C16.9588 16.1663 17.4341 15.4571 17.7139 14.6665L17.7783 14.5229C17.9511 14.2044 18.2866 13.9995 18.6572 13.9995H19.999V11.9995H18.6582C18.2349 11.9995 17.8574 11.7324 17.7158 11.3335C17.317 10.2102 16.5307 9.26555 15.499 8.66846C15.1903 8.48966 15 8.15905 15 7.80225V5.86768L12.0537 7.83154ZM15 10.0005C15.5522 10.0006 16 10.4483 16 11.0005V11.0103C15.9999 11.5624 15.5522 12.0102 15 12.0103C14.4479 12.0101 14.0001 11.5624 14 11.0103V11.0005C14 10.4483 14.4479 10.0007 15 10.0005ZM7.51953 4.06787C7.16343 3.97238 6.78715 3.97698 6.43359 4.08154C6.08014 4.18616 5.76243 4.38684 5.51562 4.66064C5.26881 4.93454 5.10257 5.27179 5.03516 5.63428C4.96784 5.99669 5.00194 6.3711 5.13379 6.71533C5.17942 6.83435 5.23702 6.94781 5.30371 7.05518C6.4112 6.36683 7.69071 5.99934 8.99902 5.99951H9.00098C9.00099 5.86061 8.98611 5.72154 8.95703 5.58447C8.88044 5.22384 8.70581 4.89106 8.45215 4.62354C8.19844 4.35609 7.87556 4.16345 7.51953 4.06787Z" fill="currentColor"/>
</svg>
