<svg width="24" height="24" viewBox="0 0 24 24" fill="none" xmlns="http://www.w3.org/2000/svg">
<path d="M4 18.9999H14V15.9999H4V18.9999ZM16 19.9999C16 20.5176 15.6067 20.9437 15.1025 20.9951L15 20.9999H3C2.48232 20.9999 2.05621 20.6066 2.00488 20.1025L2 19.9999V14.9999C2 14.4477 2.44772 13.9999 3 13.9999H15L15.1025 14.0048C15.6067 14.0562 16 14.4823 16 14.9999V19.9999Z" fill="currentColor"/>
<path d="M17 19.9999V14.9999C17 14.4477 17.4477 13.9999 18 13.9999C18.5523 13.9999 19 14.4477 19 14.9999V19.9999C19 20.5522 18.5523 20.9999 18 20.9999C17.4477 20.9999 17 20.5522 17 19.9999Z" fill="currentColor"/>
<path d="M20 19.9999V14.9999C20 14.4477 20.4477 13.9999 21 13.9999C21.5523 13.9999 22 14.4477 22 14.9999V19.9999C22 20.5522 21.5523 20.9999 21 20.9999C20.4477 20.9999 20 20.5522 20 19.9999Z" fill="currentColor"/>
<path d="M15.6064 4.081C16.114 3.86362 16.7014 4.09884 16.9189 4.60639L17.4189 5.77241C17.846 6.76889 17.8459 7.897 17.4189 8.8935C17.2075 9.38695 17.2075 9.94595 17.4189 10.4394L17.9189 11.6064C22.1363 12.114 21.9011 12.7014 21.3936 12.9189C20.886 13.1363 20.2986 12.9011 20.0811 12.3935L19.5811 11.2275C19.154 10.231 19.1541 9.10289 19.5811 8.10639C19.7925 7.61294 19.7925 7.05394 19.5811 6.56049L19.0811 5.3935C18.8637 4.88592 19.0989 4.29852 19.6064 4.081Z" fill="currentColor"/>
<path d="M19.6064 4.081C20.114 3.86362 20.7014 4.09884 20.9189 4.60639L21.4189 5.77241C21.846 6.76889 21.8459 7.897 21.4189 8.8935C21.2075 9.38695 21.2075 9.94595 21.4189 10.4394L21.9189 11.6064C22.1363 12.114 21.9011 12.7014 21.3936 12.9189C20.886 13.1363 20.2986 12.9011 20.0811 12.3935L19.5811 11.2275C19.154 10.231 19.1541 9.10289 19.5811 8.10639C19.7925 7.61294 19.7925 7.05394 19.5811 6.56049L19.0811 5.3935C18.8637 4.88592 19.0989 4.29852 19.6064 4.081Z" fill="currentColor"/>
</svg>
