<svg width="24" height="24" viewBox="0 0 24 24" fill="none" xmlns="http://www.w3.org/2000/svg">
<path d="M15 10C16.7786 10 18.4385 10.3584 19.6904 10.9844C20.8527 11.5657 21.9406 12.539 21.9941 13.8955C21.9977 13.9298 22 13.9648 22 14V18C21.9999 19.4107 20.8822 20.4195 19.6904 21.0156C18.4386 21.6417 16.7786 22 15 22C13.2214 22 11.5614 21.6417 10.3096 21.0156C9.11778 20.4195 8.00009 19.4107 8 18V14C8 13.9648 8.00133 13.9298 8.00488 13.8955C8.05841 12.539 9.14724 11.5657 10.3096 10.9844C11.5615 10.3584 13.2214 10 15 10ZM20 16.8477C19.8975 16.9061 19.7948 16.9634 19.6904 17.0156C18.4385 17.6416 16.7785 18 15 18C13.2215 18 11.5615 17.6416 10.3096 17.0156C10.2052 16.9634 10.1025 16.9061 10 16.8477V18C10.0001 18.2452 10.2251 18.7368 11.2041 19.2266C12.1238 19.6865 13.4647 20 15 20C16.5353 20 17.8762 19.6865 18.7959 19.2266C19.7749 18.7368 19.9999 18.2452 20 18V16.8477ZM5.72266 2.44141C7.75989 1.85308 10.2401 1.85308 12.2773 2.44141C13.2994 2.73657 14.1926 3.17444 14.8506 3.74414C15.508 4.31343 16 5.08274 16 6C15.9999 6.91723 15.508 7.68659 14.8506 8.25586C14.1926 8.82554 13.2994 9.26344 12.2773 9.55859C10.2401 10.1469 7.75987 10.1469 5.72266 9.55859C5.09074 9.3761 4.50825 9.13863 4 8.84961V11L4.00684 11.0801C4.02317 11.1634 4.07403 11.2597 4.21777 11.3926C4.44077 11.5986 4.81909 11.8226 5.40918 12.0869C5.91304 12.3127 6.1388 12.9052 5.91309 13.4092C5.68724 13.913 5.09474 14.1387 4.59082 13.9131C4.39082 13.8235 4.19279 13.7283 4 13.6279V16C4.00003 16.1033 4.02607 16.2154 4.21777 16.3926C4.44077 16.5986 4.81909 16.8226 5.40918 17.0869C5.91304 17.3127 6.1388 17.9052 5.91309 18.4092C5.68724 18.913 5.09474 19.1387 4.59082 18.9131C3.95308 18.6274 3.33031 18.2957 2.86035 17.8613C2.35939 17.3983 2.00005 16.7845 2 16V6C2 5.08274 2.49197 4.31343 3.14941 3.74414C3.8074 3.17444 4.7006 2.73657 5.72266 2.44141ZM15 12C13.4646 12 12.1237 12.3136 11.2041 12.7734C10.2252 13.263 10 13.7543 10 14C10.0001 14.2457 10.2253 14.7371 11.2041 15.2266C12.1237 15.6863 13.4646 16 15 16C16.5354 16 17.8763 15.6863 18.7959 15.2266C19.7747 14.7371 19.9999 14.2457 20 14C20 13.7543 19.7748 13.263 18.7959 12.7734C17.8763 12.3136 16.5354 12 15 12ZM11.7227 4.3623C10.0479 3.87866 7.95207 3.87866 6.27734 4.3623C5.44366 4.60307 4.83701 4.92867 4.45898 5.25586C4.08058 5.58352 4 5.84535 4 6C4.00006 6.15468 4.08065 6.41656 4.45898 6.74414C4.83702 7.07132 5.4437 7.39694 6.27734 7.6377C7.95205 8.12133 10.048 8.12133 11.7227 7.6377C12.5563 7.39694 13.163 7.07132 13.541 6.74414C13.9194 6.41656 13.9999 6.15468 14 6C14 5.84535 13.9194 5.58352 13.541 5.25586C13.163 4.92867 12.5563 4.60307 11.7227 4.3623Z" fill="currentColor"/>
</svg>
