<svg width="24" height="24" viewBox="0 0 24 24" fill="none" xmlns="http://www.w3.org/2000/svg">
<path d="M11 22V20C11 19.4477 11.4477 19 12 19C12.5523 19 13 19.4477 13 20V22C13 22.5523 12.5523 23 12 23C11.4477 23 11 22.5523 11 22ZM5.70801 17.0205C6.09867 16.6301 6.73168 16.6308 7.12207 17.0215C7.51243 17.4121 7.51271 18.0452 7.12207 18.4355L5.70703 19.8496C5.31638 20.2399 4.68335 20.2392 4.29297 19.8486C3.9026 19.458 3.90236 18.825 4.29297 18.4346L5.70801 17.0205ZM17.0205 17.0205C17.411 16.63 18.045 16.63 18.4355 17.0205L19.8486 18.4346C20.2392 18.8251 20.2392 19.4581 19.8486 19.8486C19.4581 20.2392 18.8251 20.2392 18.4346 19.8486L17.0205 18.4355C16.63 18.045 16.63 17.411 17.0205 17.0205ZM16 12C16 10.9391 15.5783 9.92202 14.8281 9.17188C14.078 8.42173 13.0609 8 12 8C10.9391 8 9.92202 8.42173 9.17188 9.17188C8.42173 9.92202 8 10.9391 8 12C8 13.0609 8.42173 14.078 9.17188 14.8281C9.92202 15.5783 10.9391 16 12 16C13.0609 16 14.078 15.5783 14.8281 14.8281C15.5783 14.078 16 13.0609 16 12ZM4 11C4.55228 11 5 11.4477 5 12C5 12.5523 4.55228 13 4 13H2C1.44772 13 1 12.5523 1 12C1 11.4477 1.44772 11 2 11H4ZM22 11C22.5523 11 23 11.4477 23 12C23 12.5523 22.5523 13 22 13H20C19.4477 13 19 12.5523 19 12C19 11.4477 19.4477 11 20 11H22ZM4.29297 4.29297C4.68349 3.90244 5.31651 3.90244 5.70703 4.29297L7.12109 5.70703C7.51156 6.09756 7.5116 6.73059 7.12109 7.12109C6.73059 7.5116 6.09756 7.51156 5.70703 7.12109L4.29297 5.70703C3.90244 5.31651 3.90244 4.68349 4.29297 4.29297ZM18.4355 4.29297C18.8261 3.90244 19.4601 3.90244 19.8506 4.29297C20.2407 4.68342 20.2407 5.31658 19.8506 5.70703L18.4365 7.12109C18.046 7.51162 17.412 7.51162 17.0215 7.12109C16.6313 6.73064 16.6313 6.09751 17.0215 5.70703L18.4355 4.29297ZM11 4V2C11 1.44772 11.4477 1 12 1C12.5523 1 13 1.44772 13 2V4C13 4.55228 12.5523 5 12 5C11.4477 5 11 4.55228 11 4ZM18 12C18 13.5913 17.3674 15.117 16.2422 16.2422C15.117 17.3674 13.5913 18 12 18C10.4087 18 8.88303 17.3674 7.75781 16.2422C6.63259 15.117 6 13.5913 6 12C6 10.4087 6.63259 8.88303 7.75781 7.75781C8.88303 6.63259 10.4087 6 12 6C13.5913 6 15.117 6.63259 16.2422 7.75781C17.3674 8.88303 18 10.4087 18 12Z" fill="#CBD5E1"/>
</svg>
