<svg width="22" height="22" viewBox="0 0 22 22" fill="none" xmlns="http://www.w3.org/2000/svg">
<path d="M10 21V19C10 18.4477 10.4477 18 11 18C11.5523 18 12 18.4477 12 19V21C12 21.5523 11.5523 22 11 22C10.4477 22 10 21.5523 10 21ZM4.70801 16.0205C5.09867 15.6301 5.73168 15.6308 6.12207 16.0215C6.51243 16.4121 6.51271 17.0452 6.12207 17.4355L4.70703 18.8496C4.31638 19.2399 3.68335 19.2392 3.29297 18.8486C2.9026 18.458 2.90236 17.825 3.29297 17.4346L4.70801 16.0205ZM16.0205 16.0205C16.411 15.63 17.045 15.63 17.4355 16.0205L18.8486 17.4346C19.2392 17.8251 19.2392 18.4581 18.8486 18.8486C18.4581 19.2392 17.8251 19.2392 17.4346 18.8486L16.0205 17.4355C15.63 17.045 15.63 16.411 16.0205 16.0205ZM15 11C15 9.93913 14.5783 8.92202 13.8281 8.17188C13.078 7.42173 12.0609 7 11 7C9.93913 7 8.92202 7.42173 8.17188 8.17188C7.42173 8.92202 7 9.93913 7 11C7 12.0609 7.42173 13.078 8.17188 13.8281C8.92202 14.5783 9.93913 15 11 15C12.0609 15 13.078 14.5783 13.8281 13.8281C14.5783 13.078 15 12.0609 15 11ZM3 10C3.55228 10 4 10.4477 4 11C4 11.5523 3.55228 12 3 12H1C0.447715 12 0 11.5523 0 11C0 10.4477 0.447715 10 1 10H3ZM21 10C21.5523 10 22 10.4477 22 11C22 11.5523 21.5523 12 21 12H19C18.4477 12 18 11.5523 18 11C18 10.4477 18.4477 10 19 10H21ZM3.29297 3.29297C3.68349 2.90244 4.31651 2.90244 4.70703 3.29297L6.12109 4.70703C6.51156 5.09756 6.5116 5.73059 6.12109 6.12109C5.73059 6.5116 5.09756 6.51156 4.70703 6.12109L3.29297 4.70703C2.90244 4.31651 2.90244 3.68349 3.29297 3.29297ZM17.4355 3.29297C17.8261 2.90244 18.4601 2.90244 18.8506 3.29297C19.2407 3.68342 19.2407 4.31658 18.8506 4.70703L17.4365 6.12109C17.046 6.51162 16.412 6.51162 16.0215 6.12109C15.6313 5.73064 15.6313 5.09751 16.0215 4.70703L17.4355 3.29297ZM10 3V1C10 0.447715 10.4477 0 11 0C11.5523 0 12 0.447715 12 1V3C12 3.55228 11.5523 4 11 4C10.4477 4 10 3.55228 10 3ZM17 11C17 12.5913 16.3674 14.117 15.2422 15.2422C14.117 16.3674 12.5913 17 11 17C9.4087 17 7.88303 16.3674 6.75781 15.2422C5.63259 14.117 5 12.5913 5 11C5 9.4087 5.63259 7.88303 6.75781 6.75781C7.88303 5.63259 9.4087 5 11 5C12.5913 5 14.117 5.63259 15.2422 6.75781C16.3674 7.88303 17 9.4087 17 11Z" fill="#1E1B4B"/>
</svg>
