<svg width="20" height="18" viewBox="0 0 20 18" fill="none" xmlns="http://www.w3.org/2000/svg">
<path fill-rule="evenodd" clip-rule="evenodd" d="M3.8322 12.1462C4.31344 12.6092 4.50411 13.2712 4.33642 13.8968L3.91251 15.4782L7.33224 14.1288C7.60671 14.0205 7.90367 13.9708 8.2014 13.9833C8.30024 13.9874 8.39979 13.9895 8.5 13.9895H11.5C15.0899 13.9895 18 11.2754 18 7.92741C18 4.57938 15.0899 1.86527 11.5 1.86527H8.5C4.91015 1.86527 2 4.57938 2 7.92741C2 9.56796 2.6961 11.0531 3.8322 12.1462ZM2.8459 17.9244L8.11152 15.8467C8.24029 15.8521 8.3698 15.8548 8.5 15.8548H11.5C16.1944 15.8548 20 12.3056 20 7.92741C20 3.54922 16.1944 0 11.5 0H8.5C3.80558 0 0 3.54922 0 7.92741C0 10.0718 0.912949 12.0174 2.39613 13.4444L1.48611 16.8393C1.28606 17.5856 2.08625 18.2241 2.8459 17.9244Z" fill="#1E1B4B"/>
</svg>
