<svg width="24" height="24" viewBox="0 0 24 24" fill="none" xmlns="http://www.w3.org/2000/svg">
<path d="M7.56704 4.03519C8.06197 3.79055 8.66201 3.99352 8.90688 4.48831C9.15165 4.9833 8.94865 5.58328 8.45376 5.82816C7.07984 6.50754 5.93021 7.5678 5.14126 8.88187C4.35231 10.1959 3.95735 11.7092 4.00356 13.2412C4.04986 14.7731 4.53536 16.2595 5.402 17.5235C6.26868 18.7874 7.48001 19.7758 8.89224 20.3711C10.3046 20.9665 11.8587 21.1441 13.3688 20.8819C14.8788 20.6196 16.2819 19.9292 17.4108 18.8926C18.5397 17.856 19.3472 16.5165 19.737 15.0342C20.1267 13.5519 20.0821 11.9882 19.609 10.5303C19.4388 10.0051 19.7264 9.44095 20.2516 9.27054C20.7768 9.10013 21.3408 9.38799 21.5114 9.91312C22.1027 11.7355 22.1578 13.6901 21.6706 15.543C21.1833 17.3957 20.1744 19.0695 18.7633 20.3653C17.3521 21.6611 15.5982 22.5248 13.7106 22.8526C11.8232 23.1803 9.88116 22.9589 8.11587 22.2149C6.3504 21.4707 4.83502 20.2345 3.75161 18.6543C2.66832 17.0742 2.06231 15.2157 2.00454 13.3008C1.94683 11.386 2.44035 9.49503 3.42641 7.85257C4.4126 6.20998 5.84964 4.88443 7.56704 4.03519ZM7.20181 9.39652C7.53353 8.95495 8.16063 8.86558 8.6022 9.1973C9.04372 9.52903 9.13215 10.1561 8.80044 10.5977C8.39965 11.1313 8.13894 11.7568 8.04165 12.417C7.94435 13.0773 8.01391 13.7514 8.2438 14.378C8.47367 15.0045 8.85686 15.5633 9.35806 16.0039C9.85931 16.4446 10.463 16.7537 11.1139 16.9014C11.7647 17.049 12.4424 17.0317 13.0846 16.8506C13.7269 16.6695 14.3138 16.3302 14.7916 15.8643C15.2694 15.3984 15.6227 14.8201 15.82 14.1826C16.0172 13.5451 16.0518 12.8682 15.9206 12.2139C15.812 11.6724 16.1632 11.1448 16.7047 11.0362C17.2462 10.9276 17.7729 11.2789 17.8815 11.8203C18.0783 12.8019 18.0269 13.8171 17.7311 14.7735C17.4352 15.7297 16.9048 16.5971 16.1881 17.2959C15.4713 17.9948 14.5902 18.5038 13.6266 18.7754C12.6632 19.047 11.6467 19.0731 10.6706 18.8516C9.69455 18.63 8.78947 18.1676 8.03774 17.5069C7.28594 16.8459 6.71073 16.0071 6.36587 15.0674C6.02102 14.1276 5.91717 13.1155 6.06313 12.125C6.20914 11.1348 6.60061 10.1968 7.20181 9.39652ZM10.9997 13V2.00003C10.9997 1.65356 11.1786 1.33168 11.4733 1.14945C11.7681 0.967239 12.1369 0.950507 12.4469 1.1055L20.4469 5.1055C20.7856 5.27494 20.9997 5.62136 20.9997 6.00003C20.9997 6.37871 20.7856 6.72512 20.4469 6.89456L12.9997 10.6182V13C12.9997 13.5522 12.5518 13.9999 11.9997 14C11.4474 14 10.9997 13.5523 10.9997 13ZM12.9997 8.38187L17.7633 6.00003L12.9997 3.6182V8.38187Z" fill="currentColor"/>
</svg>
