<svg width="24" height="24" viewBox="0 0 24 24" fill="none" xmlns="http://www.w3.org/2000/svg">
<path d="M12 24C18.6274 24 24 18.6274 24 12C24 5.37258 18.6274 0 12 0C5.37258 0 0 5.37258 0 12C0 18.6274 5.37258 24 12 24Z" fill="url(#paint0_linear_525_54512)"/>
<path d="M0.00720005 11.7002C0.00480005 11.8004 0 11.8994 0 12.0002C0 18.6482 5.352 24.0002 12 24.0002C18.648 24.0002 24 18.6482 24 12.0002C24 11.8994 23.9952 11.8004 23.9928 11.7002C23.8344 18.2084 18.5448 23.4002 12 23.4002C5.4528 23.4002 0.1656 18.2084 0.00720005 11.7002Z" fill="#0C69CF"/>
<path opacity="0.2" d="M17.5781 6.72314L4.33594 12.1091L9.2836 17.0579C9.20529 17.1599 9.12364 17.267 9.0457 17.3685L15.1898 23.5126C17.5298 22.8557 19.6152 21.5038 21.17 19.6358C22.7248 17.7677 23.6757 15.4716 23.8969 13.0513L17.5781 6.72314Z" fill="url(#paint1_linear_525_54512)"/>
<path d="M7.72852 13.3681L8.82565 16.9425C8.82565 16.9425 8.94137 17.2922 9.04711 17.3748C9.15285 17.4574 9.25935 17.4657 9.25935 17.4657L16.5806 8.04619L15.387 7.65479L7.72852 13.3681Z" fill="#BED6E8"/>
<path d="M9.527 14.1367L9.15723 17.3737C9.15723 17.3737 9.15555 17.451 9.26242 17.4693C9.36929 17.4876 9.46914 17.3735 9.46914 17.3735L11.512 15.5781L9.527 14.1367Z" fill="#9DBFD6"/>
<path d="M4.48744 11.4064C4.48744 11.4064 4.18575 11.5585 4.20074 11.8218C4.21572 12.0852 4.48741 12.2266 4.48741 12.2266L7.72852 13.3682L15.1782 8.56307C15.1782 8.56307 15.3223 8.50014 15.3915 8.58405C15.4606 8.66796 15.3387 8.77962 15.3387 8.77962L9.52733 14.1367L14.4942 17.8309C14.4942 17.8309 14.7587 18.0228 15.0507 17.9979C15.3426 17.9729 15.5012 17.5889 15.5012 17.5889L15.6858 16.9307L16.3235 14.3281L16.8399 11.9582L17.135 10.4972L17.5359 8.13832L17.6869 7.23555C17.6869 7.23555 17.7922 6.85677 17.5253 6.68422C17.2584 6.51167 16.8846 6.65803 16.8846 6.65803L4.48744 11.4064Z" fill="#F1F7FC"/>
<defs>
<linearGradient id="paint0_linear_525_54512" x1="-14.4" y1="24" x2="-14.4" y2="0" gradientUnits="userSpaceOnUse">
<stop stop-color="#197CF1"/>
<stop offset="1" stop-color="#20BCFA"/>
</linearGradient>
<linearGradient id="paint1_linear_525_54512" x1="9" y1="9.00009" x2="24" y2="24.0001" gradientUnits="userSpaceOnUse">
<stop stop-color="#292C2F"/>
<stop offset="1" stop-color="#292C2F" stop-opacity="0"/>
</linearGradient>
</defs>
</svg>
