<svg width="17" height="17" viewBox="0 0 17 17" fill="none" xmlns="http://www.w3.org/2000/svg">
<path d="M8.49992 2.0835C12.1819 2.0835 15.1666 5.06816 15.1666 8.75016C15.1666 12.4322 12.1819 15.4168 8.49992 15.4168C4.81792 15.4168 1.83325 12.4322 1.83325 8.75016C1.83325 5.06816 4.81792 2.0835 8.49992 2.0835ZM8.49992 3.41683C7.08543 3.41683 5.72888 3.97873 4.72868 4.97893C3.72849 5.97912 3.16659 7.33567 3.16659 8.75016C3.16659 10.1647 3.72849 11.5212 4.72868 12.5214C5.72888 13.5216 7.08543 14.0835 8.49992 14.0835C9.91441 14.0835 11.271 13.5216 12.2712 12.5214C13.2713 11.5212 13.8333 10.1647 13.8333 8.75016C13.8333 7.33567 13.2713 5.97912 12.2712 4.97893C11.271 3.97873 9.91441 3.41683 8.49992 3.41683ZM8.49992 4.75016C8.66321 4.75018 8.82081 4.81013 8.94283 4.91864C9.06486 5.02715 9.14281 5.17666 9.16192 5.33883L9.16659 5.41683V8.47416L10.9713 10.2788C11.0908 10.3988 11.1602 10.5598 11.1654 10.7291C11.1706 10.8984 11.1111 11.0633 10.9991 11.1903C10.8871 11.3174 10.7309 11.397 10.5623 11.4131C10.3937 11.4292 10.2252 11.3804 10.0913 11.2768L10.0286 11.2215L8.02859 9.2215C7.92497 9.11779 7.85843 8.98283 7.83925 8.8375L7.83325 8.75016V5.41683C7.83325 5.24002 7.90349 5.07045 8.02851 4.94543C8.15354 4.8204 8.32311 4.75016 8.49992 4.75016Z" fill="#F1F5F9"/>
</svg>
