<svg width="24" height="24" viewBox="0 0 24 24" fill="none" xmlns="http://www.w3.org/2000/svg">
<path fill-rule="evenodd" clip-rule="evenodd" d="M22 2.96385H21.0361V2C21.5685 2 22 2.43153 22 2.96385ZM21.0361 2.96385C22 2.96385 22 2.96385 22 2.96385V2.965L22 2.97081L21.9999 2.98408L21.9993 3.02908C21.9987 3.06712 21.9975 3.1211 21.9952 3.18976C21.9906 3.32702 21.9815 3.52323 21.9635 3.76838C21.9277 4.25812 21.8564 4.94624 21.7142 5.75184C21.4316 7.35351 20.8607 9.46705 19.694 11.4116C19.1953 12.2426 18.4769 13.0219 17.6599 13.7333C17.6617 13.7577 17.6627 13.7824 17.6627 13.8072H17.5744C17.6629 13.8073 17.6627 13.8072 17.6627 13.8072V13.8083L17.6627 13.8098L17.6626 13.8142L17.6626 13.8284L17.662 13.8779C17.6614 13.92 17.6603 13.9799 17.658 14.0553C17.6534 14.2059 17.6444 14.4191 17.6264 14.6763C17.5907 15.1878 17.519 15.8862 17.3729 16.6167C17.2285 17.3387 17.0022 18.1406 16.6357 18.8327C16.2737 19.5165 15.7094 20.2132 14.8349 20.5047C13.6652 20.8946 12.5091 21.0859 11.6546 21.1808C11.225 21.2286 10.8657 21.2526 10.6114 21.2647C10.4841 21.2708 10.3827 21.2739 10.3116 21.2754C10.2761 21.2762 10.248 21.2766 10.228 21.2769L10.2042 21.2771L10.1969 21.2771L10.1931 21.2771C10.1931 21.2771 10.1928 21.2771 10.1928 20.3132L10.1931 21.2771C9.75084 21.2771 9.36498 20.9761 9.25771 20.547L8.59957 17.9144L6.08556 15.4004L3.453 14.7423C3.02393 14.635 2.72292 14.2495 2.72292 13.8072H3.68677C2.72292 13.8072 2.72292 13.8072 2.72292 13.8072L2.72292 13.8056L2.72292 13.8031L2.72295 13.7958L2.72315 13.772C2.72336 13.752 2.72378 13.7239 2.72457 13.6884C2.72615 13.6173 2.72924 13.5159 2.7353 13.3886C2.74741 13.1343 2.77143 12.775 2.81917 12.3454C2.91411 11.4909 3.10535 10.3348 3.49527 9.16507C3.78676 8.29059 4.48347 7.72627 5.16727 7.36426C5.85945 6.99782 6.66132 6.77154 7.38328 6.62715C8.11379 6.48104 8.81223 6.40925 9.32375 6.37357C9.5809 6.35563 9.79414 6.34659 9.94475 6.34202C10.0201 6.33974 10.08 6.33857 10.1221 6.33797L10.1716 6.33743L10.1858 6.33736L10.1902 6.33735L10.1917 6.33734C10.1917 6.33734 10.1925 6.33734 10.1926 6.42583L10.1928 6.33734C10.2176 6.33734 10.2423 6.33829 10.2667 6.34014C10.9781 5.52309 11.7574 4.80468 12.5885 4.30603C14.5329 3.13933 16.6465 2.5684 18.2482 2.28575C19.0538 2.14359 19.7419 2.07229 20.2316 2.03646C20.4768 2.01852 20.673 2.00941 20.8102 2.00478C20.8789 2.00247 20.9329 2.00127 20.9709 2.00066L21.0159 2.0001L21.0292 2.00002L21.0335 2L21.035 2H21.0361C21.0361 2 21.0361 2 21.0361 2.96385ZM15.6362 15.2591C15.0233 15.6664 14.4083 16.0361 13.8297 16.3632C12.7615 16.967 11.7652 17.4534 11.0363 17.7889C10.8795 17.8611 10.7348 17.9265 10.6041 17.9846L10.9362 19.3128C11.0871 19.301 11.2569 19.2855 11.4418 19.2649C12.2139 19.1791 13.2264 19.0089 14.2253 18.6759C14.4352 18.606 14.6841 18.3991 14.9321 17.9308C15.1755 17.4709 15.3559 16.8721 15.4826 16.2387C15.5501 15.901 15.5998 15.5672 15.6362 15.2591ZM9.69162 16.2803C9.84593 16.2125 10.0271 16.1314 10.2303 16.0378C10.9246 15.7182 11.8711 15.2559 12.8812 14.685C14.9548 13.5129 17.0985 11.9905 18.041 10.4198C19.0429 8.7498 19.5564 6.88745 19.8159 5.41683C19.9125 4.86938 19.9728 4.38281 20.0104 3.98963C19.6172 4.02723 19.1306 4.08752 18.5832 4.18413C17.1126 4.44365 15.2502 4.95705 13.5802 5.95902C12.0095 6.90149 10.4871 9.0452 9.31502 11.1188C8.74411 12.1289 8.28179 13.0754 7.96216 13.7697C7.86863 13.9729 7.78753 14.1541 7.71971 14.3084L9.69162 16.2803ZM6.01545 13.3959C6.07355 13.2652 6.13887 13.1205 6.21107 12.9637C6.54656 12.2348 7.03303 11.2385 7.63683 10.1703C7.96386 9.59169 8.33359 8.97666 8.74086 8.3638C8.43278 8.40024 8.09897 8.44989 7.76134 8.51742C7.12788 8.64411 6.52915 8.82446 6.06922 9.06795C5.60091 9.31588 5.39401 9.56481 5.32405 9.77467C4.99108 10.7736 4.82088 11.7862 4.73509 12.5582C4.71455 12.7431 4.69899 12.9129 4.68721 13.0638L6.01545 13.3959ZM4.25527 17.1932C4.56109 17.1435 4.87213 17.2439 5.09121 17.463L6.53699 18.9088C6.75607 19.1279 6.85648 19.4389 6.80685 19.7447C6.75722 20.0506 6.56361 20.3139 6.28649 20.4524L3.39493 21.8982C3.02386 22.0838 2.57569 22.011 2.28233 21.7177C1.98897 21.4243 1.91625 20.9761 2.10178 20.6051L3.54756 17.7135C3.68612 17.4364 3.94945 17.2428 4.25527 17.1932ZM14.8916 8.6265C14.8916 8.36034 15.1073 8.14457 15.3735 8.14457C15.6396 8.14457 15.8554 8.36034 15.8554 8.6265C15.8554 8.89266 15.6396 9.10843 15.3735 9.10843C15.1073 9.10843 14.8916 8.89266 14.8916 8.6265ZM15.3735 6.21686C14.0427 6.21686 12.9638 7.29569 12.9638 8.6265C12.9638 9.9573 14.0427 11.0361 15.3735 11.0361C16.7043 11.0361 17.7831 9.9573 17.7831 8.6265C17.7831 7.29569 16.7043 6.21686 15.3735 6.21686Z" fill="#F8FAFC"/>
</svg>
