<svg width="24" height="24" viewBox="0 0 24 24" fill="none" xmlns="http://www.w3.org/2000/svg">
<path d="M2 20V10C2 9.46957 2.21086 8.96101 2.58594 8.58594C2.96101 8.21087 3.46957 8 4 8H5V4L5.00488 3.89746C5.05621 3.39333 5.48232 3 6 3H7V2C7 1.44772 7.44772 1 8 1C8.55228 1 9 1.44772 9 2V3H10L10.1025 3.00488C10.6067 3.05621 11 3.48232 11 4V20C11 20.5304 10.7891 21.039 10.4141 21.4141C10.039 21.7891 9.53043 22 9 22H4C3.46957 22 2.96101 21.7891 2.58594 21.4141C2.21086 21.039 2 20.5304 2 20ZM20 15C20 14.4696 19.7891 13.961 19.4141 13.5859C19.039 13.2109 18.5304 13 18 13V17C18 17.5523 17.5523 18 17 18C16.4477 18 16 17.5523 16 17V13C15.4696 13 14.961 13.2109 14.5859 13.5859C14.2109 13.961 14 14.4696 14 15V20H20V15ZM16 11H18V10H16V11ZM7 8H9V5H7V8ZM22 21C22 21.5523 21.5523 22 21 22H13C12.4477 22 12 21.5523 12 21V15C12 13.9391 12.4217 12.922 13.1719 12.1719C13.4211 11.9227 13.7 11.7104 14 11.5371V9C14 8.44772 14.4477 8 15 8H16V6C16 5.44772 16.4477 5 17 5C17.5523 5 18 5.44772 18 6V8H19C19.5523 8 20 8.44772 20 9V11.5371C20.3 11.7104 20.5789 11.9227 20.8281 12.1719C21.5783 12.922 22 13.9391 22 15V21ZM4 20H9V10H4V20Z" fill="currentColor"/>
</svg>
