<svg width="24" height="24" viewBox="0 0 24 24" fill="none" xmlns="http://www.w3.org/2000/svg">
<path d="M19.5 1L18.41 3.41L16 4.5L18.41 5.59L19.5 8L20.6 5.59L23 4.5L20.6 3.41M12 2C6.5 2 2 6.5 2 12V20C2 21.1046 2.89543 22 4 22H20C21.1046 22 22 21.1046 22 20V12C22 10.53 21.67 9.13 21.1 7.87L19.86 10.57C19.95 11.04 20 11.5 20 12C20 16.43 16.43 20 12 20C7.57 20 4 16.43 4 12V11.86C5.28875 11.3825 6.46435 10.6427 7.45239 9.68733C8.44043 8.73199 9.2194 7.58195 9.74 6.31C10.8203 7.63793 12.2235 8.66629 13.815 9.29663C15.4066 9.92696 17.1334 10.1382 18.83 9.91L17.96 8H17.5C14.68 8 12.1 6.5 10.66 4.12C11.1 4.05 11.54 4 12 4C12.5 4 12.96 4.05 13.42 4.13L16.13 2.91C14.8349 2.31273 13.4261 2.00232 12 2ZM8.09 5C7.46069 6.90273 6.14996 8.50553 4.41 9.5C5.04 7.57 6.37 6 8.09 5ZM9 11.75C8.66848 11.75 8.35054 11.8817 8.11612 12.1161C7.8817 12.3505 7.75 12.6685 7.75 13C7.75 13.3315 7.8817 13.6495 8.11612 13.8839C8.35054 14.1183 8.66848 14.25 9 14.25C9.33152 14.25 9.64946 14.1183 9.88388 13.8839C10.1183 13.6495 10.25 13.3315 10.25 13C10.25 12.6685 10.1183 12.3505 9.88388 12.1161C9.64946 11.8817 9.33152 11.75 9 11.75ZM15 11.75C14.6685 11.75 14.3505 11.8817 14.1161 12.1161C13.8817 12.3505 13.75 12.6685 13.75 13C13.75 13.3315 13.8817 13.6495 14.1161 13.8839C14.3505 14.1183 14.6685 14.25 15 14.25C15.3315 14.25 15.6495 14.1183 15.8839 13.8839C16.1183 13.6495 16.25 13.3315 16.25 13C16.25 12.6685 16.1183 12.3505 15.8839 12.1161C15.6495 11.8817 15.3315 11.75 15 11.75ZM4 17.97C4.58 18.74 5.26 19.42 6.03 20H4M20 17.97V20H17.97C18.74 19.42 19.42 18.74 20 17.97Z" fill="#CBD5E1"/>
</svg>
