<svg xmlns="http://www.w3.org/2000/svg" fill="none" viewBox="0 0 40 40"><path fill="#e0e7ff" d="M0 20a20 20 0 1 1 40 0 20 20 0 0 1-40 0"/><path fill="#4338ca" d="M20 29q-.45 0-.86-.16a2 2 0 0 1-.74-.49l-5.5-5.52a1 1 0 0 1-.24-.73 1 1 0 0 1 .37-.67q.32-.28.73-.25a1 1 0 0 1 .69.35l5.38 5.4.08.06.09.01.09-.01.09-.06 6.67-6.7a4 4 0 0 0 .88-1.37q.3-.78.3-1.61-.05-1.72-1.15-2.96t-2.75-1.24q-.78 0-1.5.3t-1.23.88l-.67.72a1 1 0 0 1-.33.24 1 1 0 0 1-.8 0 1 1 0 0 1-.35-.24l-.67-.72a4 4 0 0 0-1.23-.9 3.5 3.5 0 0 0-1.5-.33q-1.35 0-2.34.86A4.3 4.3 0 0 0 12.17 16a1 1 0 0 1-.47.61 1 1 0 0 1-.75.09 1 1 0 0 1-.61-.47 1 1 0 0 1-.1-.76 6.5 6.5 0 0 1 2.07-3.18Q13.82 11 15.85 11q1.2 0 2.26.48A6 6 0 0 1 20 12.8a6 6 0 0 1 1.86-1.32 5.5 5.5 0 0 1 2.27-.48q2.5 0 4.18 1.85t1.69 4.4q0 1.23-.42 2.35a6 6 0 0 1-1.28 2l-6.72 6.75q-.33.33-.73.49T20 29m-.12-9H11a1 1 0 0 1-.71-.29A1 1 0 0 1 10 19q0-.42.29-.71A1 1 0 0 1 11 18h12.88a1 1 0 0 0 .7-.29 1 1 0 0 0 .3-.71 1 1 0 0 0-.3-.71 1 1 0 0 0-.7-.29q-.18 0-.34.05a1 1 0 0 0-.29.15 1 1 0 0 1-.72.19 1 1 0 0 1-.65-.39 1 1 0 0 1-.2-.74 1 1 0 0 1 .37-.66q.4-.3.86-.45.47-.15.97-.15 1.25 0 2.12.87t.88 2.13-.88 2.13a3 3 0 0 1-2.12.87H22.7q.08.25.13.49t.05.51q0 1.25-.88 2.13a3 3 0 0 1-2.12.87q-.5 0-.97-.17a4 4 0 0 1-.86-.45 1 1 0 0 1-.37-.65 1 1 0 0 1 .2-.73 1 1 0 0 1 .65-.39 1 1 0 0 1 .72.19q.13.1.29.15t.34.05a1 1 0 0 0 .7-.29 1 1 0 0 0 .3-.71 1 1 0 0 0-.3-.71 1 1 0 0 0-.7-.29"/></svg>