<svg width="512" height="512" viewBox="0 0 512 512" fill="none" xmlns="http://www.w3.org/2000/svg">
    <path d="M300.735 13.3076C308.875 3.46496 318.929 -1.36539 329.397 0.335725C338.203 1.77082 346.714 8.14127 352.064 18.901C355.836 26.4895 357.659 36.2273 356.502 45.629C355.815 51.2013 353.81 56.0385 351.601 60.5328C363.17 71.3416 374.458 83.4595 377.543 104.748C379.478 118.098 377.395 131.455 372.214 142.6C365.568 156.909 354.665 167.605 344.345 175.096C371.955 194.781 392.196 222.23 406.05 263.743C405.784 266.256 405.405 268.069 404.669 270.358C410.418 295.014 415.978 323.66 408.091 348.918C404.894 359.145 399.362 366.167 392.273 369.856C385.283 373.489 375.825 375.001 369.066 369.457C364.327 365.565 362.819 358.417 361.592 351.004C359.496 338.277 358.655 325.368 355.892 312.858C356.839 370.794 355.556 404.229 333.793 454.1C345.102 460.134 364.123 467.562 369.487 485.147C370.363 488.01 370.623 490.999 369.915 494.024C368.358 500.618 363.247 504.37 359.124 506.379C342.227 514.612 293.653 514.444 277.647 501.563C275.228 499.617 272.851 497.146 272.066 492.987C269.871 481.402 272.038 465.721 272.199 453.82C272.367 441.947 271.771 429.871 271.449 418.005C262.257 419.497 252.953 418.558 243.74 417.83C242.836 429.031 242.044 440.288 242.142 451.587C242.247 463.607 243.853 477.18 242.514 488.99C242.086 492.721 241.287 494.724 239.372 497.104C225.722 514.031 182.371 511.987 165.187 508.711C159.536 507.633 151.403 505.357 147.631 498.294C146.067 495.361 145.092 492.365 145.401 488.507C146.067 479.946 152.069 472.854 156.556 468.591C162.852 462.612 170.038 458.776 176.973 454.8C163.399 419.364 160.868 403.976 155.623 364.123C154.382 356.485 155.974 346.447 153.106 339.915C152.146 349.814 151.62 361.064 146.018 367.847C140.535 374.477 131.351 373.776 124.746 372.362C117.307 370.766 110.513 366.048 106.012 356.786C98.9797 342.323 99.211 321.672 101.23 304.752C102.065 297.723 108.354 271.94 107.646 268.524C106.706 264.037 107.099 263.036 108.557 259.046C122.495 220.83 142.625 190.721 169.478 173.416C155.834 165.267 141.285 152.106 135.27 130.958C132.052 119.659 132.437 107.52 135.655 96.3264C142.498 72.5317 150.169 75.08 158.82 59.987C158.575 59.2309 158.323 58.4749 158.084 57.7118C154.985 47.9461 154.824 37.8233 157.383 27.6866C160.04 17.1439 165.341 9.70241 172.191 5.28511C181.516 -0.7213 192.425 -1.26038 201.89 4.361C205.319 6.39114 208.418 9.26137 211.236 12.7966C238.503 -0.322286 273.931 -4.7676 300.735 13.3076Z" fill="currentColor" fill-opacity="0.8"/>
</svg>
