<svg width="222" height="512" viewBox="0 0 222 512" fill="none" xmlns="http://www.w3.org/2000/svg">
    <path d="M49.4516 115.928C41.4548 107.084 37.1505 96.1464 33.6311 86.1503C27.3856 68.3993 17.4645 17.9563 32.7153 3.33473C34.551 1.57426 38.1886 0.506274 41.2691 0.149703C46.3921 -0.443261 51.2281 0.780015 55.254 2.85187C82.8818 17.0715 92.6932 66.6631 97.4153 88.2327C107.893 86.5086 116.266 87.0996 126.664 88.5526C128.731 82.3987 129.689 76.0433 131.272 69.8237C134.167 57.9206 138.327 46.1692 143.725 34.6594C148.481 24.6948 157.528 6.29808 172.88 1.3737C176.661 0.161507 181.134 -0.366502 185.127 0.708607C189.773 1.95949 192.49 5.09183 194.157 8.07617C198.605 16.0628 199.2 25.8895 199.36 34.3188C199.905 62.7015 192.676 91.0295 175.429 117.079C186.502 131.709 189.642 147.897 194.913 163.663C196.288 167.777 199.154 171.588 201.306 175.536C206.349 184.782 206.973 195.853 203.441 205.386C198.672 218.259 186.987 229.71 169.939 236.629C200.778 250.797 213.746 285.712 220.27 309.072L216.763 314.105C224.46 334.618 225.089 387.188 208.914 405.092C206.349 407.929 202.745 410.994 197.571 411.672C195.529 411.942 193.165 411.803 191.511 410.888C188.173 409.042 187.557 405.012 186.916 402.378L185.797 399.966C184.548 401.707 184.924 404.275 184.548 406.209C184.253 416.524 185.051 434.127 181.096 443.536C178.987 444.927 178.1 444.648 175.21 444.762C171.399 449.349 173.188 465.464 173.133 471.289C184.493 478.965 200.187 488.26 202.652 499.523C203.234 502.162 202.77 504.982 200.246 507.149C196.9 510.019 191.153 510.968 185.996 511.339C171.319 512.392 141.67 511.246 129.93 504.463C120.971 499.291 127.934 477.368 128.145 469.923C128.368 462.163 127.584 454.217 126.837 446.469C125.609 445.74 126.128 445.884 124.769 445.593C122.87 445.188 121.604 445.095 120.165 444.071C116.359 441.361 117.658 416.689 117.591 411.63L108.484 410.467C108.007 418.859 108.948 437.343 105.446 444.278C103.526 445.829 101.137 446.044 98.3563 446.524C97.352 454.559 96.0607 463.002 96.221 471.057C96.3982 480.023 104.809 495.986 96.0269 503.92C90.4397 508.97 74.6066 510.786 65.7531 511.41C54.9375 512.173 34.302 513.067 25.609 507.954C22.5833 506.171 21.2582 503.658 21.2498 501.007C21.2245 489.056 40.7838 479.037 52.0721 471.361C52.1818 467.053 53.9669 449.07 50.7302 446.444C49.2786 446.41 47.2319 446.499 45.8646 446.208C43.8475 445.778 42.8263 444.851 42.2904 443.54C37.9058 432.829 40.8935 384.917 36.6145 380.241C32.7491 376.013 35.0616 365.189 35.2009 360.089C31.635 360.078 27.8877 360.166 24.3514 359.871C18.1059 359.348 12.2065 356.539 8.53937 353.231C-5.36952 340.694 1.21354 322.177 4.13373 308.183C3.16737 306.943 1.63976 305.365 1.66086 303.95C1.7115 300.501 4.9482 295.611 6.57709 292.225C16.5192 271.515 29.6179 249.81 54.0428 234.802C40.9653 230.822 31.5422 221.176 26.1702 212.604C21.0767 204.486 18.836 195.702 19.6082 186.92C20.4775 178.16 25.5626 172.611 28.9047 164.574C31.8756 157.427 33.323 149.884 35.855 142.641C39.1085 133.317 43.9783 124.74 49.4516 115.928Z" fill="currentColor" fill-opacity="0.8"/>
</svg>
