<svg width="512" height="512" viewBox="0 0 512 512" fill="none" xmlns="http://www.w3.org/2000/svg">
    <path d="M153.395 0.170117C154.376 0.0836735 155.348 -0.00587242 156.331 0.000302122C172.514 0.105269 195.531 27.5511 206.239 38.9339C225.564 34.8278 244.409 33.985 263.376 40.3077C274.994 25.8994 288.756 7.75248 306.924 1.50693C310.931 0.130007 315.375 -0.292982 319.227 1.78166C324.125 4.4151 326.536 10.1111 327.921 15.2298C333.004 33.9943 331.483 67.3615 321.796 84.5174C330.574 97.6383 333.266 113.303 332.042 128.857C336.443 128.743 344.656 125.834 348.455 127.366C349.205 127.668 349.828 128.993 350.075 129.768C350.611 131.462 350.201 132.355 349.479 133.883C345.183 137.35 337.513 136.961 332.196 137.279C331.628 139.922 330.867 142.533 330.176 145.145C335.567 146.886 340.816 149.267 345.899 151.755C345.032 153.774 344.394 155.614 342.75 157.118C338.336 158.782 331.857 154.722 327.594 153.123C326.425 156.12 325.142 158.908 323.474 161.668C325.941 163.721 328.569 165.611 330.944 167.769C333.035 169.67 334.441 171.331 334.574 174.255C334.006 175.99 333.584 176.685 332.196 177.87C328.359 177.633 322.623 170.905 319.714 168.167C310.286 180.64 297.219 189.441 281.782 192.09C288.025 193.378 293.767 195.755 299.183 199.114C325.386 215.353 341.3 247.667 348.042 276.793L344.829 280.17C346.207 289.191 348.588 298.11 350.102 307.131C353.122 325.124 356.598 359.247 349.797 375.669C347.928 380.176 344.841 384.047 340.196 385.838C336.181 387.388 331.576 387.749 327.588 385.943C323.07 383.896 320.189 379.429 318.536 374.915C314.113 362.826 314.641 347.303 313.296 334.481C312.599 327.804 311.245 321.228 310.024 314.633C309.37 311.12 309.16 307.137 307.868 303.828C305.179 306.844 315.236 375.616 315.205 386.11C315.199 388.731 315.273 391.549 313.093 393.393C309.749 396.221 303.985 395.365 299.926 395.291C308.065 403.963 319.03 410.82 331.2 411.305C358.649 412.398 360.854 372.646 377.888 357.068C380.599 354.586 385.561 351.032 389.435 351.338C391.649 351.514 393.941 352.523 395.316 354.308C396.994 356.487 397.29 359.365 396.763 361.989C395.233 369.608 387.667 375.706 383.818 382.349C374.662 398.147 372.623 414.858 356.129 426.108C344.606 433.969 332.742 433.928 319.548 431.527C311.106 429.467 303.831 425.324 296.904 420.19C293.875 436.886 293.792 454.283 289.527 470.784C299.195 477.298 310.965 482.136 317.503 492.37C319.276 495.152 320.399 498.369 319.517 501.66C318.761 504.482 316.689 506.556 314.191 507.943C302.042 514.688 272.49 511.857 259.66 507.841C255.86 506.649 251.49 504.642 249.698 500.83C246.133 493.241 250.142 480.759 252.699 473.303C251.117 466.7 250.475 459.636 249.538 452.906C247.175 435.877 245.537 418.606 242.833 401.651C236.772 402.204 230.78 402.275 224.704 402.296C223.769 414.117 222.104 425.994 220.679 437.769C219.384 448.488 218.937 460.849 215.217 470.997C217.117 480.475 219.994 493.229 216.704 502.487C216.59 502.602 216.475 502.716 216.361 502.833C215.485 503.741 214.616 504.682 213.616 505.46C204.623 512.481 173.701 512.527 162.901 510.755C158.126 509.971 152.029 508.505 149.185 504.201C147.659 501.885 147.539 499.184 148.263 496.566C151.517 484.813 167.092 477.215 176.835 471.655C171.231 451.622 170.241 417.208 168.841 395.554C164.646 395.128 156.791 394.467 154.012 391.015C148.96 384.733 157.716 341.301 159.123 332.197C150.798 332.441 142.416 332.567 134.428 329.853C116.608 323.796 111.358 305.328 115.173 288.333C115.997 284.668 119.278 277.188 118.689 273.73C118.384 271.946 116.601 269.309 115.778 267.664C118.264 261.125 121.598 254.648 124.935 248.498C134.986 229.968 150.336 209.265 169.18 199.064C175 195.915 181.072 194.038 187.383 192.167C170.281 187.814 156.43 178.815 147.147 163.66C142.672 166.982 135.535 173.576 129.903 173.542C128.793 173.536 128.704 173.06 127.994 172.322C128 172.202 127.994 172.082 128.019 171.967C129.499 165.036 137.885 160.421 143.335 156.627C142.447 153.824 141.54 151.03 140.612 148.239C138.986 149.032 137.318 149.64 135.603 150.208C130.97 151.74 123.217 154.246 118.717 151.733C117.521 151.067 117.746 150.937 117.36 149.73C117.733 148.893 117.761 148.748 118.329 147.911C121.656 143.003 133.749 141.119 139.384 139.705L137.999 133.423C132.352 132.694 124.848 132.873 119.649 130.635C117.783 129.829 117.113 128.832 116.419 126.989C116.614 125.384 116.817 124.17 118.088 123.037C121.807 119.731 132.92 122.858 137.623 123.633C138.505 109.762 141.173 98.2959 147.23 85.7863C138.616 67.1577 134.847 34.4481 141.503 14.6556C143.748 7.9778 147.042 3.26974 153.395 0.170117Z" fill="currentColor" fill-opacity="0.8"/>
</svg>
