<svg width="84" height="149" viewBox="0 0 84 149" fill="none" xmlns="http://www.w3.org/2000/svg">
    <path opacity="0.9" d="M36.269 0.0764116C37.0547 0.0273289 37.8421 0.00162519 38.6294 6.70103e-05C42.8734 -0.0104507 46.905 1.2166 49.9434 4.06963C52.6031 6.567 54.0801 9.92295 54.7911 13.3358C56.3587 20.8567 55.0841 32.6841 54.7247 40.6604C54.4704 46.3107 54.4938 51.9397 54.5088 57.5939C55.3429 57.9437 56.1604 58.29 56.8246 58.8926C58.4281 60.3472 59.104 62.427 59.1211 64.4686C68.4641 69.3519 75.385 76.8962 79.5267 86.0599C82.229 92.0394 85.826 104.469 82.925 110.732C82.4315 111.796 81.64 112.667 80.4494 113.069C78.9673 113.569 77.8978 113.118 76.5518 112.558C73.9527 119.075 67.5707 123.442 61.4727 126.955C60.3764 130.009 59.2184 132.516 57.2813 135.204L57.2295 140.754C60.8457 143.228 66.3104 142.379 70.238 144.429C71.0074 144.831 71.9413 145.464 72.1145 146.33C72.1988 146.752 72.0799 147.152 71.8356 147.508C71.3021 148.286 70.3945 148.583 69.4606 148.734C67.438 149.061 65.1665 148.784 63.105 148.805C59.4751 148.84 55.4861 149.209 51.8929 148.832C51.0321 148.742 50.1212 148.526 49.4165 148.035C48.6634 147.51 48.3069 146.748 48.3574 145.877C48.45 144.282 49.7133 143.066 50.2769 141.615C51.473 138.536 50.2464 134.029 49.8369 130.884C45.0126 131.752 39.9916 132.184 35.0888 131.664C33.6686 131.513 32.2521 131.184 30.8289 130.998C30.4511 131.275 30.5029 131.711 30.4282 132.144C29.9042 134.893 29.0764 138.978 30.1 141.701C30.6511 143.167 31.9377 144.591 31.9156 146.204C31.9073 146.823 31.6543 147.379 31.1729 147.805C30.4854 148.412 29.503 148.697 28.5829 148.809C25.6068 149.169 22.2699 148.804 19.2628 148.79C16.7488 148.778 14.178 149.008 11.6728 148.827C10.4162 148.736 9.10655 148.51 8.32546 147.486C8.04116 147.113 7.87751 146.733 7.99816 146.272C8.86692 142.949 19.8264 142.509 22.884 141.028C23.6926 139.862 23.1821 136.326 23.1458 134.899C21.1815 132.371 20.1216 129.989 19.0858 127.037C13.4391 124.25 8.26118 120.465 4.71224 115.449C-0.234398 108.458 -0.888591 99.5818 0.920737 91.5408C3.46858 80.2175 10.5781 70.8302 20.9043 64.5188C21.2032 63.4554 21.5961 62.4028 22.1801 61.4446C23.3507 59.5237 24.9576 58.3975 27.2157 57.7883C29.0104 52.6525 32.01 38.7952 30.7521 33.7834C30.5914 33.1422 30.3472 32.5878 29.7109 32.2369C27.2595 30.884 13.6132 33.254 10.4028 31.2369C9.72108 30.8084 9.20716 30.1142 9.07775 29.3499C8.55173 26.2418 19.6515 21.7273 22.0252 19.482C22.4289 19.0998 22.6799 18.7313 22.8009 18.1973C23.033 17.1732 22.8995 15.9913 22.9312 14.9438C23.0322 11.5844 23.8559 8.22687 26.0134 5.47512C28.5074 2.29487 32.1699 0.663845 36.269 0.0764116Z" fill="currentColor" fill-opacity="0.8"/>
</svg>
