<svg width="512" height="512" viewBox="0 0 512 512" fill="none" xmlns="http://www.w3.org/2000/svg">
<path d="M225.411 0.365415C229.108 -0.18169 232.832 -0.489404 236.208 2.28032C242.054 7.09485 243.848 18.3721 245.621 27.2899C249.564 23.9663 253.527 20.6836 257.695 18.0165C264.502 13.667 275.6 7.31369 282.728 12.1966C286.364 14.6859 287.435 19.61 288.806 24.7459L289.365 26.8932C299.065 29.3484 309.133 25.3203 318.785 29.6698C322.161 31.1949 324.33 33.2738 325.967 37.9789C325.715 41.7676 324.971 43.1423 323.341 45.8436C323.157 46.1445 322.966 46.4386 322.782 46.7395C329.61 48.3193 337.379 47.102 342.938 54.4606C345.107 57.326 346.322 61.0258 346.451 65.389C346.731 75.0317 342.495 89.3591 338.423 96.5741C345.783 104.89 354.316 113.24 360.346 123.738C362.815 128.046 364.247 131.548 363.934 137.374C361.601 142.114 359.759 142.333 356.062 143.29C358.34 146.819 360.789 150.307 362.61 154.41C366.191 162.452 368.886 172.971 367.501 182.661C366.075 185.342 365.577 186.751 363.136 187.25C359.67 187.968 355.509 183.037 352.686 180.432C358.654 195.033 361.151 205.346 361.417 222.559C374.622 241.003 383.51 260.856 390.256 286.091C390.12 286.625 388.94 290.592 388.974 291.344C389.11 294.373 391.818 301.144 392.671 304.201C397.8 322.481 401.109 342.867 397.357 362.522C395.242 373.581 389.936 384.461 383.087 389.891C374.37 396.819 365.925 393.475 357.133 389.296L356.076 390.158C356.055 391.156 356.028 392.155 355.987 393.153C355.687 401.059 355.032 409.608 350.707 414.942C348.518 417.643 346.799 418.854 343.989 418.607C342.229 416.344 341.294 414.949 338.955 414.272C332.359 417.13 328.498 427.573 324.637 435.438C323.607 445.799 322.72 455.893 320.313 465.768C327.243 470.022 341.158 478.782 343.982 489.95C344.794 493.157 344.807 495.783 343.702 498.779C341.758 504.072 337.345 506.609 333.655 508.045C319.692 513.455 275.375 512.545 263.923 500.502C255.949 492.125 264.189 468.647 264.734 456.549C265.007 450.517 263.554 443.22 262.743 437.291C257.688 438.118 252.6 438.522 247.531 439.028C242.191 438.857 229.353 435.144 225.076 439.192C217.266 446.578 224.694 478.064 223.064 490.394C222.273 496.378 220.083 500.96 216.543 503.963C204.674 514.05 157.793 513.811 145.201 507.833C142.186 506.404 139.117 504.318 137.705 499.791C136.948 497.349 137.22 494.532 137.95 492.132C142.664 476.696 155.365 469.399 165.214 463.826C162.37 440.929 160.187 417.869 158.673 394.692C155.14 392.962 151.688 390.787 148.237 388.742C143.4 380.631 140.754 371.071 137.937 361.195C137.302 365.805 136.668 370.53 135.624 374.976C134.096 381.459 131.238 387.033 127.03 389.946C120.359 394.562 110.4 394.788 103.572 390.896C97.4875 387.429 93.4836 380.481 91.0962 371.508C84.1796 345.535 89.9571 315.362 96.6145 290.831C95.755 288.882 94.9979 287.001 94.3226 284.895C109.418 242.822 126.17 216.472 155.133 196.441C148.844 191.087 135.188 185.862 131.177 177.354C129.895 174.632 129.567 171.883 130.188 168.676C131.088 164.046 135.952 160.093 138.462 157.46C137.077 150.868 135.358 143.769 135.024 136.841C134.301 121.884 138.435 109.595 144.976 98.865L145.87 97.4289C145.692 93.5924 138.51 81.857 137.275 75.2165C135.679 66.6816 136.723 58.2698 139.847 50.8291C149.969 26.6744 159.839 53.1612 169.955 49.7145C174.696 44.5375 176.435 34.6006 179.675 27.4061C182.062 22.1197 185.316 16.7718 189.736 15.7938C195.139 14.6039 199.968 18.5636 204.135 23.2277C210.888 13.0857 216.182 5.17311 225.411 0.365415Z" fill="currentColor" fill-opacity="0.8"/>
</svg>
