<svg width="512" height="512" viewBox="0 0 512 512" fill="none" xmlns="http://www.w3.org/2000/svg">
<path d="M247.312 0.605323C260.132 -0.83498 274.716 0.334187 286.71 3.69489C310.484 10.3585 328.828 26.6864 336.483 42.7964C338.935 47.9575 339.553 53.4965 342.635 58.5286C347.703 56.7549 353.627 54.3011 359.489 54.3011C366.222 54.3055 372.785 56.5238 377.342 59.76C390.136 68.8508 392.068 85.152 391.322 96.9678C390.469 110.46 384.483 129.197 362.567 133.967C358.495 134.856 346.842 134.86 345.007 135.456C343.506 135.945 342.309 143.235 341.939 144.698C338.523 158.212 330.379 168.347 315.335 177.607C319.889 179.087 324.175 180.91 328.108 183.044C364.77 202.897 374.828 246.644 379.323 276.686C382.915 300.744 387.92 364.584 364.463 382.788C361.408 385.157 357.238 386.9 352.451 387.06C349.959 387.144 347.708 386.7 345.834 385.557C336.494 379.845 339.239 361.726 338.957 353.817C336.848 360.925 334.547 382.761 338.831 388.811C340.617 391.332 343.447 392.972 347.383 393.861C354.707 395.506 362.58 396.008 369.601 393.492C398.978 382.966 393.6 342.49 402.251 323.767C405.431 316.894 410.182 309.021 420.334 305.634C425.175 304.016 430.682 303.491 435.807 304.847C440.123 305.998 443.503 308.323 445.092 311.239C446.265 313.347 446.46 315.658 444.724 317.659C441.344 321.557 435.163 320.899 429.762 322.304C414.632 326.234 412.199 362.406 409.681 372.141C408.046 378.44 405.528 384.73 401.754 390.616C395.803 399.885 385.007 409.198 370.392 412.785C358.663 415.666 346.913 413.954 336.029 410.474C336.171 415.092 338.151 423.792 333.489 427.375C331.532 427.771 329.96 428.06 328.26 428.846C325.804 441.836 326.825 455.234 325.047 468.321C335.889 474.869 347.592 482.302 353.925 491.264C357.42 496.207 359.134 501.07 356.421 506.338C351.86 510.05 344.658 511.104 337.795 511.561C321.375 512.655 291.32 512.184 278.217 504.467C267.991 498.448 277.476 470.366 278.056 461.716C278.756 451.264 278.956 440.129 277.662 429.713C275.252 427.94 272.596 426.157 271.496 423.819C269.122 418.773 270.901 392.083 270.934 385.042L251.501 385.033C250.797 393.608 250.939 419.822 248.394 426.388C247.736 428.086 245.817 428.34 243.712 429.069C241.484 431.505 241.69 463.28 242.487 467.663C244.019 476.087 248.021 483.8 247.902 492.469C247.846 496.545 247.299 501.724 242.575 504.645C230.527 512.095 203.579 512.273 188.216 511.748C180.054 511.468 169.035 510.921 163.417 506.458C160.709 504.307 159.833 501.568 160.364 498.817C162.524 487.619 180.426 477.194 192.73 470.611C192.562 462.845 194.891 434.319 191.346 429.184C189.004 428.606 187.125 428.051 185.067 427.068C183.797 425.739 183.289 424.837 183.155 423.254C181.479 403.437 183.375 383.206 183.278 363.339C183.244 356.551 181.609 349.937 181.14 343.175C180.571 334.973 181.585 326.594 182.159 318.397C176.712 319.921 171.909 320.628 165.969 320.117C157.138 319.357 149.883 316.081 144.784 311.271C132.983 300.139 133.069 282.656 136.896 269.831C138.489 264.492 141.198 259.317 142.559 253.947C139.586 248.555 140.796 246.413 143.215 241.06C153.313 218.727 169.909 189.974 202.247 178.38C182.164 165.893 177.292 151.864 173.479 134.358C171.487 134.691 169.46 135.042 167.422 135.22C159.992 135.869 151.693 134.096 145.835 131.059C133.717 124.787 128.372 112.816 126.822 103.027C124.73 89.8152 125.874 71.7581 139.306 61.0225C143.936 57.3239 150.311 54.5367 157.699 54.3455C165.054 54.1544 170.644 56.3682 175.913 59.5333C179.381 45.9126 185.926 32.5498 198.881 21.5608C210.435 11.7632 228.111 2.08563 247.312 0.605323Z" fill="currentColor" fill-opacity="0.8"/>
</svg>
