<svg width="512" height="512" viewBox="0 0 512 512" fill="none" xmlns="http://www.w3.org/2000/svg">
<path d="M155.25 0C162.909 0.315744 197.367 25.4933 207.298 30.8093C232.792 26.0306 257.738 17.4691 283.973 21.68C295.098 23.4622 306.055 27.0052 317 29.7042C324.093 25.1775 364.622 -0.898641 369.915 0.394695C371.547 0.79241 372.545 1.75175 373.388 3.16653C375.96 7.48371 373.958 14.3147 372.843 18.811C373.173 19.2604 373.508 19.7097 373.818 20.1742C375.895 23.2952 376.061 26.2067 375.23 29.8287C372.979 39.6441 363.002 48.7126 354.862 54.0073C359.532 60.5256 362.925 68.82 365.611 76.328C375.074 102.79 377.436 136.948 364.869 162.818C356.92 179.179 343.701 190.372 326.559 196.226C329.46 197.495 332.453 198.654 335.212 200.218C357.446 212.799 369.792 239.634 376.347 263.124C384.313 291.662 386.189 320.887 384.349 350.366C383.706 360.664 383.016 373.385 377.602 382.469C375.121 386.631 371.527 389.491 366.739 390.523C361.751 391.601 356.106 391.155 351.816 388.213C340.617 380.532 341.876 355.713 339.66 343.295C339.264 368.825 335.817 448.687 323.879 467.015C334.791 475.058 349.937 480.884 355.11 494.692C356.094 497.321 356.379 500.178 355.014 502.731C352.666 507.127 347.979 508.384 343.554 509.644C326.672 512.81 307.914 512.744 291.132 508.903C285.551 507.625 279.13 505.43 276.124 500.187C271.213 491.619 276.396 477.065 278.836 468.209C277.182 466.833 275.408 465.598 273.674 464.326C268.065 449.646 264.924 432.499 262.038 417.064C259.368 429.991 256.705 442.907 253.106 455.618C251.969 459.635 247.798 463.412 247.426 467.316C247.405 467.535 247.404 467.756 247.389 467.975C246.888 475.374 249.282 483.307 249.654 490.821C249.882 495.423 249.777 500.084 246.358 503.605C239.261 510.919 213.259 511.787 203.607 511.942C194.513 512.088 175.713 512.47 169.061 505.548C167.063 503.469 166.219 500.782 166.408 497.934C167.082 487.742 178.842 478.78 186.864 473.892C190.125 471.906 193.825 470.416 196.772 467.984C186.353 433.896 184.447 391.015 181.133 355.318C180.617 349.759 180.144 351.268 176.35 347.856C173.642 345.421 173.871 337.737 173.552 334.109C165.923 334.892 158.537 334.773 151.095 332.715C142.575 330.356 135.562 325.201 131.298 317.392C124.907 305.686 126.636 291.113 130.097 278.787C136.953 254.377 154.599 226.719 173.316 209.794C179.704 204.016 186.897 199.413 194.393 195.209C190.985 194.006 187.651 192.388 184.502 190.621C168.898 181.862 158.362 166.388 153.621 149.395C145.283 119.512 153.053 80.7667 168.09 53.9861C164.487 51.3661 160.866 48.6762 157.764 45.4671C152.214 39.7291 147.87 32.6612 148.146 24.4216C148.21 22.5301 148.663 22.0596 150.002 20.8118C150.118 20.7055 151.064 19.8584 151.185 19.6854C152.439 17.9093 150.376 10.7899 150.444 8.32164C150.548 4.62683 152.628 2.33468 155.25 0Z" fill="currentColor" fill-opacity="0.8"/>
</svg>
