<svg width="512" height="512" viewBox="0 0 512 512" fill="none" xmlns="http://www.w3.org/2000/svg">
<path d="M242.834 0.750959C256.324 -1.06651 270.773 0.457171 283.995 4.8642C307.435 12.6807 332.028 31.8666 345.138 63.0642C354.111 84.4229 359.726 117.431 355.623 142.288C352.24 162.779 342.065 174.422 330.677 184.705C362.241 205.777 389.286 233.087 402.575 282.965C408.018 303.394 412.13 330.144 405.793 351.14C402.766 361.171 397.478 368.29 390.63 372.164C383.867 375.991 375.341 377.398 368.637 372.506C361.948 367.627 360.091 349.009 357.872 338.944C357.268 383.957 355.783 419.248 342.341 460.482C346.377 463.516 350.516 466.461 354.411 469.884C359.31 474.188 366.043 481.54 366.964 490.587C367.333 494.208 366.641 496.866 365.191 499.701C362.159 505.625 355.444 507.73 350.85 508.768C332.855 512.834 286.845 513.995 272.943 498.478C269.828 490.792 270.684 482.545 270.894 473.929C271.181 462.17 270.507 423.873 265.572 415.913C257.666 414.97 249.62 415.695 241.696 415.975C239.902 430.631 236.684 447.733 237.144 462.566C237.421 471.462 241.222 485.148 238.637 493.436C237.263 497.843 233.374 500.72 230.505 502.441C214.316 512.171 164.322 516.264 148.723 506.07C145.808 504.163 142.819 501.082 141.974 496.189C141.448 493.156 141.917 490.341 142.815 487.594C147.595 473 159.09 466.686 168.767 462.136C159.462 434.648 153.279 410.14 152.147 378.901C151.624 364.45 151.895 349.487 150.117 335.241C150.044 334.653 149.96 334.079 149.882 333.499C148.864 340.857 147.94 348.284 146.808 355.602C145.791 362.182 144.247 368.174 140.137 371.645C134.184 376.667 125.854 375.676 119.593 372.574C113.536 369.568 108.746 363.439 105.984 354.803C99.4221 334.277 101.819 307.999 107.031 287.426C120.148 235.676 145.189 206.658 177.904 184.507C173.663 181.746 169.713 178.829 166.006 174.62C157.193 164.61 151.388 150.549 149.867 134.069C147.446 107.838 154.754 77.2965 165.603 56.8739C184.625 21.071 213.412 5.50645 242.834 0.750959Z" fill="currentColor" fill-opacity="0.8"/>
</svg>
