<svg width="512" height="512" viewBox="0 0 512 512" fill="none" xmlns="http://www.w3.org/2000/svg">
<path d="M161.456 0.219995C166.21 -0.220462 170.54 -0.0712398 174.942 1.33038C189.888 6.09335 197.415 19.6258 202.449 29.3226C213.34 23.2162 226.501 18.6412 240.545 16.8771C267.164 13.5338 289.786 19.1042 311.43 29.0827C314.772 23.1616 318.403 17.3798 323.67 12.0871C328.586 7.15054 335.699 1.30828 344.963 0.321426C350.104 -0.226327 355.142 0.992707 359.133 3.12962C371.964 9.9966 376.145 24.8405 378.17 35.0702C382.73 58.0803 377.692 81.0683 356.269 99.7853C361.163 109.528 362.119 120.605 363.301 130.818C369.745 136.253 376.317 141.794 376.141 149.126C376.023 153.917 373.254 156.644 368.329 159.858C363.233 163.181 369.339 173.216 362.453 178.912C360.518 180.513 358.303 181.059 355.34 181.218L352.386 181.391C348.002 181.657 338.175 192.066 334.247 194.628C328.717 198.233 322.525 200.754 315.913 203.376C349.509 218.283 366.579 246.415 375.699 271.634C377.025 275.293 379.825 280.893 379.275 284.646C378.932 286.996 375.293 288.521 375.622 290.993C376.953 300.887 379.226 310.678 380.159 320.611C382.071 341.002 382.035 378.869 365.452 396.101C362.507 399.157 358.182 401.993 352.616 402.638C349.603 402.989 347.064 402.597 344.647 401.294C335.491 396.353 339 377.788 337.679 370.302L337.521 369.451C335.532 379.752 336.213 390.447 335.839 400.821C335.122 414.923 334.247 429.02 333.209 443.113C332.866 448 333.796 455.907 331.441 460.443C330.215 462.805 327.13 462.913 324.636 464.604C324.658 465.073 324.46 465.568 324.703 466.006C325.357 467.182 343.343 478.079 346.749 480.982C353.441 486.69 361.221 495.63 359.431 503.091C358.881 505.394 357.063 507.211 354.113 508.474C339.902 514.564 307.682 510.831 291.721 508.721C286.994 507.766 281.79 506.756 278.055 504.497C266.23 497.338 276.035 474.378 275.449 464.505C274.691 464.112 274.285 463.923 273.622 463.513C271.547 462.232 269.924 460.415 269.328 458.567C267.574 453.121 268.548 445.958 268.296 440.304L266.23 399.369C259.97 399.32 253.728 399.477 247.473 399.631C246.985 413.065 246.192 426.491 245.087 439.903C244.636 446.196 244.997 453.058 243.269 459.248C242.557 461.795 240.387 462.652 237.429 464.058C240.437 473.332 242.336 484.111 241.591 493.551C241.267 497.712 240.329 501.905 235.304 504.727C222.351 512.008 192.734 512.526 176.673 511.715C170.075 511.381 162.318 510.268 157.97 506.625C155.02 504.15 154.222 500.927 154.98 497.861C158.268 484.625 175.077 474.36 190.339 466.759C187.655 464.865 184.525 463.211 181.567 461.502C179.24 450.038 179.01 438.226 178.414 426.667L176.186 372.449C175.974 367.315 172.948 363.381 172.127 358.535C171.018 351.988 173.016 344.315 173.769 337.721C168.51 337.681 163.062 337.691 158.006 336.61C148.521 334.584 141.896 330.148 137.485 324.298C126.282 309.434 131.437 288.276 139.109 273.269C138.883 272.903 138.662 272.534 138.428 272.171C135.293 267.361 137.237 262.621 139.506 257.798C148.589 238.454 167.459 211.758 195.841 201.909C190.799 199.977 185.608 197.752 181.513 194.977C177.255 192.093 170.585 183.961 166.169 182.33C162.539 180.989 158.245 182.066 154.795 179.956C148.621 176.184 149.64 167.815 149.956 162.758C146.063 161.468 141.82 159.94 139.763 157.243C137.418 154.158 136.917 149.545 137.833 146.185C139.371 140.559 146.109 136.365 148.494 130.831C152.919 120.571 153.514 109.626 157.957 99.3169C152.571 96.2621 148.318 92.852 144.967 88.6981C129.895 70.029 130.63 39.9382 139.889 20.1523C143.632 12.1542 149.969 4.22648 161.456 0.219995Z" fill="currentColor" fill-opacity="0.8"/>
</svg>
