<svg width="512" height="512" viewBox="0 0 512 512" fill="none" xmlns="http://www.w3.org/2000/svg">
<g opacity="0.8">
<path d="M256.516 76.8083C270.36 76.5661 283.496 82.186 293.285 91.8475C300.582 99.0505 305.09 107.72 307.197 117.652C311.85 139.574 309.199 165.734 309.171 188.154L309.2 318.962C357.117 304.314 322.884 244.516 343.483 211.596C348.04 204.315 356.102 198.793 364.626 197.185C373.14 195.583 381.733 197.806 388.667 202.865C398.746 210.222 402.877 221.79 404.553 233.629C406.074 244.383 405.544 255.845 405.628 266.697C405.87 297.854 405.926 327.574 385.96 353.523C366.991 378.18 339.993 385.85 310.192 389.667L310.026 430.781C324.794 433.601 340.246 434.335 355.191 436.321C393.141 441.362 445.431 452.112 474.882 477.159C480.485 481.927 487.598 488.652 487.587 496.54C487.581 500.195 485.293 503.777 482.656 506.228C479.119 509.515 473.66 510.241 469.033 510.696C445.243 513.025 420.166 511.524 396.217 511.531L126.832 511.541C95.0471 511.532 63.1607 512.074 31.4205 510.169C29.6668 509.054 27.8928 507.93 26.2557 506.653C22.7816 503.939 20.7317 500.64 20.4116 496.231C20.0266 490.957 24.1927 484.739 27.4479 480.931C59.1555 443.833 157.451 434.825 205.233 431.351L205.228 347.481L203.166 347.061C171.497 340.529 143.661 325.401 125.742 298.046C109.937 273.918 106.716 249.534 106.856 221.347C106.905 211.684 106.973 201.768 109.241 192.312C111.815 181.572 117.089 170.663 127.027 164.808C134.758 160.249 143.632 159.872 152.119 162.441C190.415 174.038 169.182 235.31 184.261 262.91C188.186 270.097 193.424 273.51 201.187 275.747C205.451 274.85 205.607 273.338 205.463 269.126C204.48 240.582 205.192 211.778 205.145 183.203C205.113 163.482 203.344 141.85 206.245 122.414C207.566 113.569 210.273 104.788 215.568 97.4353C224.748 84.6861 237.452 79.622 252.338 77.0643C253.733 76.9052 255.111 76.8337 256.516 76.8083Z" fill="currentColor"/>
</g>
</svg>
