<svg width="512" height="512" viewBox="0 0 512 512" fill="none" xmlns="http://www.w3.org/2000/svg">
<path opacity="0.8" d="M148.262 64C152.076 64.1054 154.592 64.2726 158.021 66.2558C161.226 68.1089 163.492 71.3416 165.51 74.3539C178.059 93.0773 188.669 113.764 200.135 133.207C213.152 155.283 227.664 177.302 239.364 200.057C241.812 204.816 243.715 209.664 245.116 214.835C244.667 216.803 244.247 217.996 242.724 219.457C235.998 225.906 223.57 225.488 214.844 225.739C225.177 246.653 271.915 320.794 273.408 336.971C273.692 340.03 273.252 341.452 271.026 343.706C262.851 351.975 244.992 348.054 234.748 346.971C239.6 360.996 265.227 410.787 265.12 418.488C265.078 421.594 264.079 423.741 261.723 425.801C253.554 432.951 189.844 429.479 176.454 429.422L176.435 471.88C230.186 469.189 282.746 466.194 336.54 471.945C337.096 453.685 336.731 435.316 336.766 417.044C319.863 417.131 302.364 418.11 285.692 415.153C283.585 398.007 279.545 386.206 271.6 370.836C278.788 364.276 287.275 357.666 290.729 348.258C296.49 332.568 282.368 314.972 275.652 301.506C285.59 277.874 302.103 257.263 312.451 233.756C306.265 234.099 299.35 235.105 293.278 233.728C289.007 232.762 286.492 231.412 284.028 227.692C283.486 224.944 283.305 223.023 284.132 220.297C286.907 211.155 341.66 116.618 348.428 107.196C351.34 103.144 354.973 98.3161 359.81 96.4539C362.588 95.3846 364.544 95.0723 367.108 96.6835C370.844 99.0291 374.405 104.674 376.763 108.359C386.055 122.885 434.892 208.66 437.899 220.834C438.585 223.607 437.889 226.209 436.242 228.552C431.757 234.941 422.149 235.304 415.125 236.375C418.263 244.491 422.994 252.189 427.175 259.823C435.697 274.626 458.312 308.598 460.889 323.6C461.51 327.213 461.033 328.848 458.63 331.693C452.272 339.22 437.924 337.824 429.006 338.117C438.585 358.449 453.318 378.406 460.789 399.329C462.402 403.847 462.782 407.013 460.529 411.441C449.395 421.035 401.49 417.054 385.357 416.995L385.359 476.102C409.15 479.859 442.649 482.978 464.096 493.206C468.817 495.457 471.811 497.585 473.6 502.644C473.237 504.657 473.434 505.966 471.881 507.46C467.992 511.202 461.189 511.669 456.039 511.769C430.328 512.263 404.362 511.408 378.614 511.411L190.783 511.456L96.3261 511.553C79.6022 511.567 61.6833 512.904 45.1384 510.884C39.717 510.223 36.3553 508.285 32.4942 504.572C32.0072 501.988 31.396 501.004 33.3092 498.844C44.4327 486.263 105.984 479.293 124.342 476.266C124.099 460.678 124.268 445.062 124.251 429.474C100.716 429.496 76.412 430.814 52.9674 429.504C46.659 429.151 41.3891 428.254 37.0361 423.465C32.7849 411.095 63.7604 363.831 69.1321 347.05L69.7458 345.1C60.3938 344.916 49.2529 346.869 40.3381 343.8C36.7504 342.565 34.5888 340.768 32.8719 337.332C32.0619 318.563 79.4532 243.169 92.1768 223.448C87.4064 223.433 82.6334 223.351 77.863 223.205C72.5609 223.006 65.3083 222.367 61.7554 217.949C60.364 216.217 60.6597 214.072 61.01 211.987C63.5319 197.06 127.749 88.2252 139.876 71.8935C142.224 68.7316 145.134 66.3515 148.262 64Z" fill="currentColor"/>
</svg>
