<svg width="512" height="512" viewBox="0 0 512 512" fill="none" xmlns="http://www.w3.org/2000/svg">
<g opacity="0.8">
<path d="M114.611 181.523C121.594 180.792 128.979 181.138 135.904 182.28C185.29 190.43 224.041 231.018 256.592 265.928C265.863 275.872 276.171 285.855 284.074 296.86C243.265 327.759 207.118 361.566 170.981 397.644C156.884 411.72 140.797 426.368 129.403 442.735C134.524 447.638 140.344 451.741 146.009 455.999C162.67 440.696 177.956 423.48 193.975 407.473C242.403 359.079 316.977 287.706 387.556 276.914C412.377 273.118 437.131 276.654 457.719 291.501C459.562 293.135 461.357 294.823 463.095 296.568C492.898 326.776 487.376 374.582 487.537 413.228C487.634 436.345 488.128 459.514 487.856 482.627C487.772 489.843 487.243 500.751 481.364 505.86C476.965 509.679 470.472 510.75 464.846 511.165C444.652 512.656 423.782 511.7 403.518 511.689L133.713 511.697C103.176 511.699 72.4908 512.328 41.9711 511.338C40.1722 510.284 38.3503 509.218 36.6738 507.977C31.8319 504.396 29.6408 500.467 28.8502 494.573C25.5177 469.728 28.0706 442.489 28.0828 417.393C28.1129 355.678 19.8513 263.011 58.8212 211.602C72.985 192.917 91.7769 184.635 114.611 181.523Z" fill="currentColor"/>
<path d="M353.557 141.038C369.488 140.157 383.743 141.56 398.429 148.18C419.503 157.742 435.858 175.272 443.852 196.867C451.075 216.673 450.168 234.266 441.255 253.348C410.722 250.549 385.094 250.317 355.283 258.48C337.846 264.123 322.225 272.16 306.375 281.153C292.317 268.339 281.547 249.287 278.835 230.452C275.969 210.54 281.784 191.108 293.955 175.179C308.82 155.721 329.394 144.459 353.557 141.038Z" fill="currentColor"/>
</g>
</svg>
