<svg width="512" height="512" viewBox="0 0 512 512" fill="none" xmlns="http://www.w3.org/2000/svg">
<g opacity="0.8">
<path d="M137.614 410.43C176.024 406.791 210.917 416.581 245.363 432.522C260.019 439.306 274.698 446.727 290.896 449.052C308.248 451.544 325.789 447.955 343.035 446.155C382.152 442.075 440.432 451.317 471.145 477.023C476.594 481.581 480.95 487.391 481.276 494.667C481.482 499.265 480.354 504.633 476.75 507.846C474.129 510.183 470.543 510.877 467.153 511.277C455.721 512.62 443.418 511.682 431.877 511.66L364.964 511.514L77.014 511.558C64.0667 511.556 50.7223 512.183 37.8258 511.078C31.648 510.549 26.181 509.715 21.199 505.772C16.8839 502.356 14.6155 497.702 14.1954 492.294C13.3025 480.719 18.7619 468.964 26.0819 460.246C51.3881 430.102 99.4825 414.17 137.614 410.43Z" fill="currentColor"/>
<path d="M429.68 332.12C433.042 332.038 435.032 332.032 437.923 334.079C442.075 337.023 445.488 342.791 448.972 346.585C454.753 352.885 462.08 358.066 467.487 364.599C469.232 366.707 470.265 368.551 470.668 371.284C467.291 378.12 458.35 380.849 451.756 383.891C447.494 392.961 444.539 400.632 436.234 406.832C435.087 406.825 434.218 406.878 433.062 406.586C425.074 404.574 420.375 391.645 416.956 384.934C409.257 381.078 399.934 378.682 395.647 370.689C396.687 362.117 412.247 354.83 418.19 348.32C422.482 343.622 425.853 337.322 429.68 332.12Z" fill="currentColor"/>
<path d="M68.3441 285.29C69.9902 285.801 69.9356 285.74 71.3692 286.324C81.029 290.256 79.891 296.773 85.8799 303.55C92.0117 310.494 103.316 312.2 107.162 321.353C106.022 332.237 92.7829 332.237 86.5972 339.341C81.2801 345.45 79.6944 352.667 73.3384 358.342L70.0416 358.395C62.1202 354.773 59.7086 343.99 55.3081 337.016L54.671 336.021C50.7655 334.561 46.7507 333.121 43.0251 331.248C39.3728 329.413 37.4228 327.551 36.0883 323.661C37.2219 314.504 49.9579 309.782 55.522 303.119C60.3769 297.307 62.559 290.606 68.3441 285.29Z" fill="currentColor"/>
<path d="M275.548 115.345C340.822 112.16 396.447 161.674 400.053 226.169C403.659 290.664 353.893 345.936 288.659 349.879C222.883 353.854 166.395 304.163 162.759 239.129C159.123 174.095 209.727 118.558 275.548 115.345Z" fill="currentColor"/>
<path d="M84.2181 116.556C87.3026 116.501 89.4795 116.82 91.9568 118.823C96.3698 122.394 97.9531 129.533 101.999 133.654C106.718 138.459 113.956 140.655 118.719 145.57C121.351 148.283 122.06 150.633 121.896 154.407C118.963 161.181 109.616 163.854 103.237 166.688C98.5858 173.121 95.9574 180.633 91.0658 187.05C89.2906 187.305 87.3796 187.263 85.5814 187.345C77.3647 184.052 75.7006 173.617 71.0395 166.781C70.8156 166.45 70.582 166.123 70.3534 165.794C66.3395 164.216 62.1862 162.664 58.3822 160.629C55.0838 158.863 53.0279 156.824 51.9979 153.17C53.0599 144.067 67.3175 139.384 72.7592 132.646C76.4065 128.125 79.1281 121.726 82.1152 116.626C82.8168 116.603 83.5165 116.569 84.2181 116.556Z" fill="currentColor"/>
</g>
</svg>
