<svg width="512" height="512" viewBox="0 0 512 512" fill="none" xmlns="http://www.w3.org/2000/svg">
<g opacity="0.8">
<path d="M113.592 90.1051C128.69 88.7909 143.804 89.9691 158.248 94.585C190.417 104.866 210.57 127.244 225.604 156.094C233.371 146.051 241.969 137.232 252.885 130.449C276.667 115.67 307.567 111.368 334.895 117.501C349.635 120.807 369.506 129.338 377.343 142.682C379.543 146.429 380.481 150.847 379.122 155.043C377.432 160.268 372.846 164.215 368.439 167.295C359.291 173.689 348.025 178.175 337.974 183.165C325.664 189.198 313.573 195.647 301.722 202.504C319.574 210.546 334.556 217.862 345.366 234.808C356.825 252.774 363.538 281.167 358.337 301.978C356.635 308.779 353.466 315.224 346.915 318.689C341.664 321.465 336.566 320.909 331.477 318.163C323.245 313.725 316.643 306.412 309.901 300.108C288.018 279.636 267.042 261.466 237.416 253.059C228.728 316.612 227.135 355.436 235.806 419.267C238.568 418.757 241.348 418.354 244.141 418.059C305.943 411.516 405.079 435.289 452.865 473.862C459.25 479.013 466.614 486.158 467.161 494.762C467.505 500.162 465.49 503.388 462.058 507.399C461.283 507.814 460.507 508.227 459.708 508.594C455.261 510.634 451.504 511.271 446.622 511.499C426.509 512.439 406.118 511.778 385.979 511.745L278.449 511.598L158.835 511.695C137.699 511.713 116.364 512.377 95.2534 511.543C89.0974 511.298 81.8037 510.925 76.066 508.679C72.0208 507.097 69.1742 504.259 67.6934 500.208C65.86 495.187 68.046 488.708 70.4741 484.258C83.5948 460.215 131.529 442.127 156.543 434.934C155.544 367.538 168.581 314.735 187.065 250.528C164.491 255.473 144.328 263.681 125.211 276.521C112.459 285.087 85.1132 312.551 73.2901 314.945C69.548 315.703 65.6837 315.36 62.48 313.149C55.5224 308.348 52.7934 296.361 51.7638 288.488C48.5953 264.292 59.1375 238.059 73.9858 219.125C89.8707 198.868 111.263 188.938 136.736 185.735C122.724 174.403 64.7975 138.924 61.8359 126.216C60.5948 120.892 62.7338 114.545 65.9187 110.242C76.0989 96.4963 97.4699 92.3047 113.592 90.1051Z" fill="currentColor"/>
</g>
</svg>
