<svg width="512" height="512" viewBox="0 0 512 512" fill="none" xmlns="http://www.w3.org/2000/svg">
<g opacity="0.8">
<path d="M366.576 134.413C376.119 134.214 386.62 136.035 395.698 138.981C417.171 145.861 435.032 161.224 445.281 181.624C456.39 204.117 456.97 229.208 449.424 252.835C452.759 255.736 456.132 258.638 459.293 261.735C471.463 273.649 477.771 291.623 477.723 308.619C477.674 325.561 471.807 343.241 459.585 355.094C441.003 373.115 417.856 371.992 394.071 371.884C393.419 395.011 394.689 418.199 394.911 441.337C416.267 447.54 472.944 466.542 483.244 485.275C486.044 490.366 487.413 496.885 485.534 502.541C484.451 505.803 482.204 509.257 478.905 510.409C470.83 513.232 371.1 511.434 354.842 511.436L157.225 511.434C123.98 511.425 90.5936 512.072 57.3645 511.354C51.3065 511.223 39.3298 511.599 34.092 508.559C29.0609 505.638 26.5487 498.715 25.9106 493.214C24.3129 479.477 28.9957 467.333 37.1053 456.65C58.5599 428.379 95.7012 412.572 129.688 408.016C129.847 386.34 131.867 364.68 132.018 342.971C131.952 341.363 132.069 342.386 131.301 339.973C126.76 337.903 122.14 336.075 117.536 334.156C96.3932 325.348 80.2393 309.024 71.5253 287.494C62.3911 264.93 62.5507 239.579 71.968 217.136C80.682 195.636 97.5055 178.589 118.67 169.82C140.356 161.092 164.559 161.469 185.973 170.867C207.257 180.403 223.876 198.25 232.089 220.395C240.394 242.536 239.868 269.37 230.04 290.927C218.198 316.903 197.952 330.227 172.392 339.856L172.428 401.692C242.61 399.146 277.376 404.276 345.353 423.56L345.47 371.875L328.267 371.816C307.852 371.617 289.285 368.177 274.587 352.34C263.536 340.435 258.546 324.632 259.011 308.448C259.669 285.667 270.911 269.589 286.582 254.658C284.29 247.986 282.614 241.253 281.834 234.22C279.279 211.16 284.548 186.082 298.965 167.731C316.153 145.854 340.082 137.275 366.576 134.413Z" fill="currentColor"/>
</g>
</svg>
