<svg width="512" height="512" viewBox="0 0 512 512" fill="none" xmlns="http://www.w3.org/2000/svg">
<g clip-path="url(#clip0_3512_307390)">
<g opacity="0.8">
<path d="M141.144 475.493C197.609 471.803 208.878 499.227 252.03 503.17C290.273 506.663 320.842 478.407 358.686 477.261C396.363 476.119 411.626 494.057 444.354 500.58C452.489 502.201 461.148 501.237 469.391 501.23C475.483 501.225 483.694 500.993 488.085 505.934C492.891 511.342 493.011 522.401 491.863 529.075C491.046 533.81 489.343 537.776 485.213 540.461C479.886 543.926 472.694 544.034 466.555 543.993C431.135 543.75 412.088 526.293 380.229 519.53C335.294 511.307 307.443 540.763 264.943 543.611C222.195 546.474 183.347 508.966 142.79 516.152C124.992 519.307 109.255 529.858 92.4626 536.057C77.742 541.488 48.7257 546.654 34.5061 539.216C30.3441 537.039 27.8686 533.17 26.7915 528.652C25.219 522.061 25.7369 510.364 29.7673 504.689C35.4505 496.69 47.549 498.779 55.9817 499.039C89.773 500.074 109.327 480.56 141.144 475.493Z" fill="currentColor"/>
<path d="M147.569 391.139C188.131 386.605 217.483 417.479 256.462 418.248C291.966 418.947 319.217 395.922 353.582 392.302C392.358 388.218 413.089 408.744 448.024 415.961C457.894 417.999 482.753 413.26 489.145 420.439C492.39 424.084 492.842 431.335 492.797 435.943C492.74 441.7 491.943 449.239 487.341 453.211C482.598 457.304 474.05 457.697 468.152 457.707C437.714 457.769 419.532 446.388 391.695 436.88C385.039 434.606 378.27 433.46 371.342 432.384C328.048 431.113 304.653 456.028 265.024 458.498C220.405 461.276 181.774 424.168 140.748 432.557C123.542 436.074 109.182 445.051 92.9991 451.257C78.2905 456.898 49.0737 463.716 34.4926 456.38C30.456 454.351 27.6534 450.808 26.5976 446.384C24.9491 439.481 24.925 426.137 29.7764 420.339C35.6599 413.312 51.244 416.17 59.3227 415.866C91.4115 414.656 113.012 394.091 147.569 391.139Z" fill="currentColor"/>
<path d="M244.415 135.548C303.223 126.906 357.856 167.936 366.477 227.216C375.097 286.495 334.445 341.603 275.652 350.343C216.789 359.092 162.044 318.051 153.413 258.702C144.783 199.354 185.536 144.2 244.415 135.548Z" fill="currentColor"/>
</g>
</g>
<defs>
<clipPath id="clip0_3512_307390">
<rect width="512" height="512" fill="currentColor"/>
</clipPath>
</defs>
</svg>
