<svg width="24" height="24" viewBox="0 0 24 24" fill="none" xmlns="http://www.w3.org/2000/svg">
<path d="M16.9995 9C16.9995 7.67407 16.4731 6.4025 15.5356 5.46484C14.5979 4.52716 13.3255 4 11.9995 4C10.6735 4.00009 9.4019 4.52724 8.46429 5.46484C7.52672 6.40251 6.99945 7.674 6.99945 9L7.00629 9.24805C7.06762 10.4837 7.58535 11.6561 8.46429 12.5352C9.4019 13.4728 10.6735 13.9999 11.9995 14C13.3255 14 14.5979 13.4728 15.5356 12.5352C16.4731 11.5975 16.9995 10.3259 16.9995 9ZM16.9496 13.9502C16.0262 14.8736 14.8705 15.51 13.6205 15.8076L15.3315 18.7705L16.101 17.2139C16.2799 16.852 16.6591 16.6333 17.062 16.6592L18.7953 16.7705L17.0844 13.8076C17.0396 13.855 16.9959 13.9039 16.9496 13.9502ZM5.2016 16.7705L6.935 16.6592L7.08441 16.6602C7.42953 16.6894 7.73926 16.897 7.89593 17.2139L8.66547 18.7695L10.3754 15.8076C9.12682 15.5097 7.97283 14.8727 7.05023 13.9502C7.00321 13.9032 6.95807 13.8539 6.91254 13.8057L5.2016 16.7705ZM18.9995 9C18.9995 10.038 18.7681 11.0516 18.3354 11.9736L21.4614 17.3887C21.6458 17.7081 21.6403 18.1037 21.4457 18.417C21.2512 18.7302 20.8996 18.9104 20.5317 18.8867L17.5981 18.6973L16.2963 21.333C16.1329 21.6636 15.8007 21.8777 15.4321 21.8896C15.0634 21.9015 14.718 21.7091 14.5336 21.3896L11.9985 16.998L9.46429 21.3887C9.27994 21.708 8.93436 21.9004 8.56586 21.8887C8.19725 21.8768 7.86506 21.6626 7.7016 21.332L6.39789 18.6982L3.46625 18.8877C3.09826 18.9115 2.74682 18.7312 2.55218 18.418C2.35753 18.1047 2.35119 17.7091 2.53558 17.3896L5.66254 11.9717C5.27877 11.1532 5.05361 10.2625 5.00824 9.34668L4.99945 9C4.99945 7.14348 5.73748 5.36256 7.05023 4.0498C8.36287 2.73733 10.1432 2.00009 11.9995 2C13.8559 2 15.6369 2.73716 16.9496 4.0498C18.2624 5.36256 18.9995 7.14349 18.9995 9Z" fill="currentColor"/>
</svg>
