<svg width="22" height="22" viewBox="0 0 22 22" fill="none" xmlns="http://www.w3.org/2000/svg">
<path fill-rule="evenodd" clip-rule="evenodd" d="M16.3734 0.345738C17.0473 0.0457903 17.7916 -0.0620592 18.5228 0.0342148C19.254 0.130584 19.9448 0.427517 20.518 0.891637C21.0911 1.35584 21.5247 1.96985 21.7709 2.66507C22.017 3.36035 22.0658 4.11062 21.9125 4.83207L21.8461 5.09964C21.6694 5.71749 21.3459 6.28581 20.9017 6.75394L20.7055 6.9473C20.3824 7.24385 20.0118 7.48227 19.6117 7.65824C19.9478 8.49887 20.1642 9.40273 20.2328 10.3506L21.0004 22H19.0004L18.2387 10.4952C17.974 6.83475 14.9262 4.00023 11.2562 4.00004H10.7514C7.08332 4.00023 4.03705 6.83195 3.76991 10.4903L3.00038 22H1.00038L1.77577 10.3448C1.84474 9.40017 2.05926 8.49916 2.39393 7.66117C1.99172 7.485 1.61988 7.24519 1.2953 6.9473L1.09901 6.75394C0.654744 6.28578 0.331358 5.71758 0.154675 5.09964L0.0882687 4.83207C-0.0650799 4.11058 -0.0163045 3.36038 0.22987 2.66507C0.476088 1.96987 0.909686 1.35582 1.4828 0.891637C2.05596 0.42756 2.74675 0.130539 3.47792 0.0342148C4.2092 -0.0620099 4.95351 0.0457422 5.62733 0.345738C6.30117 0.645789 6.87946 1.12652 7.29725 1.73441L7.44569 1.96683C7.55149 2.14611 7.64095 2.33375 7.71718 2.5264C8.66683 2.18621 9.68875 2.00008 10.7514 2.00004H11.2562C12.3164 2.00008 13.3358 2.18481 14.2836 2.52347C14.3933 2.24691 14.5335 1.98182 14.7035 1.73441C15.1213 1.12655 15.6996 0.645753 16.3734 0.345738ZM18.2611 2.01761C17.8956 1.96954 17.5237 2.02299 17.1869 2.17289C16.85 2.32288 16.5608 2.56334 16.3519 2.86722C16.2373 3.034 16.1495 3.21668 16.0902 3.40824C17.1024 4.05382 17.9766 4.89799 18.6605 5.88675C18.9602 5.782 19.2321 5.60823 19.4515 5.37699C19.7053 5.10954 19.8797 4.77663 19.9564 4.41605C20.0235 4.10037 20.0133 3.77352 19.9271 3.4639L19.8861 3.33207C19.7784 3.02804 19.5987 2.75507 19.3637 2.53617L19.2592 2.44535C19.0085 2.24241 18.7126 2.10393 18.3978 2.04007L18.2611 2.01761ZM4.81385 2.17289C4.47706 2.02294 4.10515 1.96959 3.73964 2.01761L3.60292 2.04007C3.28819 2.1039 2.99225 2.24245 2.74159 2.44535C2.45504 2.67739 2.23778 2.98452 2.11464 3.33207C1.99152 3.67974 1.96765 4.05528 2.04432 4.41605C2.12103 4.77671 2.29541 5.10951 2.54921 5.37699L2.64784 5.47367C2.84927 5.65853 3.08777 5.79629 3.34608 5.88578C4.02849 4.89922 4.90117 4.05711 5.91053 3.41214C5.86471 3.26285 5.80279 3.11858 5.72303 2.98343L5.64882 2.86722C5.46605 2.6013 5.22169 2.38408 4.93788 2.23343L4.81385 2.17289Z" fill="currentColor"/>
<path d="M12.0658 14C12.4651 14.0001 12.7033 14.4451 12.4818 14.7774L11.4164 16.376C11.2185 16.6728 10.7823 16.6727 10.5844 16.376L9.51796 14.7774C9.29667 14.4452 9.53486 14.0002 9.93397 14H12.0658Z" fill="currentColor"/>
<path fill-rule="evenodd" clip-rule="evenodd" d="M10.8588 10C12.3591 10.0001 13.7142 10.8972 14.3002 12.2784L15.267 14.5557C16.5634 17.6116 14.3199 20.9999 11.0004 21C7.74118 21 5.47192 17.8231 6.44862 14.7764L6.55311 14.4825L7.37831 12.375C7.93941 10.9427 9.32045 10.0001 10.8588 10ZM10.8588 12C10.1435 12.0001 9.50154 12.4385 9.24061 13.1045L8.41542 15.211C7.70233 17.0319 9.0448 19 11.0004 19C12.8872 18.9999 14.1621 17.074 13.4252 15.3369L12.4594 13.0596C12.1869 12.4174 11.5564 12.0001 10.8588 12Z" fill="currentColor"/>
<path d="M7.00038 7.00004C7.55247 7.00024 8.00035 7.4479 8.00038 8.00004V9.00004C8.00038 9.55219 7.55249 9.99983 7.00038 10C6.44809 10 6.00038 9.55232 6.00038 9.00004V8.00004C6.0004 7.44777 6.44811 7.00004 7.00038 7.00004Z" fill="currentColor"/>
<path d="M15.0004 7.00004C15.5525 7.00024 16.0004 7.4479 16.0004 8.00004V9.00004C16.0004 9.55219 15.5525 9.99983 15.0004 10C14.4481 10 14.0004 9.55232 14.0004 9.00004V8.00004C14.0004 7.44777 14.4481 7.00004 15.0004 7.00004Z" fill="currentColor"/>
</svg>
