<svg width="147" height="116" viewBox="0 0 147 116" fill="none" xmlns="http://www.w3.org/2000/svg">
<g clip-path="url(#clip0_3123_41330)">
<path d="M104.286 44.1702C104.091 43.2663 104.139 42.082 104.134 41.1495C104.112 36.8239 104.484 32.0887 106.36 28.1204C107.304 26.1258 108.666 24.4471 110.786 23.6837C112.145 23.1368 113.48 23.3587 114.803 23.9231C120.428 26.3238 126.513 35.3303 128.673 40.8326C130.558 45.6353 131.125 51.0938 129.019 55.9264C128.427 57.2847 127.66 58.482 126.754 59.6497C127.848 60.6804 128.929 61.7307 130.086 62.6907C135.63 67.2889 141.543 71.4315 141.789 79.3526C141.849 81.2873 141.513 83.085 141.022 84.9445C140.686 86.3141 140.162 87.5991 139.635 88.9039L139.105 89.9794C138.481 91.1409 137.855 92.3095 137.127 93.4099L136.443 94.4517C135.714 95.4937 134.856 96.4855 134.166 97.5433L133.333 98.5105C132.426 99.5596 131.477 100.571 130.487 101.542C130.19 101.835 129.799 102.146 129.549 102.474C128.374 103.514 127.21 104.578 125.97 105.541L125.079 106.275C123.821 107.241 122.541 108.178 121.239 109.083L120.126 109.835C118.828 110.569 117.593 111.412 116.288 112.141C116 112.339 115.655 112.486 115.344 112.647C114.019 113.368 112.64 113.985 111.256 114.583L110.157 115.002C108.875 115.481 107.586 115.947 106.267 116.313L105.257 116.595C103.85 116.99 102.401 117.214 100.96 117.436L100.011 117.575C98.639 117.664 97.2638 117.688 95.8896 117.645C94.0166 117.567 92.0902 117.19 90.3385 116.519C82.7042 113.597 80.7791 106.729 78.1122 99.792C77.6132 98.4942 76.9648 97.2486 76.3957 95.9794C75.4147 96.3976 74.3614 96.6624 73.3097 96.8315C68.2963 97.6376 63.3247 95.9346 59.2832 93.009C54.1138 89.2673 47.3456 80.6401 46.3542 74.2234C46.0945 72.5422 46.2319 71.0094 47.2533 69.6128C48.818 67.7528 50.9205 67.0428 53.2902 66.8321C57.6074 66.4486 62.091 67.5967 66.1411 68.9883C66.8366 69.2273 67.7941 69.4571 68.3997 69.8579C70.2866 70.5043 72.1744 71.2795 74.1262 71.7023C78.9109 63.0554 92.7091 53.084 102.175 50.3608C102.875 50.1593 103.59 49.9694 104.308 49.8469C104.424 47.9497 104.351 46.0675 104.286 44.1702Z" fill="#917867"/>
<path d="M104.285 44.1701C104.09 43.2661 104.139 42.0819 104.134 41.1494C104.111 36.8237 104.484 32.0886 106.36 28.1203C107.303 26.1257 108.665 24.447 110.786 23.6836C108.648 26.559 108.42 30.4207 108.931 33.8602C109.937 40.6275 114.056 46.5704 117.902 52.0506C114.697 50.2264 111.335 49.5765 107.672 49.5337C105.76 47.4239 105.51 46.591 104.285 44.1701Z" fill="#F8DEBD"/>
<path d="M47.2532 69.6129C48.8178 67.7529 50.9203 67.0429 53.29 66.8323C57.6072 66.4487 62.0908 67.5969 66.1409 68.9885C66.8364 69.2274 67.7939 69.4573 68.3995 69.858C70.2089 71.3321 71.4897 72.7548 72.6783 74.7721C72.5172 75.5839 72.2427 76.3826 72.0636 77.1943C71.4849 79.8186 71.3502 82.4337 71.7593 85.09C67.7759 79.599 63.2635 73.7349 56.9972 70.7435C54.0222 69.3231 50.4515 68.4806 47.2532 69.6129Z" fill="#F8DEBD"/>
<path d="M102.156 73.0448C102.665 71.4169 103.317 70.0665 104.415 68.7418C107.745 64.7256 117.65 58.2806 122.425 55.7698C122.951 55.4933 123.883 55.0388 124.49 55.2565C125.256 55.5313 126.135 56.6447 126.435 57.3814C127.068 58.9344 125.999 60.2287 126.228 61.7519C126.342 62.5111 126.854 63.2472 127.217 63.9198C128.828 66.9067 129.684 69.7018 128.491 73.0536C127.755 74.5135 126.929 75.7778 125.831 76.9924C125.862 77.4355 125.868 77.8942 125.985 78.324C125.062 79.6334 123.423 80.4152 122.408 81.6709C124.201 82.501 125.926 83.494 127.444 84.7656C129.327 86.3433 131.052 88.516 131.254 91.0428C131.501 94.1347 129.837 96.987 127.912 99.2685C124.004 103.9 115.306 110.314 109.142 110.79C106.957 110.959 104.77 110.577 103.071 109.113C99.6537 106.165 98.8687 100.96 98.5381 96.7253C96.9413 98.2896 95.2778 99.581 93.3707 100.751C91.7406 101.571 90.1327 101.941 88.3201 102.082C84.9073 101.911 82.5403 100.217 80.2345 97.8689C79.715 97.3401 79.1293 96.551 78.4831 96.1893C76.9622 95.3383 75.4304 96.281 74.0184 94.7392C73.5905 94.272 72.8782 93.1803 72.8931 92.5346C72.9171 91.5022 74.3791 90.3984 75.0974 89.7695C79.2669 86.1185 87.0296 79.7452 92.0512 77.8032C93.6292 77.1931 95.1603 76.936 96.8462 76.8892C98.5706 75.497 100.363 74.33 102.156 73.0448Z" fill="#372E30"/>
<path d="M100.877 83.7769C102.71 81.6159 104.667 80.1934 107.274 79.0975C108.603 78.7301 109.851 78.54 111.234 78.5595C113.238 78.8158 115.106 79.4404 117.072 79.8163C118.236 80.1604 119.393 80.5249 120.543 80.9099C121.164 81.164 121.784 81.4246 122.407 81.6711C124.2 82.5012 125.925 83.4943 127.444 84.7659C129.327 86.3435 131.051 88.5163 131.253 91.0431C131.5 94.1349 129.837 96.9872 127.912 99.2687C124.004 103.9 115.305 110.314 109.141 110.79C106.956 110.959 104.769 110.577 103.071 109.113C99.6532 106.165 98.8683 100.96 98.5377 96.7256C98.4851 95.528 98.5164 94.3224 98.5223 93.1237C98.7084 91.0359 98.8228 88.9735 99.278 86.9204C99.6925 85.7851 100.239 84.7976 100.877 83.7769Z" fill="#F8DEBD"/>
<path d="M104.517 83.2079C106.001 81.9635 107.845 81.0475 109.807 80.9803C111.056 80.9374 112.258 81.2649 113.174 82.1464C114.037 82.9739 114.533 84.1118 114.553 85.3074C114.592 87.409 113.421 89.2617 112.015 90.7237C113.123 92.2939 114.625 95.1196 116.519 95.7177C117.839 96.1347 119.399 95.4927 120.193 94.3756C120.719 93.636 120.691 92.6024 121.569 92.154C121.807 92.1569 121.927 92.169 122.09 92.361C122.368 92.6881 122.454 93.269 122.434 93.6903C122.391 94.5908 121.63 95.501 120.977 96.0663C119.643 97.2223 118.215 97.4774 116.507 97.3674C116.273 97.3365 116.033 97.2908 115.799 97.3424C115.474 97.4143 114.83 99.9562 114.436 100.543C113.798 101.496 112.697 102.227 111.574 102.451C110.743 102.616 109.734 102.647 109.005 102.156C108.897 101.974 108.804 101.887 108.858 101.661C109.183 100.294 111.02 101.204 112.468 100.169C113.183 99.6683 113.664 98.8998 113.802 98.0386C114.124 95.9634 111.684 93.4286 110.509 91.8305C109.209 92.456 107.868 92.8884 106.407 92.8498C105.04 92.8135 103.723 92.3557 102.78 91.3384C101.984 90.4803 101.523 89.3899 101.59 88.2117C101.707 86.149 103.044 84.5227 104.517 83.2079Z" fill="#372E30"/>
<path d="M104.39 85.3371C104.673 85.1054 105.019 84.9151 105.388 84.8745C105.652 84.8455 105.895 84.9022 106.093 85.0855C106.353 85.327 106.435 85.692 106.439 86.0353C106.448 86.7919 106.045 87.2177 105.559 87.7293C105.32 87.8826 105.072 88.0305 104.813 88.1469C104.463 88.3042 104.167 88.31 103.81 88.179C103.596 88.0135 103.477 87.8597 103.441 87.584C103.323 86.7005 103.861 85.974 104.39 85.3371Z" fill="#48444E"/>
<path d="M111.234 78.5595L111.147 78.4842C109.384 76.9687 105.79 75.4214 105.52 72.8423C105.412 71.8131 106.365 70.5932 107.001 69.8836C108.839 67.8325 117.626 60.9111 120.211 60.766C121.166 60.7124 122.118 61.303 122.782 61.9352C124.671 63.7346 126.578 67.3394 126.604 69.946C126.626 72.163 125.311 74.1235 123.8 75.6418C122.919 76.5262 121.932 77.2977 120.861 77.9385C120.217 78.3164 117.354 79.3853 117.073 79.8163C115.107 79.4404 113.238 78.8158 111.234 78.5595Z" fill="#6D6678"/>
<path d="M98.5227 93.1236C97.6275 93.7925 96.868 94.944 96.0557 95.7398C94.0858 97.6699 91.1024 99.462 88.2773 99.4131C85.7132 99.3687 83.7265 97.7953 82.0305 96.0267C80.7614 94.7033 79.1893 92.9384 79.2519 90.9962C79.2876 89.8859 79.9377 89.2305 80.7153 88.5061C83.0593 86.3223 89.4798 81.6852 92.3895 80.4322C93.1149 80.12 93.9003 79.9024 94.6966 79.9396C97.2446 80.0588 98.0184 83.7455 98.6972 85.6779C98.8342 86.068 98.9476 86.5716 99.235 86.8776C99.2489 86.8924 99.264 86.9061 99.2784 86.9203C98.8231 88.9734 98.7088 91.0358 98.5227 93.1236Z" fill="#6D6678"/>
<path d="M100.877 83.7769C100.45 82.915 99.9087 81.8919 99.8509 80.9173C99.8097 80.2196 100.115 79.6714 100.567 79.1692C101.418 78.2239 102.915 77.2228 104.224 77.1695C105.427 77.1206 106.463 78.3514 107.275 79.0976C104.667 80.1935 102.711 81.6159 100.877 83.7769Z" fill="#917867"/>
<path d="M120.544 80.9098C122.549 80.0221 124.229 78.4502 125.83 76.9925C125.862 77.4356 125.868 77.8944 125.985 78.3242C125.062 79.6335 123.423 80.4153 122.408 81.671C121.784 81.4245 121.165 81.1639 120.544 80.9098Z" fill="#7A6259"/>
<path d="M117.308 71.07C117.39 71.0125 117.473 70.9555 117.561 70.9073C117.813 70.7695 118.119 70.7521 118.392 70.8378C118.91 71.0005 119.289 71.6075 119.526 72.0675C120.073 73.132 120.116 74.343 119.73 75.4687C119.221 76.9551 117.985 78.1282 116.591 78.8018C115.152 79.4968 113.806 79.4832 112.324 78.9555L112.173 78.8777C111.471 78.5107 110.623 77.7493 110.427 76.9506C110.362 76.6844 110.414 76.6001 110.563 76.3828C111.622 75.8484 112.901 76.9331 113.97 77.0923C114.846 77.2228 115.628 76.8745 116.313 76.3508C117.718 75.2772 117.791 74.0603 117.443 72.4208C117.348 71.9744 117.226 71.6227 117.292 71.1605C117.297 71.1303 117.303 71.1001 117.308 71.07Z" fill="#372E30"/>
<path d="M87.5758 92.3355C88.7617 91.881 89.6167 93.343 90.7563 93.6307C91.588 93.8406 92.4285 93.5464 93.1381 93.1116C95.6432 91.5764 94.2779 89.5855 94.7451 88.0117C94.8249 87.7427 94.8928 87.6922 95.1342 87.5676C95.3502 87.5852 95.5294 87.6288 95.7235 87.7298C96.5117 88.1407 96.7461 88.8401 97.0068 89.6323C97.1261 90.4624 97.0734 91.2571 96.796 92.0517C96.2951 93.4867 95.1277 94.6713 93.7712 95.3278C92.5337 95.9267 91.1341 96.0764 89.8276 95.6137C88.9198 95.2924 87.9393 94.6654 87.546 93.7504C87.3188 93.2221 87.3782 92.8454 87.5758 92.3355Z" fill="#372E30"/>
<path d="M140.198 83.805C140.806 84.1158 141.406 84.4191 141.97 84.8081C143.654 86.1704 144.552 87.5515 145.033 89.662C145.802 89.6332 146.545 89.662 147.311 89.7188C159.368 91.0445 168.884 99.208 176.209 108.345C177.261 109.656 181.29 114.658 181.132 116.021C181.115 116.165 181.071 116.308 181.027 116.447C181.784 117.567 184.467 120.972 184.297 122.135C184.261 122.379 184.163 122.629 184.045 122.845C186.926 126.199 189.577 131.044 189.217 135.612C189.082 137.326 188.444 138.982 187.103 140.106C186.683 140.459 186.221 140.761 185.694 140.924L185.569 140.967C185.223 141.099 184.9 141.592 184.585 141.821C184.161 142.128 183.651 142.23 183.138 142.137C182.035 141.935 181.209 140.897 180.615 140.031L180.034 139.187C179.954 139.19 179.875 139.194 179.795 139.195C178.467 139.209 177.441 138.033 176.563 137.169L176.718 137.671C175.863 136.599 175.138 135.38 174.362 134.245C173.799 135.187 170.333 138.239 169.322 139.158C159.927 147.688 149.595 155.127 138.525 161.332C136.382 162.52 134.157 163.475 131.991 164.6L130.826 162.984C130.432 163.045 130.031 163.117 129.635 163.03C127.91 162.65 126.666 160.199 125.745 158.829L125.514 158.429C125.21 158.143 124.891 158.131 124.488 158.034C123.599 157.043 122.941 155.817 122.249 154.682L121.677 155.251C121.742 156.568 121.297 157.937 120.629 159.058C119.071 161.672 116.006 163.577 113.083 164.291C110.484 164.926 107.714 164.592 105.421 163.187C104.918 162.966 104.395 162.521 103.948 162.198C101.399 160.359 98.9671 157.243 98.4851 154.078C98.2138 152.298 98.6178 150.875 99.6802 149.448C98.7904 148.531 97.9085 147.607 97.0349 146.675L96.2533 145.857C95.766 145.846 95.4303 146.324 94.9004 146.344C94.3797 146.057 94.0368 145.363 93.7746 144.851C92.779 142.903 93.8464 143.469 94.0711 142.605C94.08 142.571 94.0859 142.537 94.0933 142.503L93.6905 141.842C93.4203 141.393 93.1588 140.953 92.9473 140.474C93.1096 138.903 96.8735 136.481 98.1315 135.446C97.7167 131.776 97.766 128.428 98.4472 124.788L98.9239 122.882C98.6617 122.612 98.2219 122.406 97.9213 122.154C96.6211 121.063 95.9355 119.937 95.3678 118.359C95.2171 117.745 95.1408 117.132 95.0653 116.505C96.4394 116.548 97.8147 116.525 99.1866 116.436L100.136 116.297C101.577 116.075 103.026 115.85 104.432 115.455L105.443 115.174C106.762 114.808 108.05 114.341 109.332 113.863L110.432 113.444C111.815 112.846 113.195 112.229 114.519 111.507C114.831 111.346 115.175 111.199 115.464 111.001C116.769 110.273 118.004 109.429 119.302 108.696L120.415 107.944C121.717 107.038 122.997 106.102 124.255 105.136L125.146 104.402C126.386 103.439 127.55 102.374 128.725 101.334C128.975 101.006 129.366 100.696 129.662 100.402C130.653 99.4314 131.602 98.4201 132.509 97.3711L133.341 96.4038C134.031 95.346 134.889 94.3542 135.618 93.3122L136.303 92.2705C137.031 91.1701 137.656 90.0014 138.28 88.84L138.81 87.7645C139.338 86.4597 139.862 85.1746 140.198 83.805Z" fill="#D6523D"/>
<path d="M170.034 125.857C165.658 120.608 161.181 115.442 156.606 110.364C154.924 108.547 153.229 106.742 151.521 104.949C150.962 104.358 150.222 103.762 149.729 103.133C149.391 102.7 149.107 102.089 149.093 101.537L149.192 101.331C149.626 101.309 149.992 101.594 150.308 101.876C151.893 103.293 153.306 105.059 154.777 106.602C158.613 110.619 162.319 114.758 165.889 119.014C167.522 120.94 169.232 122.853 170.74 124.878C174.371 122.598 178.261 119.925 180.89 116.496L181.556 117.433C180.793 118.398 180 119.289 179.147 120.174C180.213 121.63 181.504 123.13 182.355 124.711C182.946 124.143 183.483 123.529 184.026 122.916L184.045 122.845C186.926 126.199 189.577 131.044 189.217 135.612C189.082 137.326 188.444 138.982 187.103 140.106C186.683 140.459 186.221 140.761 185.694 140.924L185.569 140.967C185.223 141.099 184.9 141.592 184.586 141.821C184.161 142.128 183.651 142.23 183.138 142.137C182.035 141.935 181.209 140.897 180.615 140.031L180.034 139.187C179.954 139.19 179.875 139.194 179.795 139.195C178.467 139.209 177.441 138.033 176.563 137.169L176.718 137.671C175.863 136.599 175.138 135.38 174.362 134.245C173.799 135.187 170.333 138.239 169.322 139.158C159.927 147.688 149.595 155.127 138.525 161.332C136.382 162.52 134.157 163.475 131.991 164.6L130.826 162.984C130.432 163.045 130.031 163.117 129.635 163.03C127.911 162.65 126.666 160.199 125.745 158.829L125.514 158.429L125.48 158.151C126.286 157.828 127.138 157.656 127.932 157.3C131.799 155.564 135.516 153.346 139.118 151.119C148.128 145.548 156.981 139.179 164.669 131.866C166.5 130.124 168.87 128.109 170.034 125.857Z" fill="#BC3F2E"/>
<path d="M140.197 83.8048C140.806 84.1156 141.406 84.4189 141.97 84.8079C143.654 86.1702 144.552 87.5513 145.033 89.6618C145.151 90.6048 145.089 91.5362 144.986 92.4782C144.904 93.072 144.781 93.6356 144.626 94.2141C144.193 95.6361 143.71 96.9546 143.046 98.2852C142.839 98.6979 142.64 99.1153 142.385 99.5011C141.695 100.792 140.848 101.953 139.974 103.124L139.2 104.094C138.168 105.318 137.072 106.488 135.916 107.597C135.598 107.933 135.258 108.237 134.911 108.543C133.593 109.757 132.224 110.914 130.807 112.012L129.895 112.699C128.594 113.773 127.189 114.726 125.786 115.662L124.856 116.308C123.442 117.236 122.005 118.128 120.545 118.981L119.446 119.611C117.964 120.384 116.481 121.134 114.929 121.757L113.716 122.254C112.213 120.169 110.974 118.119 110.059 115.71C109.802 115.1 109.559 114.484 109.332 113.863L110.432 113.444C111.815 112.845 113.195 112.229 114.519 111.507C114.831 111.346 115.175 111.199 115.464 111.001C116.769 110.273 118.004 109.429 119.302 108.695L120.414 107.943C121.716 107.038 122.997 106.102 124.255 105.135L125.146 104.402C126.386 103.439 127.549 102.374 128.725 101.334C128.974 101.006 129.365 100.696 129.662 100.402C130.652 99.4312 131.602 98.4199 132.509 97.3709L133.341 96.4036C134.031 95.3458 134.889 94.354 135.618 93.312L136.303 92.2702C137.031 91.1699 137.656 90.0012 138.28 88.8398L138.81 87.7643C139.338 86.4595 139.862 85.1744 140.197 83.8048Z" fill="#E78E24"/>
<path d="M126.405 106.09C127.763 105.039 129.112 103.952 130.364 102.777C132.185 104.422 133.604 106.487 134.912 108.543C133.593 109.757 132.224 110.914 130.807 112.012C129.382 109.974 127.967 108.031 126.405 106.09Z" fill="#F3A94B"/>
<path d="M121.422 109.829C122.829 108.838 124.215 107.818 125.579 106.769C127.056 108.7 128.699 110.574 129.895 112.699C128.594 113.774 127.189 114.726 125.786 115.662C124.116 113.909 122.738 111.854 121.422 109.829Z" fill="#F3A94B"/>
<path d="M116.312 112.939L120.508 110.494C121.88 112.491 123.237 114.498 124.856 116.308C123.442 117.236 122.005 118.128 120.545 118.981C118.681 117.301 117.508 115.108 116.312 112.939Z" fill="#F3A94B"/>
<path d="M111.133 115.299C112.554 114.736 113.971 114.156 115.3 113.394C116.472 115.673 117.787 117.662 119.447 119.611C117.964 120.384 116.481 121.134 114.929 121.757C113.233 120.109 111.908 117.512 111.133 115.299Z" fill="#F3A94B"/>
<path d="M131.172 101.949C132.276 100.905 133.274 99.7805 134.248 98.6158C136.086 100.114 137.978 102.05 139.2 104.094C138.168 105.319 137.072 106.488 135.916 107.597L135.744 107.687C135.309 107.492 134.769 106.207 134.445 105.765C133.45 104.407 132.322 103.175 131.172 101.949Z" fill="#F3A94B"/>
<path d="M134.989 97.7546C135.803 96.671 136.62 95.597 137.349 94.4535C139.358 95.7706 141.073 97.489 142.385 99.501C141.695 100.792 140.848 101.953 139.975 103.124C138.584 101.053 136.83 99.4133 134.989 97.7546Z" fill="#F3A94B"/>
<path d="M138.044 93.4781C138.786 92.2894 139.496 91.08 140.106 89.8178C141.888 90.9476 143.51 92.4203 144.626 94.2141C144.193 95.6361 143.711 96.9546 143.046 98.2851C141.624 96.4185 139.923 94.8716 138.044 93.4781Z" fill="#F3A94B"/>
<path d="M141.97 84.8081C143.654 86.1703 144.552 87.5515 145.033 89.6619C145.151 90.6049 145.089 91.5363 144.986 92.4783C144.484 92.1065 144.039 91.5753 143.579 91.1469C142.638 90.27 141.684 89.5053 140.604 88.8074C141.181 87.499 141.654 86.2054 141.97 84.8081Z" fill="#F3A94B"/>
<path d="M128.725 101.334C128.975 101.006 129.366 100.696 129.662 100.402C130.069 100.812 130.743 101.316 130.957 101.85C130.942 102.111 130.933 102.219 130.737 102.417C130.557 102.598 130.475 102.639 130.228 102.623C129.684 102.238 129.303 101.655 128.725 101.334Z" fill="#DA8E54"/>
<path d="M119.302 108.695L120.414 107.943C120.629 108.413 121.031 108.881 121.186 109.366C121.257 109.585 121.259 109.849 121.11 110.039C120.943 110.253 120.804 110.261 120.552 110.264C120.02 109.966 119.641 109.204 119.302 108.695Z" fill="#DA8E54"/>
<path d="M135.618 93.3119L136.303 92.2702C136.879 92.6795 137.452 93.0954 138.033 93.4973C137.804 93.817 137.563 94.1337 137.348 94.4623C136.759 94.0946 136.172 93.7322 135.618 93.3119Z" fill="#DA8E54"/>
<path d="M132.509 97.3711L133.341 96.4038C133.89 96.8387 134.414 97.2881 134.934 97.7565L134.263 98.5866C133.673 98.1893 133.088 97.784 132.509 97.3711Z" fill="#DA8E54"/>
<path d="M109.332 113.863L110.432 113.444C110.754 114.013 110.897 114.648 111.132 115.254L110.059 115.71C109.802 115.1 109.559 114.484 109.332 113.863Z" fill="#DA8E54"/>
<path d="M124.255 105.136L125.146 104.402C125.476 104.84 126.107 105.446 126.217 105.977C126.138 106.276 126.105 106.309 125.874 106.517C125.609 106.553 125.502 106.562 125.28 106.396C124.905 106.115 124.542 105.516 124.255 105.136Z" fill="#DA8E54"/>
<path d="M138.28 88.8401L138.81 87.7646C139.416 88.0989 140.055 88.4121 140.605 88.8326L140.081 89.812C139.499 89.4636 138.919 89.0761 138.28 88.8401Z" fill="#DA8E54"/>
<path d="M114.52 111.507C114.831 111.346 115.176 111.199 115.464 111.002L116.343 112.875L115.336 113.404C115.019 112.778 114.741 112.176 114.52 111.507Z" fill="#DA8E54"/>
<path d="M95.0651 116.505C96.4393 116.548 97.8145 116.525 99.1864 116.436L100.135 116.297C101.577 116.075 103.026 115.851 104.432 115.456L105.443 115.174C106.762 114.808 108.05 114.342 109.332 113.863C109.56 114.484 109.802 115.1 110.059 115.71C110.974 118.119 112.213 120.17 113.717 122.254L114.929 121.758C116.481 121.134 117.964 120.384 119.446 119.611L120.545 118.982C122.005 118.128 123.442 117.237 124.856 116.308L125.786 115.663C127.189 114.726 128.594 113.774 129.896 112.699L130.807 112.012C132.224 110.914 133.593 109.757 134.912 108.544C135.258 108.238 135.598 107.933 135.916 107.597C137.072 106.488 138.168 105.319 139.2 104.094L139.975 103.125C140.848 101.953 141.695 100.792 142.385 99.5015C142.641 99.1158 142.839 98.6984 143.046 98.2856C143.711 96.955 144.193 95.6365 144.626 94.2146C144.781 93.636 144.905 93.0725 144.986 92.4786C145.089 91.5366 145.151 90.6052 145.033 89.6622C145.802 89.6334 146.545 89.6623 147.311 89.719C147.379 92.2935 146.914 94.8543 145.944 97.2401C141.419 108.372 127.869 118.348 117.063 122.896C111.692 125.156 104.111 127.095 98.447 124.788L98.9237 122.882C98.6616 122.612 98.2218 122.407 97.9211 122.154C96.6209 121.063 95.9353 119.937 95.3676 118.359C95.217 117.745 95.1406 117.132 95.0651 116.505Z" fill="#BC3F2E"/>
<path d="M95.0652 116.505C96.4394 116.548 97.8146 116.525 99.1865 116.436L100.135 116.297C101.577 116.075 103.026 115.851 104.432 115.455L105.443 115.174C106.762 114.808 108.05 114.342 109.332 113.863C109.56 114.484 109.802 115.1 110.059 115.71C110.974 118.119 112.213 120.17 113.717 122.254C112.359 122.687 111.006 123.11 109.626 123.468C109.106 123.594 108.588 123.679 108.059 123.754C106.602 123.999 105.19 124.1 103.714 124.046C103.123 124.04 102.568 123.973 101.985 123.876C100.906 123.66 99.9352 123.3 98.9238 122.882C98.6616 122.612 98.2218 122.406 97.9212 122.154C96.621 121.063 95.9354 119.937 95.3677 118.359C95.217 117.745 95.1407 117.132 95.0652 116.505Z" fill="#E78E24"/>
<path d="M106.073 117.062C107.426 116.698 108.742 116.186 110.059 115.71C110.975 118.119 112.214 120.169 113.717 122.254C112.359 122.687 111.006 123.11 109.626 123.468C107.865 121.623 106.864 119.458 106.073 117.062Z" fill="#F3A94B"/>
<path d="M100.689 118.124C102.097 117.928 103.495 117.659 104.876 117.319C105.408 118.781 105.997 120.186 106.763 121.543C107.061 122.069 107.977 123.257 108.059 123.753C106.603 123.999 105.19 124.1 103.715 124.046C102.386 122.24 101.071 120.394 100.689 118.124Z" fill="#F3A94B"/>
<path d="M104.433 115.456L105.443 115.174C105.762 115.727 105.894 116.42 106.065 117.033L104.883 117.328C104.709 116.705 104.549 116.092 104.433 115.456Z" fill="#DA8E54"/>
<path d="M99.1866 116.436L100.136 116.297C100.477 116.845 100.552 117.526 100.669 118.151L99.4969 118.272C99.2922 117.668 99.181 117.073 99.1866 116.436Z" fill="#DA8E54"/>
</g>
<defs>
<clipPath id="clip0_3123_41330">
<rect width="144" height="216" fill="white" transform="translate(0 60.3984) rotate(-35.8801)"/>
</clipPath>
</defs>
</svg>
