<svg width="85" height="85" viewBox="0 0 85 85" fill="none" xmlns="http://www.w3.org/2000/svg">
<path d="M64.8036 32.1495V24.2349C64.8226 24.1592 64.8325 24.083 64.833 24.0064C64.8512 21.1183 51.5872 18.6964 35.2069 18.5969C18.8265 18.4974 5.53291 20.758 5.51468 23.6461C5.51409 23.7419 5.52819 23.8371 5.55645 23.9318H5.54407V33.6071C5.54407 35.6432 11.7841 37.415 20.984 38.3272V46.1935C11.667 47.019 5.32511 48.714 5.31252 50.7082C5.31193 50.8039 5.32606 50.8992 5.35429 50.9938H5.34192V60.6691C5.34192 63.6379 18.6076 66.0447 34.9717 66.0447C51.3358 66.0447 64.6015 63.6379 64.6015 60.6691V51.297C64.6114 51.2575 64.6188 51.2179 64.6237 51.1781C73.922 50.2712 80.2436 48.4896 80.2436 46.4403V37.0681C80.2626 36.9924 80.2725 36.9162 80.273 36.8396C80.2855 34.8557 74.0307 33.0918 64.8036 32.1495Z" fill="#FBBE12"/>
<path d="M34.9371 56.1184C34.6627 56.1168 34.3892 56.1144 34.1166 56.1115L33.8826 57.6224C33.874 57.6784 33.7917 57.6784 33.783 57.6224L33.5479 56.1044C18.3503 55.8885 6.15164 53.6739 5.35271 50.9946H5.34033V60.6699C5.34033 63.6387 18.606 66.0455 34.9701 66.0455C51.3342 66.0455 64.5999 63.6387 64.5999 60.6699V51.2978C63.9033 54.0756 50.8828 56.2153 34.9371 56.1184Z" fill="#F5A10F"/>
<path d="M62.0337 54.9095C62.0337 54.7468 61.8992 54.6147 61.7331 54.6147C61.5671 54.6147 61.4326 54.7468 61.4326 54.9095V60.7105C61.4326 60.8733 61.5671 61.0053 61.7331 61.0053C61.8992 61.0053 62.0337 60.8733 62.0337 60.7105V54.9095Z" fill="#DB8D07"/>
<path d="M57.7104 56.224C57.7104 56.0612 57.5759 55.9292 57.4099 55.9292C57.2439 55.9292 57.1094 56.0612 57.1094 56.224V62.025C57.1094 62.1877 57.2439 62.3198 57.4099 62.3198C57.5759 62.3198 57.7104 62.1877 57.7104 62.025V56.224Z" fill="#DB8D07"/>
<path d="M52.813 57.2245C52.813 57.0617 52.6785 56.9297 52.5124 56.9297C52.3464 56.9297 52.2119 57.0617 52.2119 57.2245V63.0255C52.2119 63.1882 52.3464 63.3203 52.5124 63.3203C52.6785 63.3203 52.813 63.1882 52.813 63.0255V57.2245Z" fill="#DB8D07"/>
<path d="M47.9223 57.7689C47.9223 57.6062 47.7878 57.4741 47.6218 57.4741C47.4558 57.4741 47.3213 57.6062 47.3213 57.7689V63.5699C47.3213 63.7327 47.4558 63.8647 47.6218 63.8647C47.7878 63.8647 47.9223 63.7327 47.9223 63.5699V57.7689Z" fill="#DB8D07"/>
<path d="M43.0249 58.1381C43.0249 57.9753 42.8904 57.8433 42.7244 57.8433C42.5583 57.8433 42.4238 57.9753 42.4238 58.1381V63.9391C42.4238 64.1018 42.5583 64.2338 42.7244 64.2338C42.8904 64.2338 43.0249 64.1018 43.0249 63.9391V58.1381Z" fill="#DB8D07"/>
<path d="M38.1343 58.3378C38.1343 58.175 37.9998 58.043 37.8337 58.043C37.6677 58.043 37.5332 58.175 37.5332 58.3378V64.1388C37.5332 64.3015 37.6677 64.4336 37.8337 64.4336C37.9998 64.4336 38.1343 64.3015 38.1343 64.1388V58.3378Z" fill="#DB8D07"/>
<path d="M8.50731 54.9095C8.50731 54.7468 8.3728 54.6147 8.20678 54.6147C8.04075 54.6147 7.90625 54.7468 7.90625 54.9095V60.7105C7.90625 60.8733 8.04075 61.0053 8.20678 61.0053C8.3728 61.0053 8.50731 60.8733 8.50731 60.7105V54.9095Z" fill="#DB8D07"/>
<path d="M12.831 56.224C12.831 56.0612 12.6965 55.9292 12.5305 55.9292C12.3645 55.9292 12.23 56.0612 12.23 56.224V62.025C12.23 62.1877 12.3645 62.3198 12.5305 62.3198C12.6965 62.3198 12.831 62.1877 12.831 62.025V56.224Z" fill="#DB8D07"/>
<path d="M17.7285 57.2245C17.7285 57.0617 17.594 56.9297 17.428 56.9297C17.2619 56.9297 17.1274 57.0617 17.1274 57.2245V63.0255C17.1274 63.1882 17.2619 63.3203 17.428 63.3203C17.594 63.3203 17.7285 63.1882 17.7285 63.0255V57.2245Z" fill="#DB8D07"/>
<path d="M22.0176 63.5699C22.0176 63.7326 22.1521 63.8647 22.3181 63.8647C22.4841 63.8647 22.6186 63.7326 22.6186 63.5699V61.2769L22.0176 61.3665V63.5699Z" fill="#DB8D07"/>
<path d="M22.6186 57.7689C22.6186 57.6062 22.4841 57.4741 22.3181 57.4741C22.1521 57.4741 22.0176 57.6062 22.0176 57.7689V61.1113L22.6186 61.2008V57.7689Z" fill="#DB8D07"/>
<path d="M27.5161 58.1381C27.5161 57.9753 27.3816 57.8433 27.2156 57.8433C27.0495 57.8433 26.915 57.9753 26.915 58.1381V63.9391C26.915 64.1018 27.0495 64.2338 27.2156 64.2338C27.3816 64.2338 27.5161 64.1018 27.5161 63.9391V58.1381Z" fill="#DB8D07"/>
<path d="M32.4067 58.3378C32.4067 58.175 32.2722 58.043 32.1062 58.043C31.9402 58.043 31.8057 58.175 31.8057 58.3378V64.1388C31.8057 64.3015 31.9402 64.4336 32.1062 64.4336C32.2722 64.4336 32.4067 64.3015 32.4067 64.1388V58.3378Z" fill="#DB8D07"/>
<path d="M69.0902 40.859L68.8889 42.1586C68.8802 42.2145 68.7979 42.2145 68.7893 42.1586L68.598 40.9239C63.6 41.5676 57.3529 41.9303 50.5777 41.8891C38.299 41.8145 27.7714 40.435 23.2767 38.5323C24.8783 38.6598 26.554 38.7623 28.2888 38.8372C29.3447 39.0948 30.6017 39.3357 32.0587 39.5592C33.746 39.818 35.6229 40.0399 37.6415 40.2217L37.591 39.896C37.5738 39.785 37.4851 39.698 37.372 39.6811L36.0091 39.478L35.9891 39.4676C34.6261 39.3232 33.3412 39.1591 32.1515 38.9766C32.0991 38.9686 32.0471 38.9605 31.9953 38.9524C33.0386 38.9726 34.098 38.983 35.1708 38.983C35.9873 38.983 36.796 38.977 37.5958 38.9652L37.7981 37.6588C37.8038 37.6219 37.858 37.6219 37.8637 37.6588L38.0649 38.9576C39.2823 38.9362 40.4781 38.9014 41.6479 38.8541C42.4568 39.2785 44.6344 39.5155 46.4169 39.1852C47.2303 39.0345 48.1972 38.8142 49.1098 38.3521C49.8614 38.2793 50.5937 38.2008 51.3049 38.1168C52.0849 38.7556 53.1123 39.0472 53.974 39.2425C56.7764 39.8777 61.3562 38.9047 58.3216 37.9732C62.5599 38.3053 64.7893 36.9291 61.1719 36.4555C60.9793 36.4303 60.7765 36.405 60.5569 36.381C63.0767 35.6235 64.5956 34.7441 64.7812 33.8031C66.3125 33.9585 67.7499 34.1384 69.07 34.3409C74.5285 35.1783 76.4608 36.1975 76.4569 36.8158C76.4531 37.4054 74.6839 38.3382 69.7764 39.0922C69.857 39.1253 69.9426 39.1493 70.0319 39.1626L71.5535 39.3893C75.2024 38.7017 77.0515 37.8397 77.0579 36.8194C77.0656 35.5931 74.4094 34.5633 69.1628 33.7583C67.8207 33.5524 66.3586 33.3699 64.8006 33.2124V24.2353C64.104 27.0131 51.0835 29.1528 35.1378 29.0559C30.7246 29.0292 26.5376 28.8338 22.7756 28.5061C22.8126 28.5488 22.8647 28.5784 22.924 28.5873L24.1898 28.7759C24.2247 28.7811 24.2247 28.8305 24.1898 28.8357L22.924 29.0243C22.819 29.04 22.7365 29.1209 22.7206 29.2239L22.5365 30.4126C22.6949 30.4209 22.8207 30.5495 22.8207 30.707V36.5079C22.8207 36.6708 22.6862 36.8027 22.5202 36.8027C22.3542 36.8027 22.2197 36.6708 22.2197 36.5079V30.7069C22.2197 30.5643 22.3228 30.4455 22.4599 30.4181L22.275 29.2239C22.259 29.1208 22.1766 29.04 22.0716 29.0243L20.8058 28.8357C20.7709 28.8305 20.7709 28.7811 20.8058 28.7759L22.0716 28.5872C22.1507 28.5755 22.2169 28.5267 22.2516 28.4593C12.7909 27.5953 6.13644 25.8875 5.55339 23.9321H5.54102V33.6074C5.54102 35.6436 11.7811 37.4153 20.9809 38.3276V46.4406C20.9809 46.7081 21.0887 46.9712 21.2967 47.2282C19.5592 47.3749 17.9344 47.5535 16.4546 47.7621C11.1983 48.5033 8.52917 49.5006 8.52149 50.727C8.51376 51.9532 11.1701 52.9831 16.4166 53.788C20.454 54.4073 25.5774 54.8152 31.1286 54.9675L31.0659 54.9582C31.0089 54.9497 31.0089 54.869 31.0659 54.8605L32.6385 54.6261C32.822 54.5987 32.99 54.5266 33.1306 54.4213C26.8453 54.32 20.9993 53.8943 16.5094 53.2055C11.0509 52.3682 9.11863 51.3489 9.12254 50.7305C9.12646 50.1124 11.0714 49.1166 16.5402 48.3457C18.1634 48.1168 19.9628 47.9244 21.895 47.7706C23.3917 48.8374 26.6469 49.7768 31.0678 50.4812C27.5822 50.2152 25.9419 50.3355 24.6916 50.4615C20.9082 50.8427 22.5937 52.2677 26.9401 52.0428C23.5593 52.8943 27.7399 53.9765 30.7748 53.4141C31.6712 53.248 32.7539 52.9975 33.7451 52.432L33.7816 52.1967C33.7903 52.1407 33.8725 52.1407 33.8812 52.1967L33.9032 52.3386C34.269 52.1148 34.62 51.8456 34.9417 51.5189C35.6891 52.7646 37.163 53.2065 38.3319 53.4714C41.1343 54.1066 45.7141 53.1336 42.6795 52.2021C44.7374 52.3634 46.3216 52.1219 46.993 51.7765C48.1787 51.8027 49.386 51.8162 50.6107 51.8162C54.0798 51.8162 57.4095 51.708 60.5032 51.5093C59.7648 52.0969 57.6431 52.8309 53.3972 53.4295C48.4685 54.1244 41.9172 54.4845 34.9462 54.4415C34.816 54.4407 34.686 54.4397 34.5561 54.4387C34.6917 54.5345 34.8511 54.6003 35.0243 54.6261L36.5969 54.8605C36.6539 54.869 36.6539 54.9497 36.5969 54.9582L36.0847 55.0345C42.6547 55.0332 48.7961 54.6738 53.4828 54.0131C58.1455 53.3556 60.7723 52.4965 61.3115 51.4549C62.4503 51.3748 63.555 51.2824 64.6207 51.1784C73.9191 50.2715 80.2406 48.49 80.2406 46.4406V37.0685C79.8497 38.627 75.5796 39.9846 69.0902 40.859Z" fill="#F5A10F"/>
<path d="M50.5906 40.2125C46.2194 40.1859 42.0141 40.0033 38.2724 39.6846C38.1688 39.7082 38.0893 39.7914 38.0731 39.8958L38.0176 40.2545C41.8269 40.5853 46.1216 40.7749 50.5869 40.802C50.9568 40.8042 51.3251 40.8054 51.6926 40.8054C57.8156 40.8054 63.568 40.4946 68.1201 39.9186C67.9838 39.8215 67.8232 39.7548 67.6485 39.7288L66.3293 39.5322C61.8213 40.0083 56.3487 40.2476 50.5906 40.2125Z" fill="#F5A10F"/>
<path d="M77.6738 40.6801C77.6738 40.5172 77.5393 40.3853 77.3733 40.3853C77.2073 40.3853 77.0728 40.5172 77.0728 40.6801V46.4809C77.0728 46.6437 77.2073 46.7757 77.3733 46.7757C77.5393 46.7757 77.6738 46.6437 77.6738 46.4809V40.6801Z" fill="#DB8D07"/>
<path d="M72.7495 46.5588V47.7963C72.7495 47.959 72.884 48.0911 73.05 48.0911C73.2161 48.0911 73.3506 47.959 73.3506 47.7963V46.4673L73.3397 46.4709L72.7495 46.5588Z" fill="#DB8D07"/>
<path d="M73.3506 46.4134V41.994C73.3506 41.8312 73.2161 41.6992 73.05 41.6992C72.884 41.6992 72.7495 41.8312 72.7495 41.994V46.3218L73.3397 46.4098L73.3506 46.4134Z" fill="#DB8D07"/>
<path d="M68.4599 42.9945C68.4599 42.8318 68.3254 42.6997 68.1594 42.6997C67.9934 42.6997 67.8589 42.8318 67.8589 42.9945V48.7955C67.8589 48.9582 67.9934 49.0903 68.1594 49.0903C68.3254 49.0903 68.4599 48.9582 68.4599 48.7955V42.9945Z" fill="#DB8D07"/>
<path d="M62.9614 49.3412C62.9614 49.5039 63.0959 49.636 63.262 49.636C63.428 49.636 63.5625 49.5039 63.5625 49.3412V44.2295L62.9614 44.3191V49.3412Z" fill="#DB8D07"/>
<path d="M63.5625 43.5399C63.5625 43.3772 63.428 43.2451 63.262 43.2451C63.0959 43.2451 62.9614 43.3772 62.9614 43.5399V43.9002L63.5625 43.9897V43.5399Z" fill="#DB8D07"/>
<path d="M58.0708 49.7105C58.0708 49.8733 58.2053 50.0053 58.3713 50.0053C58.5374 50.0053 58.6719 49.8733 58.6719 49.7105V43.9095C58.6719 43.7468 58.5374 43.6147 58.3713 43.6147C58.2053 43.6147 58.0708 43.7468 58.0708 43.9095V49.7105Z" fill="#DB8D07"/>
<path d="M53.1733 49.9102C53.1733 50.073 53.3078 50.205 53.4739 50.205C53.6399 50.205 53.7744 50.073 53.7744 49.9102V44.1093C53.7744 43.9465 53.6399 43.8145 53.4739 43.8145C53.3078 43.8145 53.1733 43.9465 53.1733 44.1093V49.9102Z" fill="#DB8D07"/>
<path d="M23.8469 46.7757C24.0129 46.7757 24.1474 46.6437 24.1474 46.4809V40.6801C24.1474 40.5172 24.0129 40.3853 23.8469 40.3853C23.6809 40.3853 23.5464 40.5172 23.5464 40.6801V46.4809C23.5464 46.6437 23.6809 46.7757 23.8469 46.7757Z" fill="#DB8D07"/>
<path d="M28.4712 47.7949V41.994C28.4712 41.8312 28.3367 41.6992 28.1706 41.6992C28.0046 41.6992 27.8701 41.8312 27.8701 41.994V47.7949C27.8701 47.9577 28.0046 48.0897 28.1706 48.0897C28.3367 48.0897 28.4712 47.9577 28.4712 47.7949Z" fill="#DB8D07"/>
<path d="M33.0681 49.0903C33.2341 49.0903 33.3686 48.9582 33.3686 48.7955V42.9945C33.3686 42.8318 33.2341 42.6997 33.0681 42.6997C32.9021 42.6997 32.7676 42.8318 32.7676 42.9945V48.7955C32.7676 48.9582 32.9021 49.0903 33.0681 49.0903Z" fill="#DB8D07"/>
<path d="M37.9656 43.2451C37.7995 43.2451 37.665 43.3772 37.665 43.5399V49.3409C37.665 49.5036 37.7995 49.6357 37.9656 49.6357C38.1316 49.6357 38.2661 49.5036 38.2661 49.3409V43.5399C38.2661 43.3771 38.1316 43.2451 37.9656 43.2451Z" fill="#DB8D07"/>
<path d="M42.5552 49.7105C42.5552 49.8733 42.6897 50.0053 42.8557 50.0053C43.0217 50.0053 43.1562 49.8733 43.1562 49.7105V43.9095C43.1562 43.7468 43.0217 43.6147 42.8557 43.6147C42.6897 43.6147 42.5552 43.7468 42.5552 43.9095V49.7105Z" fill="#DB8D07"/>
<path d="M47.4526 49.9102C47.4526 50.073 47.5871 50.205 47.7532 50.205C47.9192 50.205 48.0537 50.073 48.0537 49.9102V44.1093C48.0537 43.9465 47.9192 43.8145 47.7532 43.8145C47.5871 43.8145 47.4526 43.9465 47.4526 44.1093V49.9102Z" fill="#DB8D07"/>
<path d="M22.5274 27.1468L22.5699 27.4219C26.3803 27.753 30.6766 27.9427 35.1437 27.9698C35.5136 27.972 35.8819 27.9731 36.2494 27.9731C42.8333 27.9731 48.9887 27.6139 53.684 26.9518C58.9403 26.2107 61.6094 25.2132 61.6171 23.987C61.6248 22.7607 58.9685 21.7308 53.722 20.9259C48.7738 20.1668 42.1945 19.7254 35.196 19.6829C28.1979 19.6417 21.6133 20.0019 16.6558 20.7008C11.3995 21.4419 8.7304 22.4394 8.72267 23.6657C8.71495 24.892 11.3712 25.9218 16.6178 26.7267C18.3677 26.9951 20.3215 27.2239 22.4258 27.4093L22.4664 27.1468C22.4717 27.1125 22.522 27.1125 22.5274 27.1468Z" fill="#F5A10F"/>
<path d="M9.32471 23.6678C9.32863 23.0495 11.2736 22.054 16.7423 21.2829C17.1018 21.2323 17.47 21.1834 17.8463 21.1363L17.9217 20.6495C17.9303 20.5935 18.0126 20.5935 18.0213 20.6495L18.092 21.1059C22.5619 20.561 28.1486 20.2676 34.0906 20.2676C34.4565 20.2676 34.8249 20.2687 35.1933 20.271C42.1629 20.3133 48.7106 20.7522 53.6302 21.5069C59.0887 22.3444 61.021 23.3636 61.0171 23.9818C61.0132 24.6001 59.0682 25.5958 53.5995 26.3669C48.6707 27.0617 42.1159 27.4199 35.1485 27.3788C28.1789 27.3365 21.6313 26.8975 16.7116 26.1428C11.2531 25.3053 9.3208 24.2861 9.32471 23.6678Z" fill="#FBBE12"/>
<path d="M61.6401 33.6475C61.6401 33.8104 61.7746 33.9423 61.9407 33.9423C62.1067 33.9423 62.2412 33.8104 62.2412 33.6475V27.8466C62.2412 27.6837 62.1067 27.5518 61.9407 27.5518C61.7746 27.5518 61.6401 27.6837 61.6401 27.8466V33.6475Z" fill="#DB8D07"/>
<path d="M57.3101 34.9624C57.3101 35.1252 57.4446 35.2572 57.6106 35.2572C57.7766 35.2572 57.9111 35.1252 57.9111 34.9624V29.1615C57.9111 28.9987 57.7766 28.8667 57.6106 28.8667C57.4446 28.8667 57.3101 28.9986 57.3101 29.1615V34.9624Z" fill="#DB8D07"/>
<path d="M52.72 29.8662C52.5539 29.8662 52.4194 29.9981 52.4194 30.161V35.962C52.4194 36.1249 52.5539 36.2568 52.72 36.2568C52.886 36.2568 53.0205 36.1249 53.0205 35.962V30.161C53.0205 29.9982 52.886 29.8662 52.72 29.8662Z" fill="#DB8D07"/>
<path d="M48.123 36.5088V30.7079C48.123 30.545 47.9885 30.4131 47.8225 30.4131C47.6565 30.4131 47.522 30.545 47.522 30.7079V36.5088C47.522 36.6717 47.6565 36.8036 47.8225 36.8036C47.9885 36.8036 48.123 36.6717 48.123 36.5088Z" fill="#DB8D07"/>
<path d="M42.6313 36.878C42.6313 37.0408 42.7659 37.1728 42.9319 37.1728C43.0979 37.1728 43.2324 37.0408 43.2324 36.878V31.077C43.2324 30.9142 43.0979 30.7822 42.9319 30.7822C42.7659 30.7822 42.6313 30.9142 42.6313 31.077V36.878Z" fill="#DB8D07"/>
<path d="M37.7339 37.0767C37.7339 37.2396 37.8684 37.3715 38.0344 37.3715C38.2004 37.3715 38.3349 37.2396 38.3349 37.0767V31.2758C38.3349 31.1129 38.2004 30.981 38.0344 30.981C37.8684 30.981 37.7339 31.1129 37.7339 31.2758V37.0767Z" fill="#DB8D07"/>
<path d="M8.70799 27.8466C8.70799 27.6837 8.57349 27.5518 8.40746 27.5518C8.24144 27.5518 8.10693 27.6837 8.10693 27.8466V33.6475C8.10693 33.8104 8.24144 33.9423 8.40746 33.9423C8.57349 33.9423 8.70799 33.8104 8.70799 33.6475V27.8466Z" fill="#DB8D07"/>
<path d="M12.4375 34.9625C12.4375 35.1254 12.572 35.2573 12.738 35.2573C12.904 35.2573 13.0386 35.1254 13.0386 34.9625V31.4753L12.4375 31.3857V34.9625Z" fill="#DB8D07"/>
<path d="M13.0386 29.1615C13.0386 28.9987 12.9041 28.8667 12.738 28.8667C12.572 28.8667 12.4375 28.9986 12.4375 29.1615V31.2156L13.0386 31.1261V29.1615Z" fill="#DB8D07"/>
<path d="M17.9292 30.161C17.9292 29.9982 17.7947 29.8662 17.6287 29.8662C17.4627 29.8662 17.3281 29.9981 17.3281 30.161V35.962C17.3281 36.1249 17.4626 36.2568 17.6287 36.2568C17.7947 36.2568 17.9292 36.1249 17.9292 35.962V30.161Z" fill="#DB8D07"/>
<path d="M22.4659 30.466L22.4585 30.4186C22.3214 30.4459 22.2183 30.5648 22.2183 30.7075V36.5084C22.2183 36.6713 22.3528 36.8032 22.5188 36.8032C22.6848 36.8032 22.8193 36.6713 22.8193 36.5084V30.7075C22.8193 30.5499 22.6935 30.4214 22.535 30.4131L22.5268 30.466C22.5215 30.5003 22.4712 30.5003 22.4659 30.466Z" fill="#DB8D07"/>
<path d="M27.1157 36.878C27.1157 37.0408 27.2502 37.1728 27.4163 37.1728C27.5823 37.1728 27.7168 37.0408 27.7168 36.878V31.077C27.7168 30.9142 27.5823 30.7822 27.4163 30.7822C27.2502 30.7822 27.1157 30.9142 27.1157 31.077V36.878Z" fill="#DB8D07"/>
<path d="M32.0132 37.0767C32.0132 37.2396 32.1477 37.3715 32.3137 37.3715C32.4797 37.3715 32.6142 37.2396 32.6142 37.0767V31.2758C32.6142 31.1129 32.4797 30.981 32.3137 30.981C32.1477 30.981 32.0132 31.1129 32.0132 31.2758V37.0767Z" fill="#DB8D07"/>
<path d="M38.5379 26.4094C41.3402 27.0445 45.92 26.0716 42.8855 25.1401C47.1237 25.4721 49.3532 24.0959 45.7358 23.6224C44.3867 23.4458 42.5407 23.264 37.9037 23.5695C40.9433 22.8273 41.5201 22.3236 41.7376 21.9591C42.3 21.017 36.5796 20.5787 35.166 21.7323C33.9412 20.6517 28.1766 20.9327 28.5944 21.9591C28.7389 22.3142 29.1027 22.7625 31.9877 23.4769C28.006 23.1372 26.2302 23.2652 24.8975 23.3994C21.1142 23.7806 22.7996 25.2057 27.146 24.9807C23.7651 25.8322 27.9458 26.9144 30.9807 26.3521C32.2593 26.1152 33.9172 25.7065 35.1476 24.4568C35.895 25.7025 37.3689 26.1444 38.5379 26.4094Z" fill="#F5A10F"/>
<path d="M16.778 23.0798L15.2054 23.3142C15.1483 23.3227 15.1483 23.4034 15.2054 23.412L16.778 23.6463C17.2448 23.7158 17.6112 24.0753 17.6822 24.5332L17.9211 26.0758C17.9298 26.1318 18.012 26.1318 18.0207 26.0758L18.2596 24.5332C18.3305 24.0753 18.6969 23.7159 19.1638 23.6463L20.7363 23.412C20.7934 23.4034 20.7934 23.3227 20.7363 23.3142L19.1637 23.0798C18.6969 23.0103 18.3305 22.6509 18.2596 22.1929L18.0913 21.1068L18.0207 20.6504C18.012 20.5944 17.9297 20.5944 17.921 20.6504L17.8457 21.1372L17.6821 22.193C17.6112 22.6509 17.2448 23.0102 16.778 23.0798Z" fill="white"/>
<path d="M14.8044 31.8824C14.8265 31.7391 14.9412 31.6267 15.0872 31.6049L16.8473 31.3426C16.8958 31.3354 16.8958 31.2667 16.8473 31.2595L15.0872 30.9972C14.9412 30.9754 14.8265 30.863 14.8044 30.7197L14.537 28.9933C14.5296 28.9456 14.4596 28.9456 14.4522 28.9933L14.1848 30.7197C14.1626 30.863 14.048 30.9754 13.902 30.9972L13.0342 31.1265L12.4331 31.2161L12.1419 31.2595C12.0933 31.2667 12.0933 31.3354 12.1419 31.3426L12.4331 31.386L13.0342 31.4756L13.902 31.6049C14.048 31.6266 14.1626 31.7391 14.1848 31.8823L14.4522 33.6088C14.4596 33.6565 14.5295 33.6565 14.537 33.6088L14.8044 31.8824Z" fill="white"/>
<path d="M22.571 27.4209L22.5284 27.1458C22.5231 27.1116 22.4728 27.1116 22.4675 27.1458L22.4268 27.4083L22.2752 28.3874C22.2712 28.4129 22.2632 28.437 22.2518 28.4591C22.2171 28.5264 22.1508 28.5752 22.0718 28.587L20.806 28.7756C20.7711 28.7808 20.7711 28.8302 20.806 28.8354L22.0718 29.024C22.1768 29.0397 22.2592 29.1206 22.2752 29.2236L22.4601 30.4178L22.4675 30.4652C22.4728 30.4995 22.5231 30.4995 22.5284 30.4652L22.5366 30.4123L22.7207 29.2236C22.7367 29.1206 22.8191 29.0397 22.9242 29.024L24.19 28.8354C24.2249 28.8302 24.2249 28.7808 24.19 28.7756L22.9242 28.587C22.8649 28.5781 22.8128 28.5485 22.7758 28.5058C22.7473 28.4729 22.7277 28.4323 22.7207 28.3874L22.571 27.4209Z" fill="white"/>
<path d="M70.0338 39.7293L71.6064 39.4949C71.6635 39.4864 71.6635 39.4057 71.6064 39.3972L71.5554 39.3896L70.0338 39.1628C69.9446 39.1495 69.8589 39.1256 69.7784 39.0924C69.4377 38.9521 69.1871 38.6463 69.1297 38.2759L68.8908 36.7334C68.8821 36.6774 68.7999 36.6774 68.7912 36.7334L68.5523 38.276C68.4813 38.7339 68.115 39.0933 67.6481 39.1629L66.0755 39.3972C66.0184 39.4057 66.0184 39.4864 66.0755 39.4949L66.3289 39.5327L67.6481 39.7293C67.8228 39.7553 67.9834 39.8219 68.1197 39.9191C68.3477 40.0816 68.5079 40.3296 68.5522 40.6162L68.5999 40.9241L68.7912 42.1588C68.7998 42.2147 68.8821 42.2147 68.8907 42.1588L69.092 40.8592L69.1297 40.6162C69.2006 40.1582 69.567 39.7988 70.0338 39.7293Z" fill="white"/>
<path d="M59.387 44.1512L61.147 44.4135C61.2931 44.4352 61.4077 44.5477 61.4299 44.6909L61.6973 46.4174C61.7046 46.4651 61.7746 46.4651 61.782 46.4174L62.0494 44.6909C62.0716 44.5477 62.1863 44.4353 62.3323 44.4135L62.9667 44.3189L63.5678 44.2293L64.0924 44.1512C64.1409 44.1439 64.1409 44.0753 64.0924 44.0681L63.5678 43.9899L62.9667 43.9003L62.3323 43.8058C62.1863 43.784 62.0716 43.6716 62.0494 43.5283L61.782 41.8019C61.7746 41.7542 61.7046 41.7542 61.6973 41.8019L61.4299 43.5283C61.4077 43.6716 61.2931 43.784 61.147 43.8058L59.387 44.0681C59.3384 44.0753 59.3384 44.1439 59.387 44.1512Z" fill="white"/>
<path d="M73.3552 46.414L73.3443 46.4104L72.7541 46.3225L72.0785 46.2218C71.9734 46.2061 71.891 46.1253 71.8751 46.0222L71.6828 44.7806C71.6774 44.7463 71.6271 44.7463 71.6218 44.7806L71.4295 46.0222C71.4135 46.1253 71.3311 46.2061 71.2261 46.2218L69.9603 46.4104C69.9254 46.4156 69.9254 46.465 69.9603 46.4702L71.2261 46.6588C71.3311 46.6745 71.4135 46.7554 71.4295 46.8584L71.6218 48.1C71.6271 48.1343 71.6774 48.1343 71.6828 48.1L71.8751 46.8584C71.891 46.7553 71.9735 46.6745 72.0785 46.6588L72.7541 46.5581L73.3443 46.4702L73.3552 46.4666C73.3755 46.4556 73.3755 46.425 73.3552 46.414Z" fill="white"/>
<path d="M33.544 56.0795L33.5478 56.104L33.7829 57.6221C33.7916 57.6781 33.8738 57.6781 33.8825 57.6221L34.1165 56.1111L34.1214 56.0795C34.1923 55.6216 34.5587 55.2622 35.0255 55.1926L36.0859 55.0346L36.5981 54.9583C36.6552 54.9498 36.6552 54.8691 36.5981 54.8606L35.0255 54.6262C34.8523 54.6004 34.6929 54.5346 34.5573 54.4388C34.3275 54.2763 34.166 54.0273 34.1214 53.7393L33.9044 52.3387L33.8825 52.1968C33.8738 52.1408 33.7915 52.1408 33.7829 52.1968L33.7464 52.4321L33.5439 53.7393C33.5009 54.0172 33.349 54.2588 33.1319 54.4214C32.9912 54.5267 32.8233 54.5988 32.6398 54.6262L31.0672 54.8605C31.0101 54.869 31.0101 54.9497 31.0672 54.9582L31.1299 54.9675L32.6398 55.1926C33.1066 55.2622 33.473 55.6216 33.544 56.0795Z" fill="white"/>
<path d="M17.5987 50.9207C17.6378 50.9148 17.6378 50.8594 17.5987 50.8536L16.1785 50.6419C16.0606 50.6244 15.9681 50.5336 15.9502 50.4181L15.7345 49.0249C15.7285 48.9865 15.672 48.9865 15.6661 49.0249L15.4503 50.4181C15.4324 50.5336 15.3399 50.6244 15.2221 50.6419L13.8018 50.8536C13.7627 50.8594 13.7627 50.9148 13.8018 50.9207L15.2221 51.1323C15.3399 51.1499 15.4324 51.2406 15.4503 51.3562L15.6661 52.7493C15.672 52.7878 15.7285 52.7878 15.7345 52.7493L15.9502 51.3562C15.9681 51.2406 16.0606 51.1499 16.1785 51.1323L17.5987 50.9207Z" fill="white"/>
<path d="M37.8667 41.2327L38.0182 40.2545L38.0737 39.8957C38.0899 39.7913 38.1694 39.7081 38.273 39.6846L38.2928 39.6809L39.6557 39.4778C39.6933 39.4722 39.6933 39.419 39.6557 39.4134L38.2928 39.2103C38.1797 39.1935 38.0909 39.1064 38.0737 38.9954L38.0678 38.9574L37.8667 37.6585C37.861 37.6216 37.8068 37.6216 37.8011 37.6585L37.5987 38.965L37.594 38.9954C37.5768 39.1064 37.4881 39.1935 37.375 39.2103L36.012 39.4134C35.9831 39.4177 35.9765 39.4501 35.9921 39.4674L36.012 39.4778L37.375 39.6809C37.4881 39.6978 37.5768 39.7848 37.594 39.8957L37.6444 40.2214L37.8011 41.2327C37.8067 41.2696 37.8609 41.2696 37.8667 41.2327Z" fill="white"/>
<path d="M22.6749 61.2092L22.6205 61.2011L22.0194 61.1115L21.409 61.0206C21.304 61.0049 21.2216 60.9241 21.2056 60.821L21.0133 59.5794C21.008 59.5451 20.9577 59.5451 20.9524 59.5794L20.7601 60.821C20.7441 60.9241 20.6617 61.0049 20.5567 61.0206L19.2908 61.2092C19.2559 61.2144 19.2559 61.2638 19.2908 61.269L20.5567 61.4576C20.6617 61.4733 20.7441 61.5542 20.7601 61.6572L20.9524 62.8988C20.9576 62.9331 21.008 62.9331 21.0133 62.8988L21.2056 61.6572C21.2216 61.5542 21.304 61.4733 21.409 61.4576L22.0194 61.3667L22.6205 61.2771L22.6749 61.269C22.7098 61.2638 22.7098 61.2144 22.6749 61.2092Z" fill="white"/>
</svg>
