<svg width="49" height="48" viewBox="0 0 49 48" fill="none" xmlns="http://www.w3.org/2000/svg">
<path d="M18.8065 10.816C21.3405 6.272 22.6065 4 24.5005 4C26.3945 4 27.6605 6.272 30.1945 10.816L30.8505 11.992C31.5705 13.284 31.9305 13.93 32.4905 14.356C33.0505 14.782 33.7505 14.94 35.1505 15.256L36.4225 15.544C41.3425 16.658 43.8005 17.214 44.3865 19.096C44.9705 20.976 43.2945 22.938 39.9405 26.86L39.0725 27.874C38.1205 28.988 37.6425 29.546 37.4285 30.234C37.2145 30.924 37.2865 31.668 37.4305 33.154L37.5625 34.508C38.0685 39.742 38.3225 42.358 36.7905 43.52C35.2585 44.684 32.9545 43.622 28.3505 41.502L27.1565 40.954C25.8485 40.35 25.1945 40.05 24.5005 40.05C23.8065 40.05 23.1525 40.35 21.8425 40.954L20.6525 41.502C16.0465 43.622 13.7425 44.682 12.2125 43.522C10.6785 42.358 10.9325 39.742 11.4385 34.508L11.5705 33.156C11.7145 31.668 11.7865 30.924 11.5705 30.236C11.3585 29.546 10.8805 28.988 9.92847 27.876L9.06047 26.86C5.70647 22.94 4.03047 20.978 4.61447 19.096C5.20047 17.214 7.66047 16.656 12.5805 15.544L13.8525 15.256C15.2505 14.94 15.9485 14.782 16.5105 14.356C17.0705 13.93 17.4305 13.284 18.1505 11.992L18.8065 10.816Z" fill="#4F46E5"/>
</svg>
