<svg width="41" height="40" viewBox="0 0 41 40" fill="none" xmlns="http://www.w3.org/2000/svg">
<path d="M20.5 2C20.5333 2 20.5863 1.99897 20.7207 2.08887C20.8908 2.20261 21.1516 2.43952 21.5195 2.91992C22.2795 3.91221 23.1477 5.45957 24.4473 7.79004H24.4482L25.1035 8.96582C25.7365 10.1017 26.3081 11.2094 27.2793 11.9482C28.2653 12.6983 29.4829 12.9293 30.709 13.2061V13.207L31.9805 13.4941C34.5082 14.0665 36.1706 14.4491 37.2959 14.8926C38.3821 15.3207 38.4513 15.609 38.4766 15.6904C38.5083 15.7926 38.6002 16.1092 37.9473 17.1465C37.4459 17.943 36.6807 18.8968 35.6035 20.1719L34.4209 21.5596L33.5527 22.5732L33.5518 22.5742C32.7095 23.5598 31.8831 24.4678 31.5186 25.6396V25.6416C31.1575 26.8059 31.3115 28.0268 31.4395 29.3467V29.3477L31.5713 30.6992V30.7002C31.8305 33.3816 31.9993 35.1744 31.9424 36.4521C31.8856 37.7265 31.6212 37.897 31.582 37.9268L31.5801 37.9277C31.5691 37.9381 31.3932 38.1413 30.2734 37.8203C29.1134 37.4878 27.5525 36.775 25.1865 35.6855L25.1846 35.6846L23.9941 35.1387H23.9951C22.8509 34.6103 21.7354 34.0498 20.5 34.0498C19.2652 34.0499 18.1501 34.6097 17.0049 35.1377L15.8154 35.6855C13.4493 36.7746 11.8877 37.4867 10.7275 37.8193C9.60606 38.1408 9.43054 37.938 9.4209 37.9287H9.42188C9.38079 37.8975 9.11557 37.7258 9.05859 36.4521C9.00147 35.1746 9.16957 33.3827 9.42871 30.7021L9.56055 29.3506L9.56152 29.3486C9.6888 28.0334 9.84303 26.8112 9.48145 25.6484H9.48242C9.12007 24.4692 8.28959 23.5591 7.44727 22.5752L6.58105 21.5605L6.58008 21.5596C4.8606 19.5499 3.72206 18.2102 3.05371 17.1484C2.40099 16.1115 2.49126 15.7933 2.52344 15.6895L2.52441 15.6904C2.54972 15.609 2.61931 15.32 3.70605 14.8916C4.83154 14.448 6.49424 14.0663 9.02148 13.4951L9.02246 13.4941L10.2939 13.207L10.293 13.2061C11.5202 12.9287 12.7323 12.6979 13.7188 11.9502L13.7217 11.9482C14.6928 11.2095 15.2636 10.1016 15.8965 8.96582L15.8975 8.9668L16.5527 7.79004H16.5537C17.8533 5.45958 18.7215 3.9122 19.4814 2.91992C19.8494 2.43952 20.1102 2.2026 20.2803 2.08887C20.4141 1.99939 20.4666 1.99999 20.5 2Z" fill="#E0E7FF" stroke="#E0E7FF" stroke-width="4"/>
</svg>
