<svg width="49" height="48" viewBox="0 0 49 48" fill="none" xmlns="http://www.w3.org/2000/svg">
<g clip-path="url(#clip0_525_125222)">
<path d="M24.5 6C24.5333 6 24.5863 5.99897 24.7207 6.08887C24.8908 6.20261 25.1516 6.43952 25.5195 6.91992C26.2795 7.91221 27.1477 9.45957 28.4473 11.79H28.4482L29.1035 12.9658C29.7365 14.1017 30.3081 15.2094 31.2793 15.9482C32.2653 16.6983 33.4829 16.9293 34.709 17.2061V17.207L35.9805 17.4941C38.5082 18.0665 40.1706 18.4491 41.2959 18.8926C42.3821 19.3207 42.4513 19.609 42.4766 19.6904C42.5083 19.7926 42.6002 20.1092 41.9473 21.1465C41.4459 21.943 40.6807 22.8968 39.6035 24.1719L38.4209 25.5596L37.5527 26.5732L37.5518 26.5742C36.7095 27.5598 35.8831 28.4678 35.5186 29.6396V29.6416C35.1575 30.8059 35.3115 32.0268 35.4395 33.3467V33.3477L35.5713 34.6992V34.7002C35.8305 37.3816 35.9993 39.1744 35.9424 40.4521C35.8856 41.7265 35.6212 41.897 35.582 41.9268L35.5801 41.9277C35.5691 41.9381 35.3932 42.1413 34.2734 41.8203C33.1134 41.4878 31.5525 40.775 29.1865 39.6855L29.1846 39.6846L27.9941 39.1387H27.9951C26.8509 38.6103 25.7354 38.0498 24.5 38.0498C23.2652 38.0499 22.1501 38.6097 21.0049 39.1377L19.8154 39.6855C17.4493 40.7746 15.8877 41.4867 14.7275 41.8193C13.6061 42.1408 13.4305 41.938 13.4209 41.9287H13.4219C13.3808 41.8975 13.1156 41.7258 13.0586 40.4521C13.0015 39.1746 13.1696 37.3827 13.4287 34.7021L13.5605 33.3506L13.5615 33.3486C13.6888 32.0334 13.843 30.8112 13.4814 29.6484H13.4824C13.1201 28.4692 12.2896 27.5591 11.4473 26.5752L10.5811 25.5605L10.5801 25.5596C8.8606 23.5499 7.72206 22.2102 7.05371 21.1484C6.40099 20.1115 6.49126 19.7933 6.52344 19.6895L6.52441 19.6904C6.54972 19.609 6.61931 19.32 7.70605 18.8916C8.83154 18.448 10.4942 18.0663 13.0215 17.4951L13.0225 17.4941L14.2939 17.207L14.293 17.2061C15.5202 16.9287 16.7323 16.6979 17.7188 15.9502L17.7217 15.9482C18.6928 15.2095 19.2636 14.1016 19.8965 12.9658L19.8975 12.9668L20.5527 11.79H20.5537C21.8533 9.45958 22.7215 7.9122 23.4814 6.91992C23.8494 6.43952 24.1102 6.2026 24.2803 6.08887C24.4141 5.99939 24.4666 5.99999 24.5 6Z" fill="#E0E7FF" stroke="#E0E7FF" stroke-width="4"/>
</g>
<defs>
<clipPath id="clip0_525_125222">
<rect width="48" height="48" fill="white" transform="translate(0.5)"/>
</clipPath>
</defs>
</svg>
