<svg width="41" height="40" viewBox="0 0 41 40" fill="none" xmlns="http://www.w3.org/2000/svg">
<path d="M14.8065 6.816C17.3405 2.272 18.6065 0 20.5005 0C22.3945 0 23.6605 2.272 26.1945 6.816L26.8505 7.992C27.5705 9.284 27.9305 9.93 28.4905 10.356C29.0505 10.782 29.7505 10.94 31.1505 11.256L32.4225 11.544C37.3425 12.658 39.8005 13.214 40.3865 15.096C40.9705 16.976 39.2945 18.938 35.9405 22.86L35.0725 23.874C34.1205 24.988 33.6425 25.546 33.4285 26.234C33.2145 26.924 33.2865 27.668 33.4305 29.154L33.5625 30.508C34.0685 35.742 34.3225 38.358 32.7905 39.52C31.2585 40.684 28.9545 39.622 24.3505 37.502L23.1565 36.954C21.8485 36.35 21.1945 36.05 20.5005 36.05C19.8065 36.05 19.1525 36.35 17.8425 36.954L16.6525 37.502C12.0465 39.622 9.74247 40.682 8.21247 39.522C6.67847 38.358 6.93247 35.742 7.43847 30.508L7.57047 29.156C7.71447 27.668 7.78647 26.924 7.57047 26.236C7.35847 25.546 6.88047 24.988 5.92847 23.876L5.06047 22.86C1.70647 18.94 0.03047 16.978 0.61447 15.096C1.20047 13.214 3.66047 12.656 8.58047 11.544L9.85247 11.256C11.2505 10.94 11.9485 10.782 12.5105 10.356C13.0705 9.93 13.4305 9.284 14.1505 7.992L14.8065 6.816Z" fill="#4F46E5"/>
</svg>
