<svg width="24" height="24" viewBox="0 0 24 24" fill="none" xmlns="http://www.w3.org/2000/svg">
<path d="M7 3C4.79086 3 3 4.79086 3 7V17C3 19.2091 4.79086 21 7 21H10C10.5523 21 11 20.5523 11 20C11 19.4477 10.5523 19 10 19H7C5.89543 19 5 18.1046 5 17V7C5 5.89543 5.89543 5 7 5H17C18.1046 5 19 5.89543 19 7V9C19 9.55228 19.4477 10 20 10C20.5523 10 21 9.55228 21 9V7C21 4.79086 19.2091 3 17 3H7Z" fill="#4338CA"/>
<path fill-rule="evenodd" clip-rule="evenodd" d="M17.7782 12.4142C18.5592 11.6332 19.8255 11.6332 20.6066 12.4142L22.0208 13.8284C22.8019 14.6095 22.8019 15.8758 22.0208 16.6569L18.1258 20.5519C17.8665 20.8111 17.541 20.9941 17.1847 21.0809L13.7183 21.9249C12.9901 22.1022 12.3328 21.4449 12.5102 20.7167L13.3541 17.2503C13.4409 16.894 13.6239 16.5685 13.8832 16.3092L17.7782 12.4142ZM19.1924 13.8284L20.6066 15.2426L16.7116 19.1376L14.8422 19.5928L15.2974 17.7234L19.1924 13.8284Z" fill="#4338CA"/>
<path d="M7 9C7 8.44772 7.44772 8 8 8H16C16.5523 8 17 8.44772 17 9C17 9.55228 16.5523 10 16 10H8C7.44772 10 7 9.55228 7 9Z" fill="#4338CA"/>
<path d="M8 12C7.44772 12 7 12.4477 7 13C7 13.5523 7.44772 14 8 14H13C13.5523 14 14 13.5523 14 13C14 12.4477 13.5523 12 13 12H8Z" fill="#4338CA"/>
</svg>
