<svg width="24" height="24" viewBox="0 0 24 24" fill="none" xmlns="http://www.w3.org/2000/svg">
<path d="M12 21C11.7 21 11.4127 20.946 11.138 20.838C10.8633 20.73 10.6173 20.5673 10.4 20.35L4.9 14.825C4.71667 14.6083 4.63734 14.3667 4.662 14.1C4.68667 13.8333 4.80767 13.6083 5.025 13.425C5.24234 13.2417 5.48834 13.1583 5.763 13.175C6.03767 13.1917 6.26667 13.3083 6.45 13.525L11.825 18.925C11.8583 18.9583 11.8877 18.9793 11.913 18.988C11.9383 18.9967 11.9673 19.0007 12 19C12.0327 18.9993 12.062 18.9953 12.088 18.988C12.114 18.9807 12.143 18.9597 12.175 18.925L18.85 12.225C19.2333 11.8417 19.525 11.3877 19.725 10.863C19.925 10.3383 20.025 9.80067 20.025 9.25C19.9917 8.1 19.6083 7.11233 18.875 6.287C18.1417 5.46167 17.225 5.04933 16.125 5.05C15.6083 5.05 15.1127 5.15 14.638 5.35C14.1633 5.55 13.7507 5.84167 13.4 6.225L12.725 6.95C12.6417 7.05 12.5333 7.12933 12.4 7.188C12.2667 7.24667 12.1333 7.27567 12 7.275C11.8667 7.27433 11.7333 7.24533 11.6 7.188C11.4667 7.13067 11.35 7.05133 11.25 6.95L10.575 6.225C10.225 5.84167 9.81667 5.54167 9.35 5.325C8.88334 5.10833 8.38334 5 7.85 5C6.95 5 6.171 5.28767 5.513 5.863C4.855 6.43833 4.40867 7.15067 4.174 8C4.09067 8.26667 3.93234 8.471 3.699 8.613C3.46567 8.755 3.21567 8.784 2.949 8.7C2.68234 8.616 2.478 8.45767 2.336 8.225C2.194 7.99233 2.165 7.74233 2.249 7.475C2.61567 6.20833 3.303 5.146 4.311 4.288C5.319 3.43 6.49867 3.00067 7.85 3C8.65 3 9.40434 3.15833 10.113 3.475C10.8217 3.79167 11.4507 4.23333 12 4.8C12.5333 4.23333 13.1543 3.79167 13.863 3.475C14.5717 3.15833 15.3257 3 16.125 3C17.7917 3 19.1877 3.61667 20.313 4.85C21.4383 6.08333 22.0007 7.55 22 9.25C22 10.0667 21.8583 10.85 21.575 11.6C21.2917 12.35 20.8667 13.0167 20.3 13.6L13.575 20.35C13.3583 20.5667 13.1167 20.7293 12.85 20.838C12.5833 20.9467 12.3 21.0007 12 21ZM11.875 12H3C2.71667 12 2.47934 11.904 2.288 11.712C2.09667 11.52 2.00067 11.2827 2 11C1.99934 10.7173 2.09534 10.48 2.288 10.288C2.48067 10.096 2.718 10 3 10H15.875C16.1583 10 16.396 9.904 16.588 9.712C16.78 9.52 16.8753 9.28267 16.874 9C16.8727 8.71733 16.7767 8.48 16.586 8.288C16.3953 8.096 16.1583 8 15.875 8C15.7583 8 15.646 8.01667 15.538 8.05C15.43 8.08333 15.334 8.13333 15.25 8.2C15.0333 8.36667 14.7917 8.42933 14.525 8.388C14.2583 8.34667 14.0417 8.21733 13.875 8C13.7083 7.78267 13.6417 7.537 13.675 7.263C13.7083 6.989 13.8333 6.768 14.05 6.6C14.3167 6.4 14.6043 6.25 14.913 6.15C15.2217 6.05 15.5423 6 15.875 6C16.7083 6 17.4167 6.29167 18 6.875C18.5833 7.45833 18.875 8.16667 18.875 9C18.875 9.83333 18.5833 10.5417 18 11.125C17.4167 11.7083 16.7083 12 15.875 12H14.7C14.75 12.1667 14.7917 12.3293 14.825 12.488C14.8583 12.6467 14.875 12.8173 14.875 13C14.875 13.8333 14.5833 14.5417 14 15.125C13.4167 15.7083 12.7083 16 11.875 16C11.5417 16 11.221 15.9417 10.913 15.825C10.605 15.7083 10.3173 15.5583 10.05 15.375C9.83334 15.2083 9.70834 14.9917 9.675 14.725C9.64167 14.4583 9.70834 14.2167 9.875 14C10.0417 13.7833 10.2583 13.6543 10.525 13.613C10.7917 13.5717 11.0333 13.634 11.25 13.8C11.3333 13.8667 11.4293 13.9167 11.538 13.95C11.6467 13.9833 11.759 14 11.875 14C12.1583 14 12.396 13.9043 12.588 13.713C12.78 13.5217 12.8757 13.284 12.875 13C12.8743 12.716 12.7783 12.4787 12.587 12.288C12.3957 12.0973 12.1583 12.0013 11.875 12Z" fill="#4338CA"/>
</svg>
