<svg width="24" height="24" viewBox="0 0 24 24" fill="none" xmlns="http://www.w3.org/2000/svg">
<path fill-rule="evenodd" clip-rule="evenodd" d="M13.0681 8.97077C12.5795 8.1582 11.7138 7.59934 10.7143 7.53077V3.60677C10.7143 3.21827 10.8687 2.84567 11.1434 2.57096C11.4181 2.29625 11.7907 2.14191 12.1792 2.14191C12.5677 2.14191 12.9403 2.29625 13.215 2.57096C13.4897 2.84567 13.644 3.21827 13.644 3.60677V7.80677C13.6446 8.03212 13.5928 8.25452 13.4929 8.45649C13.393 8.65846 13.2475 8.8345 13.0681 8.97077ZM14.9109 10.1622C14.5115 10.6251 13.9955 10.9851 13.4092 11.1976C13.287 11.702 13.0353 12.1657 12.6791 12.543C12.3228 12.9203 11.8743 13.1981 11.3778 13.3491L11.1463 13.4193C11.9315 14.1616 12.5349 15.2365 12.5075 16.5033C12.5044 16.644 12.4737 16.7828 12.4171 16.9116C12.3604 17.0404 12.2789 17.1568 12.1773 17.2542C12.0757 17.3515 11.9558 17.4279 11.8247 17.4789C11.6935 17.53 11.5536 17.5547 11.4129 17.5516C11.2722 17.5486 11.1335 17.5179 11.0047 17.4612C10.8758 17.4046 10.7594 17.3231 10.6621 17.2214C10.5647 17.1198 10.4884 17 10.4373 16.8688C10.3863 16.7377 10.3616 16.5978 10.3646 16.4571C10.3766 15.9136 10.1126 15.3771 9.64119 14.9485C9.15948 14.5079 8.57148 14.2851 8.13433 14.2851C7.87756 14.2848 7.62944 14.1923 7.43513 14.0244C7.24083 13.8565 7.11327 13.6245 7.07568 13.3705C7.03809 13.1165 7.09296 12.8574 7.23032 12.6405C7.36767 12.4235 7.57837 12.2631 7.82405 12.1885L10.7555 11.2988C10.9082 11.2517 11.0444 11.162 11.1479 11.0402C11.2515 10.9185 11.3181 10.7697 11.34 10.6113C11.3074 10.4926 11.2964 10.3689 11.3075 10.2462C11.2526 10.0791 11.1466 9.93347 11.0045 9.82982C10.8624 9.72617 10.6914 9.66974 10.5155 9.66848H5.38291C5.15421 9.65694 4.92698 9.71107 4.72805 9.82448C4.56849 9.9327 4.44256 10.0836 4.36462 10.2599C4.12462 10.7313 4.02176 11.4548 4.02176 12.3239C4.02176 15.0976 5.37605 17.1719 7.03891 17.7479C7.46748 17.8971 7.75891 18.3033 7.75891 18.7593V22.9285C7.75891 23.2126 7.64602 23.4852 7.44509 23.6861C7.24416 23.887 6.97164 23.9999 6.68748 23.9999C6.40332 23.9999 6.1308 23.887 5.92986 23.6861C5.72893 23.4852 5.61605 23.2126 5.61605 22.9285V19.4622C3.24519 18.2399 1.87891 15.3668 1.87891 12.3239C1.87891 11.3708 1.97833 10.2291 2.45148 9.29305C2.68462 8.8302 3.02234 8.39305 3.50062 8.06734V5.23877C3.50032 4.60688 3.6661 3.986 3.98136 3.43837C4.29662 2.89074 4.75028 2.4356 5.29688 2.11854C5.84347 1.80149 6.4638 1.63367 7.09569 1.63191C7.72758 1.63014 8.34883 1.79449 8.89719 2.10848C9.18469 1.47949 9.64687 0.946349 10.2287 0.572541C10.8106 0.198733 11.4876 0 12.1792 0C12.8708 0 13.5478 0.198733 14.1297 0.572541C14.7115 0.946349 15.1737 1.47949 15.4612 2.10848C16.0097 1.79539 16.6308 1.63182 17.2624 1.63414C17.894 1.63645 18.5139 1.80457 19.0601 2.12168C19.6063 2.43878 20.0597 2.89375 20.3749 3.44108C20.69 3.98841 20.856 4.6089 20.8561 5.24048V6.58791C21.2274 7.45512 21.5022 8.36058 21.6755 9.28791C22.2515 12.1799 22.0406 15.7113 19.6235 18.0239C19.0933 18.5299 18.5145 18.9824 17.8955 19.3748V22.9285C17.8955 23.2126 17.7826 23.4852 17.5817 23.6861C17.3807 23.887 17.1082 23.9999 16.824 23.9999C16.5399 23.9999 16.2674 23.887 16.0664 23.6861C15.8655 23.4852 15.7526 23.2126 15.7526 22.9285V18.7833C15.749 18.578 15.804 18.3759 15.9112 18.2007C16.0184 18.0255 16.1733 17.8845 16.3578 17.7942L16.3663 17.7908L16.4692 17.7342C17.0735 17.3806 17.635 16.9584 18.1423 16.4759C19.6903 14.9931 20.0572 12.5793 19.6475 10.1108C18.9872 10.699 18.1335 11.0236 17.2492 11.0228C16.3578 11.0228 15.54 10.6988 14.9109 10.1622ZM15.7852 7.43648C15.7879 7.82476 15.9448 8.19605 16.2213 8.46867C16.4977 8.7413 16.8712 8.89293 17.2595 8.8902C17.6478 8.88747 18.019 8.73061 18.2917 8.45413C18.5643 8.17765 18.7159 7.80419 18.7132 7.41591V5.24048C18.7031 4.86083 18.5459 4.49994 18.2748 4.23401C18.0037 3.96808 17.6398 3.81792 17.26 3.81526C16.8802 3.81259 16.5143 3.95761 16.2394 4.2197C15.9645 4.48179 15.8023 4.84044 15.7869 5.21991L15.7852 7.43648ZM8.57148 7.52563V5.23877C8.57148 4.85072 8.41733 4.47856 8.14293 4.20417C7.86854 3.92978 7.49638 3.77563 7.10834 3.77563C6.72029 3.77563 6.34813 3.92978 6.07374 4.20417C5.79934 4.47856 5.64519 4.85072 5.64519 5.23877V7.52563H8.57148Z" fill="currentColor"/>
</svg>
