<svg width="20" height="20" viewBox="0 0 20 20" fill="none" xmlns="http://www.w3.org/2000/svg">
<path d="M17.214 0C17.5031 0.00240576 17.7891 0.0660628 18.0519 0.186523C18.2488 0.276803 18.4296 0.397631 18.588 0.543945L18.7394 0.699219L18.7423 0.703125C18.9314 0.92113 19.0728 1.17629 19.1574 1.45215C19.242 1.72792 19.2688 2.01828 19.2345 2.30469L19.2336 2.30371L17.6437 16.3066V16.3086C17.5257 17.3273 17.0403 18.2681 16.2765 18.9502C15.5162 19.6308 14.5302 20.0036 13.5099 19.999L6.5402 20C5.51993 20.0045 4.53386 19.6308 3.7736 18.9502L3.63395 18.8193C2.9508 18.1503 2.51704 17.2637 2.40641 16.3086L0.764808 2.30273L0.765784 2.30176C0.731258 2.01426 0.757164 1.72291 0.842933 1.44629C0.929363 1.16757 1.07345 0.910008 1.26676 0.691406L1.26774 0.692383C1.46014 0.473924 1.6965 0.298015 1.96207 0.178711C2.22673 0.0598748 2.5138 0.000115395 2.80387 0.000976562L17.214 0ZM9.96012 7.99902C9.03977 7.27156 7.97863 7.06571 6.75407 7.18359C5.71225 7.28392 4.60684 7.6164 3.44938 8.02832L4.39371 16.0771V16.0791C4.44799 16.5473 4.64913 16.9812 4.96403 17.3193L5.1066 17.458L5.10758 17.459C5.49959 17.8101 6.00806 18.0031 6.53434 18H13.5158C14.042 18.0031 14.5505 17.8101 14.9425 17.459L14.9445 17.458C15.3405 17.1042 15.5944 16.6142 15.6564 16.0791L16.4035 9.50195C14.3803 9.81219 12.1911 9.76489 9.96012 7.99902ZM5.67985 11.583C6.22671 11.5061 6.73275 11.8867 6.80973 12.4336L7.04606 14.1201L7.08219 14.2617C7.11329 14.3528 7.1586 14.4376 7.21696 14.5117L7.31461 14.6152L7.31754 14.6182C7.45574 14.7432 7.63333 14.8161 7.8195 14.8242H7.82633L8.87321 14.877C9.42478 14.9049 9.84937 15.3752 9.82145 15.9268C9.79342 16.4782 9.32411 16.9029 8.77262 16.875L7.73258 16.8213C7.08168 16.793 6.46116 16.5392 5.9777 16.1025C5.49272 15.6669 5.17427 15.0777 5.07145 14.4365C5.07044 14.4302 5.06941 14.4233 5.06852 14.417L4.82926 12.7129C4.75228 12.166 5.13295 11.66 5.67985 11.583ZM2.78141 2.00391C2.77625 2.00625 2.77148 2.00941 2.76774 2.01367L2.76481 2.0166C2.75939 2.0228 2.75559 2.03024 2.75309 2.03809C2.75059 2.04615 2.74915 2.05509 2.75016 2.06348L2.75114 2.06934L3.21012 5.99023C4.29404 5.62066 5.43525 5.30091 6.56266 5.19238C8.04367 5.04982 9.56301 5.26503 10.9298 6.22754L11.2013 6.43066C12.9741 7.83383 14.6463 7.79776 16.6379 7.43066L17.2472 2.07324L17.2482 2.06738C17.2494 2.05769 17.2481 2.04741 17.2453 2.03809C17.2427 2.02974 17.2381 2.02243 17.2326 2.01562C17.2283 2.01123 17.2235 2.00744 17.2179 2.00488L17.1974 2H2.79801C2.7923 1.99997 2.78662 2.00156 2.78141 2.00391Z" fill="currentColor"/>
</svg>
