<svg width="24" height="24" viewBox="0 0 24 24" fill="none" xmlns="http://www.w3.org/2000/svg">
<g clip-path="url(#clip0_3497_415599)">
<path d="M5.92773 6.6816C5.92773 6.42269 5.8764 6.16592 5.77734 5.92671C5.67825 5.68748 5.53271 5.47017 5.34961 5.28707C5.16649 5.10395 4.94922 4.95843 4.70996 4.85933C4.47073 4.76025 4.21402 4.70894 3.95508 4.70894C3.43219 4.70903 2.93029 4.91732 2.56055 5.28707C2.19095 5.65685 1.9834 6.15876 1.9834 6.6816C1.9835 7.20425 2.1911 7.70547 2.56055 8.07515C2.93029 8.4449 3.43219 8.65319 3.95508 8.65328C4.21404 8.65328 4.47071 8.60199 4.70996 8.50289C4.94922 8.40378 5.16649 8.25827 5.34961 8.07515C5.53266 7.89206 5.67826 7.6747 5.77734 7.4355C5.87631 7.19646 5.92768 6.94031 5.92773 6.6816ZM13.4229 17.5371C13.4229 18.7767 14.3445 19.698 15.582 19.6982H18.2178C18.8084 19.698 19.3222 19.2876 19.4443 18.7334C19.5381 18.0365 19.0255 17.4843 18.3223 17.4843H16.6377C16.0855 17.4843 15.6378 17.0366 15.6377 16.4843V12.581C15.6377 12.3159 15.7432 12.0615 15.9307 11.874L21.6201 6.18453C22.087 5.71765 22.1127 5.10981 21.8438 4.75093C21.8374 4.74244 21.8303 4.73423 21.8242 4.72554C21.4409 4.17868 20.5905 4.14116 20.1895 4.54195L14.9209 9.81148C14.7335 9.99891 14.4789 10.1043 14.2139 10.1044H9.26465L9.10449 10.1084C8.31005 10.15 7.55639 10.4846 6.99121 11.0498C6.38851 11.6527 6.04929 12.4697 6.04688 13.3222V18.7978C6.04688 19.3293 6.38281 19.6614 6.7373 19.7011C6.75975 19.7036 6.78247 19.7069 6.80469 19.7109C7.28027 19.7969 7.73433 19.4076 7.73438 18.9033V14.8994C7.73438 14.3471 8.1821 13.8994 8.73438 13.8994H12.4229C12.9749 13.8996 13.4229 14.3472 13.4229 14.8994V17.5371ZM7.92773 6.6816C7.92768 7.20305 7.82454 7.71936 7.625 8.20113C7.59681 8.26918 7.56603 8.33607 7.53418 8.4023C8.0831 8.2086 8.66569 8.10613 9.25879 8.10445H13.7988L18.7754 3.12789C20.0533 1.85017 22.3434 2.01675 23.4434 3.55171L23.5332 3.67671C24.4134 4.98468 24.0097 6.62303 23.0342 7.59859L17.6377 12.9951V15.4843H18.3223C20.1412 15.4843 21.7303 17.0274 21.4189 19.0595C21.4167 19.0745 21.4141 19.0896 21.4111 19.1044C21.1025 20.6449 19.7271 21.698 18.2178 21.6982H15.582C13.2399 21.698 11.4229 19.8812 11.4229 17.5371V15.8994H9.73438V18.9033C9.73433 20.5068 8.29254 22.0135 6.44824 21.6796V21.6777C4.94726 21.474 4.04688 20.1421 4.04688 18.7978V13.3164C4.04967 12.3294 4.33162 11.3723 4.84863 10.5498C4.55627 10.6173 4.25655 10.6533 3.95508 10.6533C2.90177 10.6532 1.8913 10.235 1.14648 9.49019C0.401684 8.74539 -0.0164963 7.73489 -0.0166016 6.6816C-0.0166016 5.62833 0.401814 4.61786 1.14648 3.873C1.8913 3.12818 2.90175 2.70903 3.95508 2.70894C4.47669 2.70894 4.99368 2.81206 5.47559 3.01168C5.95742 3.21129 6.39489 3.50422 6.76367 3.873C7.13246 4.24181 7.4254 4.67924 7.625 5.16109C7.82461 5.64299 7.92773 6.15999 7.92773 6.6816Z" fill="currentColor"/>
</g>
<defs>
<clipPath id="clip0_3497_415599">
<rect width="24" height="24" fill="white"/>
</clipPath>
</defs>
</svg>
