<svg width="24" height="24" viewBox="0 0 24 24" fill="none" xmlns="http://www.w3.org/2000/svg">
<path d="M5.39984 9.49967C6.04984 9.49967 6.66651 9.61633 7.24984 9.84967C7.83318 10.083 8.36651 10.4247 8.84984 10.8747L18.3998 19.9997H18.9998C19.2832 19.9997 19.5208 19.9037 19.7128 19.7117C19.9048 19.5197 20.0005 19.2823 19.9998 18.9997C19.9998 18.8663 19.9872 18.7247 19.9618 18.5747C19.9365 18.4247 19.8492 18.2747 19.6998 18.1247L15.1248 13.5497L13.3498 8.19967L11.4998 8.64967C10.8665 8.81633 10.2915 8.69967 9.77484 8.29967C9.25818 7.89967 8.99984 7.37467 8.99984 6.72467V4.62467L8.29984 4.27467L4.44984 9.42467C4.43318 9.44133 4.42484 9.45367 4.42484 9.46167C4.42484 9.46967 4.41651 9.48233 4.39984 9.49967H5.39984ZM5.39984 11.4997H4.24984C4.29984 11.6163 4.36251 11.7247 4.43784 11.8247C4.51318 11.9247 4.60051 12.0163 4.69984 12.0997L12.7998 19.4747C12.9832 19.658 13.1915 19.7913 13.4248 19.8747C13.6582 19.958 13.8998 19.9997 14.1498 19.9997H15.4998L7.47484 12.3247C7.19151 12.0413 6.87084 11.833 6.51284 11.6997C6.15484 11.5663 5.78384 11.4997 5.39984 11.4997ZM14.1498 21.9997C13.6498 21.9997 13.1748 21.908 12.7248 21.7247C12.2748 21.5413 11.8582 21.283 11.4748 20.9497L3.34984 13.5747C2.58318 12.8747 2.15384 12.0163 2.06184 10.9997C1.96984 9.983 2.23251 9.058 2.84984 8.22467L6.69984 3.07467C6.98318 2.69133 7.36251 2.437 7.83784 2.31167C8.31318 2.18633 8.76718 2.24067 9.19984 2.47467L9.89984 2.82467C10.2498 3.008 10.5208 3.258 10.7128 3.57467C10.9048 3.89133 11.0005 4.24133 10.9998 4.62467V6.72467L12.8498 6.24967C13.3498 6.11633 13.8332 6.179 14.2998 6.43767C14.7665 6.69633 15.0832 7.067 15.2498 7.54967L16.8748 12.4497L21.1248 16.6997C21.4582 17.033 21.6875 17.3913 21.8128 17.7747C21.9382 18.158 22.0005 18.5663 21.9998 18.9997C21.9998 19.833 21.7082 20.5413 21.1248 21.1247C20.5415 21.708 19.8332 21.9997 18.9998 21.9997H14.1498Z" fill="#4338CA"/>
</svg>
